<?xml version="1.0" encoding="utf-8"?>
<!-- Generator: Adobe Illustrator 25.2.0, SVG Export Plug-In . SVG Version: 6.00 Build 0)  -->
<svg version="1.1" id="OBJECTS" xmlns="http://www.w3.org/2000/svg" xmlns:xlink="http://www.w3.org/1999/xlink" x="0px" y="0px"
	 viewBox="0 0 223.8 187.9" style="enable-background:new 0 0 223.8 187.9;" xml:space="preserve">
<style type="text/css">
	.st0{fill:#F0F0F0;}
	.st1{clip-path:url(#SVGID_2_);}
	.st2{fill:url(#SVGID_3_);}
	.st3{fill:url(#SVGID_4_);}
	.st4{clip-path:url(#SVGID_6_);}
	.st5{fill:url(#SVGID_7_);}
	.st6{fill:#FFFFFF;}
</style>
<path class="st0" d="M142.2,78.9c-34.5-20.8-50.8-84.9-104-46.6S7,149.2,58,168.2s116.7,8.3,135.1-27
	C224.7,80.8,165.3,92.9,142.2,78.9z"/>
<path class="st0" d="M142.2,78.9c-34.5-20.8-50.8-84.9-104-46.6S7,149.2,58,168.2s116.7,8.3,135.1-27
	C224.7,80.8,165.3,92.9,142.2,78.9z"/>
<g>
	<defs>
		<path id="SVGID_1_" d="M142.2,78.9c-34.5-20.8-50.8-84.9-104-46.6S7,149.2,58,168.2s116.7,8.3,135.1-27
			C224.7,80.8,165.3,92.9,142.2,78.9z"/>
	</defs>
	<clipPath id="SVGID_2_">
		<use xlink:href="#SVGID_1_"  style="overflow:visible;"/>
	</clipPath>
	<g class="st1">
		<path class="st0" d="M2.3,153c0,0,29.4-29.5,78.5-15.5s78,2,71.9-72.2c0,0,69,9.6,60.2,58.7C202.2,183.6,63.5,206.3,2.3,153z"/>
	</g>
</g>
<linearGradient id="SVGID_3_" gradientUnits="userSpaceOnUse" x1="11.0852" y1="95.0538" x2="205.8283" y2="95.0538" gradientTransform="matrix(1 0 0 -1 0 190)">
	<stop  offset="0" style="stop-color:#00BFC2"/>
	<stop  offset="0.246" style="stop-color:#00BBC5"/>
	<stop  offset="0.49" style="stop-color:#00AFCF"/>
	<stop  offset="0.732" style="stop-color:#009BDF"/>
	<stop  offset="0.972" style="stop-color:#0080F5"/>
	<stop  offset="1" style="stop-color:#007CF8"/>
</linearGradient>
<path class="st2" d="M145.8,74.9C111.3,54.1,95-9.9,41.8,28.3S10.6,145.2,61.7,164.2s116.7,8.3,135.1-27
	C228.4,76.8,168.9,88.9,145.8,74.9z"/>
<linearGradient id="SVGID_4_" gradientUnits="userSpaceOnUse" x1="11.0852" y1="95.0538" x2="205.8283" y2="95.0538" gradientTransform="matrix(1 0 0 -1 0 190)">
	<stop  offset="0" style="stop-color:#00BFC2"/>
	<stop  offset="0.246" style="stop-color:#00BBC5"/>
	<stop  offset="0.49" style="stop-color:#00AFCF"/>
	<stop  offset="0.732" style="stop-color:#009BDF"/>
	<stop  offset="0.972" style="stop-color:#0080F5"/>
	<stop  offset="1" style="stop-color:#007CF8"/>
</linearGradient>
<path class="st3" d="M145.8,74.9C111.3,54.1,95-9.9,41.8,28.3S10.6,145.2,61.7,164.2s116.7,8.3,135.1-27
	C228.4,76.8,168.9,88.9,145.8,74.9z"/>
<g>
	<defs>
		<path id="SVGID_5_" d="M145.8,74.9C111.3,54.1,95-9.9,41.8,28.3S10.6,145.2,61.7,164.2s116.7,8.3,135.1-27
			C228.4,76.8,168.9,88.9,145.8,74.9z"/>
	</defs>
	<clipPath id="SVGID_6_">
		<use xlink:href="#SVGID_5_"  style="overflow:visible;"/>
	</clipPath>
	<g class="st4">
		
			<linearGradient id="SVGID_7_" gradientUnits="userSpaceOnUse" x1="5.9" y1="69.8081" x2="217.3558" y2="69.8081" gradientTransform="matrix(1 0 0 -1 0 190)">
			<stop  offset="0" style="stop-color:#00BFC2"/>
			<stop  offset="0.246" style="stop-color:#00BBC5"/>
			<stop  offset="0.49" style="stop-color:#00AFCF"/>
			<stop  offset="0.732" style="stop-color:#009BDF"/>
			<stop  offset="0.972" style="stop-color:#0080F5"/>
			<stop  offset="1" style="stop-color:#007CF8"/>
		</linearGradient>
		<path class="st5" d="M5.9,149c0,0,29.4-29.5,78.5-15.5s78,2,71.9-72.2c0,0,69,9.6,60.2,58.7C205.8,179.6,67.2,202.3,5.9,149z"/>
	</g>
</g>
<path class="st6" d="M95.6,48.2l-0.5-1.3l-0.5,1.3c-0.5,1.2-1.4,2.2-2.6,2.6l0,0c1.2,0.5,2.1,1.4,2.6,2.6l0.5,1.3l0.5-1.3
	c0.5-1.2,1.4-2.2,2.6-2.6l0,0C97,50.4,96.1,49.4,95.6,48.2z"/>
<path class="st6" d="M53.5,124.5l-0.5-1.3l-0.5,1.3c-0.5,1.2-1.4,2.2-2.6,2.6l0,0c1.2,0.5,2.1,1.4,2.6,2.6l0.5,1.3l0.5-1.3
	c0.5-1.2,1.4-2.2,2.6-2.6l0,0C54.9,126.7,54,125.7,53.5,124.5z"/>
<path class="st6" d="M179.7,116.5l-0.3-0.9l-0.3,0.9c-0.3,0.8-0.9,1.4-1.7,1.7l0,0c0.8,0.3,1.4,0.9,1.7,1.7l0.3,0.9l0.3-0.9
	c0.3-0.8,0.9-1.4,1.7-1.7l0,0C180.7,117.9,180,117.2,179.7,116.5z"/>
<path class="st6" d="M33.2,72.2l-0.3-0.9l-0.3,0.9c-0.3,0.8-0.9,1.4-1.7,1.7l0,0c0.8,0.3,1.4,0.9,1.7,1.7l0.3,0.9l0.3-0.9
	c0.3-0.8,0.9-1.4,1.7-1.7l0,0C34.1,73.6,33.5,73,33.2,72.2z"/>
<ellipse transform="matrix(0.9928 -0.1201 0.1201 0.9928 -5.5489 16.8043)" class="st6" cx="136.7" cy="54.5" rx="0.5" ry="0.5"/>
</svg>
