<?xml version="1.0" encoding="utf-8"?>
<!-- Generator: Adobe Illustrator 25.2.0, SVG Export Plug-In . SVG Version: 6.00 Build 0)  -->
<svg version="1.1" id="Layer_1" xmlns="http://www.w3.org/2000/svg" xmlns:xlink="http://www.w3.org/1999/xlink" x="0px" y="0px"
	 viewBox="0 0 213.3 60.5" style="enable-background:new 0 0 213.3 60.5;" xml:space="preserve">
<style type="text/css">
	.st0{fill:#003F72;}
	.st1{fill:#FFFFFF;}
	.st2{fill:#FEFEFE;}
	.st3{fill:#C60C30;}
</style>
<g>
	<path class="st0" d="M83.9,25.2c-5.4,0-9-3.9-9-9.6c0-5.6,3.8-9.7,9.2-9.7c5.2,0,8.4,3.7,8.4,9.8c0,0.2,0,0.5,0,0.7H80.3
		c0,3.2,1.4,4.9,3.8,4.9c1.7,0,3-1,3.4-2.7l4.9,0.4C91.3,23,88.2,25.2,83.9,25.2 M87.3,13.5c0-2.7-1.3-4.1-3.4-4.1
		c-2,0-3.3,1.5-3.4,4.1H87.3z"/>
	<path class="st0" d="M204,25.2c-5.4,0-9-3.9-9-9.6c0-5.6,3.8-9.7,9.2-9.7c5.2,0,8.4,3.7,8.4,9.8c0,0.2,0,0.5,0,0.7h-12.2
		c0,3.2,1.4,4.9,3.8,4.9c1.7,0,3-1,3.4-2.7l4.9,0.4C211.3,23,208.2,25.2,204,25.2 M207.3,13.5c0-2.7-1.3-4.1-3.4-4.1
		c-2,0-3.3,1.5-3.4,4.1H207.3z"/>
	<polyline class="st0" points="93,6.4 98.8,6.4 101.4,17.1 104,6.4 108.7,6.4 111.4,17.3 114.5,6.4 118.8,6.4 113.5,24.7 
		108.7,24.7 105.7,12.8 102.7,24.7 98.3,24.7 93,6.4 	"/>
	<path class="st0" d="M128.5,9.6c-2.3,0-3.9,2-4,5.9s1.5,5.9,3.8,5.9c1.8,0,3.4-1.4,3.7-3.7l4.6,0.5c-0.6,4.2-4,6.9-8.6,6.9
		c-5.4,0-9.2-3.9-9.1-9.6c0.1-5.8,4-9.7,9.8-9.7c4.4,0,7.4,2.6,7.9,6.9l-4.7,0.5C131.6,10.9,130.1,9.6,128.5,9.6"/>
	<path class="st0" d="M150,21.7c-1.2,2.2-3.2,3.4-5.7,3.4c-3.8,0-6.1-2.2-6.1-5.6c0-4.3,3.9-6.6,11.7-6.6v-0.8c0-1.8-1-2.8-2.9-2.8
		c-2.1,0-3.3,0.9-3.6,2.6l-4.7-0.5c0.8-3.6,3.7-5.4,8.6-5.4c5.5,0,7.6,2.1,7.6,7.1v8.1c0,1.5,0.1,2.7,0.5,3.5h-5
		C150.1,23.8,150,22.8,150,21.7 M143.5,19.2c0,1.5,0.9,2.4,2.6,2.4c2.1,0,3.7-1.8,3.7-4.3v-1.6C145.7,15.8,143.5,17.1,143.5,19.2z"
		/>
	<path class="st0" d="M161.1,19c0.4,1.7,2,2.6,4.2,2.6c1.9,0,3-0.9,3-2c0-1.6-1.5-1.5-4.2-2.1c-4.3-0.9-6.5-2.3-6.5-5.7s2.8-6,7.4-6
		c3.7,0,6.3,1.7,7.4,4.8l-4.1,0.8c-0.6-1.5-1.7-2.1-3.5-2.1c-1.7,0-2.6,0.6-2.6,1.8c0,1.6,1.8,1.5,5,2.2c4,0.9,5.9,2.3,5.9,5.5
		c0,3.6-3,6.2-8.2,6.2c-4.2,0-7.2-2.1-8-5.5L161.1,19"/>
	<polyline class="st0" points="187.4,0 192.7,0 192.7,24.7 187.4,24.7 187.4,0 	"/>
	<path class="st0" d="M80.6,39.6c0.8-1.3,1.6-2.2,2.7-2.8c1-0.6,2.2-0.9,3.5-0.9c1.1,0,2,0.2,2.8,0.7c0.8,0.4,1.4,1.1,1.8,2.1
		c0.5,1,0.7,2,0.7,3.2v8.3c0,0.6,0.1,1.1,0.4,1.3c0.3,0.3,0.7,0.4,1.4,0.4h1.2v1.3h-8.9v-1.3H87c0.8,0,1.3-0.1,1.7-0.4
		c0.3-0.3,0.5-0.6,0.5-1.1V43c0-1.6-0.2-2.7-0.7-3.5c-0.7-1.1-1.7-1.6-3-1.6s-2.5,0.5-3.4,1.6s-1.4,2.5-1.4,4.3v6.3
		c0,0.6,0.1,1.1,0.4,1.3c0.3,0.3,0.7,0.4,1.4,0.4h1.2v1.3h-9.1v-1.3h1.2c0.6,0,1-0.1,1.3-0.4c0.3-0.2,0.5-0.5,0.5-0.9v-11
		c0-0.7-0.2-1.3-0.6-1.7s-0.9-0.6-1.7-0.6h-1V36l6-0.3L80.6,39.6"/>
	<path class="st0" d="M95.4,36.2l6.8-0.2v14.6c0,0.4,0.1,0.7,0.3,0.9c0.3,0.2,0.6,0.4,1.1,0.4h1.9v1.3h-9.7v-1.3h1.8
		c0.5,0,0.9-0.1,1.2-0.4c0.2-0.3,0.4-0.6,0.4-1.1V39.5c0-0.7-0.2-1.2-0.6-1.5s-1-0.5-1.7-0.5h-1.4v-1.3 M100.1,29
		c0.5,0,1,0.2,1.4,0.6s0.6,0.9,0.6,1.5c0,0.5-0.2,1-0.6,1.4s-0.9,0.6-1.4,0.6c-0.6,0-1-0.2-1.4-0.6c-0.4-0.4-0.6-0.9-0.6-1.4
		s0.2-1,0.6-1.4C99.1,29.2,99.6,29,100.1,29z"/>
	<path class="st0" d="M170.6,36.2l6.8-0.2v14.6c0,0.4,0.1,0.7,0.3,0.9c0.3,0.2,0.6,0.4,1.1,0.4h1.9v1.3H171v-1.3h1.8
		c0.5,0,0.9-0.1,1.2-0.4c0.2-0.3,0.4-0.6,0.4-1.1V39.5c0-0.7-0.2-1.2-0.6-1.5c-0.4-0.3-1-0.5-1.7-0.5h-1.4v-1.3 M175.4,29
		c0.5,0,1,0.2,1.4,0.6s0.6,0.9,0.6,1.5c0,0.5-0.2,1-0.6,1.4c-0.4,0.4-0.9,0.6-1.4,0.6c-0.6,0-1-0.2-1.4-0.6
		c-0.4-0.4-0.6-0.9-0.6-1.4s0.2-1,0.6-1.4C174.4,29.2,174.9,29,175.4,29z"/>
	<path class="st0" d="M104.3,36.1h8.4v1.3c-1.1,0-1.8,0.1-2.1,0.3c-0.3,0.2-0.5,0.4-0.5,0.7s0.1,0.5,0.2,0.8l4.5,10.1l4.1-9.7
		c0.1-0.2,0.1-0.3,0.1-0.5c0-0.9-0.9-1.4-2.6-1.6v-1.3h7.1v1.3c-0.7,0.1-1.3,0.3-1.7,0.6c-0.4,0.3-0.8,0.7-1,1.3l-6.3,14.5h-1
		L106.9,39c-0.2-0.5-0.5-0.9-0.9-1.1c-0.3-0.2-0.9-0.3-1.6-0.3L104.3,36.1"/>
	<path class="st0" d="M138.4,44.7h-12.3c0.1,2.6,0.5,4.4,1.5,5.5c1.1,1.2,2.4,1.8,4,1.8c2.4,0,4.3-1.3,5.8-4l1.2,0.5
		c-1.8,3.4-4.3,5.1-7.7,5.1c-2.3,0-4.2-0.8-5.8-2.5c-1.6-1.7-2.3-3.8-2.3-6.3c0-2.8,0.8-5,2.3-6.7s3.4-2.6,5.7-2.6
		c1.6,0,3.1,0.4,4.3,1.3c1.2,0.8,2.1,2.1,2.7,3.7C138.2,41.6,138.4,43,138.4,44.7 M126.1,43.4h7.5c0.4,0,0.8-0.1,1-0.4
		c0.2-0.3,0.4-0.8,0.4-1.5c0-1.3-0.4-2.5-1.3-3.4c-0.8-0.9-1.8-1.4-3-1.4c-1.3,0-2.4,0.6-3.3,1.7C126.6,39.5,126.2,41.2,126.1,43.4z
		"/>
	<path class="st0" d="M156.5,46.8c0.8,2.1,1.6,3.6,2.6,4.4c1,0.8,2.2,1.2,3.6,1.2c1.3,0,2.3-0.3,3.1-0.9c0.7-0.6,1.1-1.3,1.1-2.2
		c0-0.5-0.1-1-0.4-1.3c-0.3-0.4-0.6-0.7-1.1-0.9s-1.7-0.5-3.6-0.8c-1.8-0.4-3.1-0.8-3.9-1.1c-0.7-0.4-1.3-1-1.7-1.7
		s-0.6-1.5-0.6-2.3c0-1.2,0.4-2.4,1.2-3.4c1.1-1.3,2.6-1.9,4.5-1.9c1.5,0,2.8,0.5,4.1,1.4l1.2-1.3h0.7l0.5,6.1h-1.2
		c-0.5-1.8-1.3-3-2.2-3.8s-2-1.2-3.4-1.2c-1.2,0-2.1,0.3-2.7,0.9c-0.7,0.6-1,1.3-1,2.1c0,0.7,0.3,1.3,0.9,1.8
		c0.6,0.5,1.8,0.9,3.5,1.2c2,0.3,3.3,0.6,3.9,0.9c1,0.4,1.8,0.9,2.3,1.7s0.8,1.7,0.8,2.8c0,1.5-0.6,2.8-1.8,3.8s-2.7,1.6-4.5,1.6
		c-1.7,0-3.2-0.6-4.7-1.7l-1.3,1.5h-1L155,47h1.5"/>
	<path class="st0" d="M193.3,36.1h8.2v1.3h-0.8c-0.7,0-1.2,0.1-1.5,0.3s-0.4,0.4-0.4,0.8c0,0.2,0,0.3,0.1,0.5l4.8,10.2l3.6-8.4
		c0.3-0.6,0.4-1.2,0.4-1.8c0-0.4-0.2-0.8-0.5-1c-0.4-0.2-1.1-0.4-2.1-0.5v-1.3h7.1v1.3c-1.3,0.1-2.2,0.7-2.7,1.8L203.1,54
		c-1.1,2.5-2.2,4.2-3.3,5.1c-1.1,0.9-2.3,1.4-3.5,1.4c-0.9,0-1.6-0.2-2.2-0.7c-0.6-0.5-0.8-1.1-0.8-1.8c0-0.5,0.2-1,0.5-1.3
		c0.3-0.4,0.8-0.5,1.3-0.5s0.9,0.2,1.2,0.5s0.5,0.7,0.5,1.1c0,0.1,0,0.3-0.1,0.5c0,0.2-0.1,0.3-0.1,0.4c0,0.3,0.2,0.4,0.6,0.4
		c0.4,0,0.9-0.1,1.4-0.4c0.5-0.3,1-0.7,1.4-1.4c0.4-0.6,1.2-2.1,2.3-4.3l-6.5-13.8c-0.2-0.5-0.5-0.8-0.9-1.1
		c-0.3-0.2-0.9-0.4-1.5-0.5v-1.5"/>
	<polyline class="st0" points="51.4,0 58.1,0 67.5,15.2 67.5,0 72.7,0 72.7,24.7 67.1,24.7 56.7,7.5 56.6,24.7 51.4,24.7 51.4,0 	
		"/>
	<path class="st0" d="M48.3,28.4h11.2v1.3h-1.9c-0.7,0-1.1,0.1-1.4,0.3c-0.3,0.2-0.4,0.6-0.4,1v13.5c0,1.6,0.1,2.8,0.4,3.6
		c0.4,1.2,1.2,2.2,2.3,2.9s2.5,1.1,4.3,1.1c2.4,0,4.3-0.6,5.6-1.9c1.3-1.3,1.9-3,1.9-5.1V34.4c0-1.1-0.1-1.9-0.2-2.5
		c-0.2-0.6-0.4-1-0.7-1.3c-0.3-0.3-0.6-0.5-1.1-0.7c-0.4-0.2-1.2-0.2-2.2-0.2v-1.3h10.2v1.3h-0.7c-1.1,0-2,0.3-2.5,0.9
		c-0.6,0.6-0.8,1.5-0.8,2.7v11.5c0,2.9-0.8,5.1-2.5,6.6c-1.9,1.7-4.3,2.6-7.4,2.6c-2.7,0-4.8-0.4-6.3-1.1c-1.5-0.8-2.6-1.8-3.3-3.3
		c-0.5-1.1-0.8-2.4-0.8-4.1V31.1c0-0.4-0.1-0.7-0.4-1c-0.3-0.2-0.7-0.4-1.3-0.4h-2V28.4"/>
	<path class="st0" d="M185.1,20.9c-0.6,0.1-1.1,0.2-1.6,0.2c-1.8,0-2.2-0.8-2.2-2.9V10h3.8V6.4h-3.8V1.1l-5.3,1v4.3h-2.4V10h2.4v8.8
		c0,4.5,1.7,6.4,6,6.4c1,0,2-0.1,3.1-0.3V20.9"/>
	<path class="st0" d="M192.2,46.6c-0.1,1.8-0.4,3.1-1,3.9c-0.6,0.8-1.3,1.2-2.1,1.2c-0.7,0-1.3-0.3-1.7-0.8s-0.7-1.2-0.7-2.2V37.6
		h5.3v-1.5h-5.3V29h-1.2c-0.1,2.4-0.7,4.2-1.7,5.6c-0.7,0.9-1.8,1.5-3.2,1.7v1.3h3v11.6c0,1.3,0.4,2.3,1.2,3.1s1.9,1.2,3.4,1.2
		s2.8-0.6,3.8-1.7c1-1.1,1.5-2.8,1.6-5.1L192.2,46.6"/>
	<path class="st0" d="M152,35.5c-3,0-5.5,3.5-6.5,7.4v-7l-6.2,0.3v1.3h1.5c0.6,0,1.1,0.2,1.5,0.6c0.3,0.4,0.5,1,0.5,1.8v10.8
		c0,0.3-0.1,0.6-0.4,0.8c-0.3,0.2-0.7,0.3-1.3,0.3h-1.7v1.3H150v-1.3h-2.2c-0.7,0-1.2-0.1-1.5-0.3s-0.4-0.5-0.4-0.9v-3.2
		c0-3.3,1.4-8.9,4.2-8.9c0.8,0,0.6,1.2,2.1,1.2c1.2,0,2.1-0.9,2.1-2.1C154.3,36.3,153.2,35.5,152,35.5"/>
	<path class="st0" d="M0,0c0,0,0,14.6,0,21.7C0,42.2,23,54,23,54s23-11.7,23-32.3C46,14.6,46,0,46,0H0"/>
	<g>
		<path class="st1" d="M35.6,36.6c0-1.2-0.2-2.5-0.5-3.6c-3.4,2.2-6.8,2.8-8.8,1.6c0.1-0.1,0.2-0.3,0.2-0.5c0-0.5-0.4-0.8-0.8-0.8
			c-0.2,0-0.4,0.1-0.5,0.2c-1.2-2-0.6-5.4,1.6-8.8C25.5,24.2,24.3,24,23,24l0,0c-1.2,0-2.5,0.2-3.6,0.5c2.2,3.4,2.8,6.8,1.6,8.8
			c-0.1-0.1-0.3-0.2-0.5-0.2c-0.5,0-0.8,0.4-0.8,0.8c0,0.2,0.1,0.4,0.2,0.5c-2,1.2-5.4,0.6-8.8-1.6c-0.4,1.2-0.5,2.4-0.5,3.6l0,0
			c0,1.2,0.2,2.5,0.5,3.6c3.4-2.2,6.8-2.8,8.8-1.6c-0.1,0.1-0.2,0.3-0.2,0.5c0,0.5,0.4,0.8,0.8,0.8c0.2,0,0.4-0.1,0.5-0.2
			c1.2,2,0.6,5.4-1.6,8.8c1.2,0.4,2.4,0.5,3.6,0.5l0,0c1.2,0,2.5-0.2,3.6-0.5c-2.2-3.4-2.8-6.8-1.6-8.8c0.1,0.1,0.3,0.2,0.5,0.2
			c0.5,0,0.8-0.4,0.8-0.8c0-0.2-0.1-0.4-0.2-0.5c2-1.2,5.4-0.6,8.8,1.6C35.4,39,35.6,37.8,35.6,36.6L35.6,36.6"/>
		<path class="st0" d="M25.3,36.6c0,1.3-1,2.3-2.3,2.3s-2.3-1-2.3-2.3s1-2.3,2.3-2.3S25.3,35.3,25.3,36.6"/>
	</g>
	<rect x="1.3" y="1.3" class="st2" width="43.4" height="20.3"/>
	<path class="st3" d="M26.6,15.8c0.2,0.2,0.1,0.3,0,0.4s-1.2,0.8-1.9,0.6c-0.5-0.2-0.5-1.1-1.3-1.5c-0.6-0.3-1.3,0.2-1.3,0.2
		c1.1,0,1.4,1.5,1.4,1.5c-1.6-1.3-3.1-0.4-3.3,0.4c1.4-0.9,2.6,0.3,2.6,0.3c-0.5,0.1-1.6,0.9-0.8,2.2c0.2-1.5,1.7-1.8,1.7-1.8
		c-0.1,0.7,0.5,2.1,1.7,1.8c-0.9-0.6-0.7-1.2-0.7-1.5c0-0.2,0.2-0.4,0.5-0.4c1.7-0.2,1.7,1.1,1.7,1.1c0.5,0,1.7-1.7,1.7-2.6
		c0.5,0.7,1.7,1.1,2.6,0.5c-1.2-0.2-1.6-1.3-1.7-1.5s-0.3-1.6-0.9-2.1c-0.8-0.8-1.9-0.2-2.6,0.4c-0.2,0.2-0.8,1.2-0.1,1.5
		C26.3,15.6,26.4,15.7,26.6,15.8"/>
	<path class="st3" d="M8.3,12.4c-1.8,0-3.7-3.5-3.9-3.8c1-0.1,0.9-0.6,0.8-0.9C4.9,6.5,2.6,7.6,2.4,7.8c0.1-1.2,1.3-1.6,2.1-1.5l0,0
		C4.4,4.6,2.8,4.5,2.8,4.5c1.4-1,2.3,0.3,2.6,1.3c1.4-1,0.1-2.4-0.2-2.6c0,0,1.1-0.1,1.6,1C7.1,5.3,6.6,6,6.6,6S7,6,7.2,5.8
		C8,5.3,7.9,4.5,7.9,4.4c0,0,0.6,0.4,0.5,1c0,0.5-0.5,0.8-0.7,1.1C7.5,6.8,7,7.3,7.6,9c0.3,0.8,0.7,1.5,1,1.6
		C8.5,11,8.1,11.4,8.3,12.4"/>
	<path class="st3" d="M4.4,15c-1.1,0.1-3,0.5-2,2.5c0-1.4,1.9-1.5,2.2-1.4c-0.9,1.5,0.1,2.9,1,2.9c-0.8-0.7-0.1-1.6,0-1.9
		c0.1-0.2,0.4-0.4,0.7-0.3c1,0.3,0.3,1.1,0.3,1.1c2.2,1,3.2,0.1,3.6-0.4c0,0,0.7,0.7,0,1.1c0.4,0.2,2.5,0.3,3.2-0.7
		c0.3,0.8,2.7,0.8,3.2,0.4c0,0-0.5-0.3-0.5-0.7c0-0.6,0.7-1.1,1.5-1.5c1-0.4,2.6-0.6,4.2-1.4c3-1.4,6.7-4.1,7.9-2.4
		c0.6,0.8,0.5,1.7,1.1,2.2c0.6,0.6,1.6,0.3,2.2,0.2c1.5-0.2,3.6-0.4,4.8-0.5c1.3-0.1,1.6,0.9,1.7,1c0.1,0.3,0,0.5-0.2,0.4
		c-0.4,0-1.2-0.2-1.7,0c-0.6,0.4-0.5,1.3-0.5,1.3c0.5-0.9,2-0.8,2.6-0.7c-0.5,0.4-1.4,2.1-0.1,2.8c-0.3-1.3,0.9-2.2,0.9-2.2
		c0.1,0.4,0.9,1.1,2.6,1c-1.8-0.6-1.5-1.5-1.5-1.5c0.6,0.3,1.9,0.1,2.5-1.3c-2.1,1.3-2.6,0.1-2.7-0.1C41,14.2,42,14.1,42,14.1
		c-0.2-0.4-3.1-2.2-1.7-2.8c-0.5-0.3-1.7-0.2-2.7,0.6c0-0.2,0-0.9-0.3-1.2c0,0-1.7,1.2-3.1,1c-1.4-0.2-0.8-2.2-0.8-2.2
		s3.5,0.4,4.8-0.2c1.3-0.6,1.3-1.5,2.4-2.1c0.9-0.5,1.9-0.1,1.9-0.1c-0.2-0.5-1.9-1.2-3.2,0.2c0,0-0.1-2.5-3.2-2.2
		c-1.9,0.2-3.4,1-5.3,1.3c-1.9,0.4-3.8,0.7-5,0.7s-3-0.3-3.1-1.7c-0.1-0.8,0.5-1.1,1.1-1.1c0.9,0,2.2,0.5,3.3,0.9
		c0.7,0.3,1.5,0.3,1.9,0.3c1.1,0,2.5-0.5,3.2-0.8s1.2-0.4,2.6-0.3c-0.6-0.6-3.5-1.9-5.5-1.8c-1.9,0.1-2,1-3.9,0.9s-3.5,0.2-3.6,1.6
		S23,8,26,7.8c1.3,0,6-0.8,6.9-1.1c1.2-0.4,5.9-1.3,5,1c-0.2,0.5-0.7,1-2.1,1s-3.1-0.4-3.5-0.5c-0.5-0.1-1.7-0.2-2.9-0.1
		c-1.1,0.2-8.8,1.3-10.1,1.4c0,0.5-0.3,1.9,1,2.8c-0.6,0.3-1.7,0.9-2.8,0.4c-0.1,0.4,0.4,1,0.9,1.6c-0.4,0.1-2.1,0.9-2.9,0.4
		c-0.3,0.6-1.4,2.2-3.8,1.7c0.2-0.1,0.1-0.9-0.5-1.1c-0.6,0.1-0.7,0.4-3.1,0.1c-0.7-0.1-1.3-0.3-1.5-0.8s0.1-1.2-0.1-1.6
		C6.2,12.2,5,12.3,5,12.3c1.1,0.8,0.4,2,0.4,2c-1-1-2.6-2-3.1-0.2C3.6,13.5,4.4,15,4.4,15"/>
	<path class="st3" d="M20.1,6c-0.6-1.2-2-0.3-2-0.3c0.4-0.4,0-1.8-0.4-2c0,0.7-0.6,0.9-1,0.8c-0.5-0.1-0.3-0.9-0.2-1.2
		c-0.4,0-1.3-0.1-1.9,0.8c-0.2-1.1-1.1-1.5-2.1-1.3C13.6,4,11.2,5.4,10.4,5c-0.4,0.8,0.9,1.7,1.1,1.5c-0.7,1-1.8,0.8-2.4,0.6
		c0,0.4,0.5,1.4,1.4,1.4C10,9,9,9,8.6,8.9c-0.1,0.7,1,1.3,1.3,1.4c-0.9,1.5-0.6,3.3-0.1,4l0.3,0.6c0.8-1.5,2.5-0.9,2.2,0.5
		c1.6,0.2,2.4-1.2,2.8-2.1c0.6,0.6,1.3,0.7,1.7,0.6c-0.5-1-0.3-2-0.1-2.4c0.6,0.5,1.4,0.7,1.8,0.5C18,11.3,18,9.5,18.1,8.8
		c0.4,0.2,1.2,0.5,1.6-0.4C19,8.3,18.9,6,20.1,6z M12.7,6.2C12.8,6.1,13,5.9,13.1,6c0.2,0.2,0.2,0.4,0.5,0.7
		c0.2,0.2,0.6,0.3,0.7,0.4c0.1,0.4-0.6,0.9-1.4,0.1C12.6,6.9,12.4,6.5,12.7,6.2z M14.5,11.1c-0.8,1.2-1.7,0.6-1.7,0.6
		s-1-0.4-0.5-1.7c-0.6-0.4-0.4-1-0.2-1.1c0.1,0.2,0.1,0.5,0.7,0.8c0.5,0.3,0.7,0.1,0.8,0c0.1-0.2-0.2-0.4-0.3-0.6
		c-0.2-0.2-0.2-0.5-0.1-0.7c0.2-0.2,0.5-0.2,0.6-0.1C13.1,8.4,14,9,14.2,9.1C14.3,9.2,15.3,9.6,15,9c0.2,0,0.3,0.3,0.3,0.5
		S15,9.9,14.7,9.8c-0.3,0-0.6-0.1-0.7,0.1c-0.1,0.1,0,0.4,0.5,0.7s0.7,0.1,1,0C15.5,10.8,15.2,11.4,14.5,11.1z M17.2,8.5
		c-0.1,0.3-0.5,0.5-1,0.4c-1-0.2-1-1-0.7-1.1c0.1,0.1,0.4,0.3,0.7,0.4c0.4,0.1,0.6,0,0.9,0C17.2,8.1,17.2,8.3,17.2,8.5z"/>
</g>
</svg>
