<?xml version="1.0" encoding="utf-8"?>
<!-- Generator: Adobe Illustrator 25.2.0, SVG Export Plug-In . SVG Version: 6.00 Build 0)  -->
<svg version="1.1" id="Layer_2_1_" xmlns="http://www.w3.org/2000/svg" xmlns:xlink="http://www.w3.org/1999/xlink" x="0px" y="0px"
	 viewBox="0 0 199.4 199.4" style="enable-background:new 0 0 199.4 199.4;" xml:space="preserve">
<style type="text/css">
	.st0{fill:#00BFD8;}
</style>
<path class="st0" d="M162,61.7l-35.5-35.6c-0.8-0.8-1.7-1.1-2.8-1.1h-75c-6.5,0-11.9,5.3-11.9,11.8v126.3c0,6.5,5.3,11.9,11.9,11.9
	h102.6c6.5,0,11.9-5.3,11.9-11.9V64.4C163.1,63.4,162.8,62.4,162,61.7z M153.6,64.4h-26c-2.2,0-4-1.8-4-4V34.5L153.6,64.4z
	 M155.3,163.1c0,2.2-1.8,4-4,4H48.7c-2.2,0-4-1.8-4-4V36.8c0-2.2,1.8-4,4-4h67.1v27.6c0,6.5,5.3,11.8,11.8,11.8h27.6V163.1z"/>
<path class="st0" d="M98.6,61.6H55.7c-0.8,0-1.4-1.3-1.4-3s0.7-3,1.4-3h42.9c0.8,0,1.4,1.3,1.4,3S99.3,61.6,98.6,61.6z"/>
<path class="st0" d="M98.1,79.8h-42c-1.1,0-1.9-1.4-1.9-3s0.8-3,1.9-3h41.9c1.1,0,1.9,1.4,1.9,3S99.2,79.8,98.1,79.8z"/>
<path class="st0" d="M142.9,97.9H57.1c-1.6,0-2.8-1.3-2.8-3c0-1.6,1.3-3,2.8-3h85.8c1.6,0,2.9,1.4,2.9,3
	C145.8,96.5,144.5,97.9,142.9,97.9z"/>
<path class="st0" d="M136,116.1H56.9c-1.4,0-2.6-1.4-2.6-3c0-1.7,1.2-3,2.6-3H136c1.4,0,2.6,1.3,2.6,3
	C138.6,114.7,137.5,116.1,136,116.1z"/>
<path class="st0" d="M124.7,134.1H57.3c-1.7,0-3.1-1.4-3.1-3s1.3-3,3.1-3h67.3c1.7,0,3.1,1.4,3.1,3S126.4,134.1,124.7,134.1z"/>
<path class="st0" d="M142.9,152.3H57.1c-1.6,0-2.8-1.4-2.8-3s1.3-3,2.8-3h85.8c1.6,0,2.9,1.4,2.9,3S144.5,152.3,142.9,152.3z"/>
</svg>
