<?xml version="1.0" encoding="utf-8"?>
<!-- Generator: Adobe Illustrator 25.2.0, SVG Export Plug-In . SVG Version: 6.00 Build 0)  -->
<svg version="1.1" id="Layer_3" xmlns="http://www.w3.org/2000/svg" xmlns:xlink="http://www.w3.org/1999/xlink" x="0px" y="0px"
	 viewBox="0 0 199.3 199.2" style="enable-background:new 0 0 199.3 199.2;" xml:space="preserve">
<style type="text/css">
	.st0{fill:#00BFD8;}
</style>
<path class="st0" d="M126.2,92.5c-10.3,0-18.8-8.4-18.8-18.8S115.9,55,126.2,55S145,63.4,145,73.8S136.6,92.5,126.2,92.5z
	 M126.2,62.5c-6.2,0-11.2,5-11.2,11.2c0,6.2,5,11.2,11.2,11.2s11.3-5,11.3-11.2S132.5,62.5,126.2,62.5z"/>
<path class="st0" d="M28.7,175c-1,0-2-0.4-2.6-1.1c-1.1-1-1.4-2.5-0.9-3.9c11.5-31.7,23.7-47.9,36.1-47.9c4.1,0,7.9,1.7,11.4,5.2
	c5.5,5.5,5.6,10.9,4.9,14.5c-2.5,11.3-18.5,22.4-47.5,32.9C29.6,174.9,29.2,175,28.7,175L28.7,175z M61.3,129.6
	c-3.8,0-8.1,3.2-12.7,9.5c-4.5,6.1-9,14.7-13.4,25.7c10-4,18.1-8.1,24-12.2c8-5.5,10.3-9.8,11-12.4c0.6-2.6-0.4-5.1-2.8-7.6
	C65.3,130.7,63.3,129.6,61.3,129.6L61.3,129.6z"/>
<path class="st0" d="M171.2,25c-19.5,0-36.8,3.3-51.5,9.8c-12.2,5.4-22.6,12.9-31,22.4c-1.6,1.8-3,3.6-4.3,5.4
	c-6.4,0.4-13.1,3-19.7,7.7c-5.6,3.8-11.2,9.3-16.7,16.1c-9.2,11.4-14.9,22.7-15.2,23.2c-0.8,1.6-0.3,3.7,1.1,4.7
	c0.7,0.4,1.4,0.8,2.2,0.8c1,0,2-0.4,2.6-1.1c0.1-0.1,3.6-3.6,9.8-7.1c5-2.8,12.8-6.2,22.2-6.8c2.4,6.1,9.2,13.3,12.5,16.7
	c3.3,3.3,10.6,10,16.7,12.4c-0.6,9.4-4,17.2-6.8,22.2c-3.5,6.1-7,9.7-7.1,9.8c-1.3,1.3-1.5,3.4-0.4,4.9c0.8,1,1.9,1.6,3.1,1.6
	c0.6,0,1.1-0.1,1.7-0.4c0.4-0.2,11.8-5.9,23.2-15.1c6.8-5.5,12.2-11.1,16.2-16.7c4.6-6.6,7.2-13.2,7.6-19.6c1.8-1.4,3.6-2.8,5.4-4.4
	c9.5-8.4,17-18.8,22.4-31c6.5-14.8,9.8-32.1,9.8-51.6V25H171.2L171.2,25z M48.3,98.6c7.1-10.3,18.1-23.2,30.4-27.3
	c-4.9,8.6-7.4,16.4-8.3,21.3C61.7,93.2,54.2,95.6,48.3,98.6z M101.4,151.7c2.9-5.9,5.4-13.4,5.9-22c4.9-0.9,12.8-3.5,21.3-8.3
	C124.7,133.6,111.8,144.5,101.4,151.7L101.4,151.7z M137.8,105.6c-15.6,13.8-31.7,16.9-34,16.9c0,0-1.6,0-5.7-2.9
	c-2.9-2-6.2-4.9-9.4-8.2c-3.2-3.2-6.1-6.6-8.2-9.4c-2.8-4.1-2.9-5.7-2.9-5.7c0-2.3,3.2-18.4,16.9-34.1c16.5-18.7,41.7-28.9,73-29.6
	C166.7,64,156.5,89.2,137.8,105.6L137.8,105.6z"/>
</svg>
