<?xml version="1.0" encoding="utf-8"?>
<!-- Generator: Adobe Illustrator 25.2.0, SVG Export Plug-In . SVG Version: 6.00 Build 0)  -->
<svg version="1.1" id="OBJECTS" xmlns="http://www.w3.org/2000/svg" xmlns:xlink="http://www.w3.org/1999/xlink" x="0px" y="0px"
	 viewBox="0 0 242.7 191.6" style="enable-background:new 0 0 242.7 191.6;" xml:space="preserve">
<style type="text/css">
	.st0{fill:url(#SVGID_1_);}
	.st1{fill:#FFFFFF;}
	.st2{fill:#D5DBDA;}
	.st3{fill:#EFEFEF;}
	.st4{fill:#FFD04D;}
	.st5{fill:#00BFD8;}
	.st6{opacity:0.15;}
	.st7{opacity:0.26;enable-background:new    ;}
	.st8{opacity:0.62;}
	.st9{fill:#66341B;}
	.st10{fill:#723E24;}
	.st11{opacity:0.3;}
	.st12{fill:#E8F6F7;}
	.st13{fill:#D0E0E2;}
	.st14{fill:#FFE1BD;}
	.st15{fill:#F4F4F4;}
	.st16{fill:#EAEAEA;}
	.st17{fill:#3A3A3A;}
	.st18{fill:#E2E2E2;}
	.st19{fill:#F4D5B5;}
	.st20{fill:#632F00;}
	.st21{fill:#E8C5A0;}
	.st22{fill:#8C4200;}
	.st23{fill:#606060;}
	.st24{fill:#E5BB98;}
	.st25{fill:#D8D8D8;}
	.st26{fill:#09424C;}
	.st27{fill:#0C5A71;}
	.st28{opacity:0.1;}
	.st29{fill:#0B0B3A;}
	.st30{opacity:0.39;fill:#CE9006;enable-background:new    ;}
	.st31{fill:#D69507;}
	.st32{fill:#EFAF11;}
	.st33{fill:#CE9006;}
	.st34{fill:#FAFEFF;}
	.st35{fill:#B4EFF9;}
	.st36{fill:#75D9EF;}
	.st37{opacity:0.5;}
	.st38{fill:#282C2D;}
	.st39{fill:#D6D6D6;}
	.st40{fill:#525252;}
	.st41{fill:#A5A5AF;}
	.st42{fill:#F1F2F2;}
	.st43{fill:#A7A9AC;}
	.st44{fill:#383838;}
	.st45{fill:#E6E7E8;}
	.st46{fill:#58595B;}
	.st47{fill:#594A42;}
	.st48{fill:#81553A;}
	.st49{opacity:0.55;fill:#EFAF11;enable-background:new    ;}
	.st50{fill:#709E3E;}
	.st51{fill:#93BC6C;}
	.st52{fill:#4C2311;}
	.st53{fill:#1A1A47;}
	.st54{opacity:0.54;fill:#3D3D72;enable-background:new    ;}
	.st55{clip-path:url(#SVGID_3_);}
	.st56{fill:#E1EDF9;}
	.st57{fill:#C2E0F2;}
	.st58{fill:#FFD19F;}
	.st59{fill:#006466;}
	.st60{fill:#007D87;}
	.st61{opacity:0.18;fill:#00B3B7;enable-background:new    ;}
	.st62{opacity:0.45;fill:#00B3B7;enable-background:new    ;}
	.st63{fill:#3D3D72;}
	.st64{fill:#33305B;}
</style>
<linearGradient id="SVGID_1_" gradientUnits="userSpaceOnUse" x1="-1627.0906" y1="952.6781" x2="-1382.0334" y2="952.6781" gradientTransform="matrix(-0.946 -0.19 -0.189 0.945 -1123.301 -1100.5439)">
	<stop  offset="0" style="stop-color:#00BFC2"/>
	<stop  offset="0.489" style="stop-color:#00BDC4"/>
	<stop  offset="0.665" style="stop-color:#00B6C9"/>
	<stop  offset="0.79" style="stop-color:#00ABD4"/>
	<stop  offset="0.892" style="stop-color:#009AE2"/>
	<stop  offset="0.978" style="stop-color:#0084F5"/>
	<stop  offset="1" style="stop-color:#007DFB"/>
</linearGradient>
<path class="st0" d="M80.3,52.9c46-16.6,80.7-88.8,134.9-30.6s9.2,146.4-56,156.9s-140.9-18-154.4-64.4
	C-18.5,35.4,49.4,64,80.3,52.9z"/>
<path class="st1" d="M27.1,100.8l-0.5-1.3l-0.5,1.3c-0.5,1.2-1.4,2.2-2.6,2.6l0,0c1.2,0.5,2.1,1.4,2.6,2.6l0.5,1.3l0.5-1.3
	c0.5-1.2,1.4-2.2,2.6-2.6l0,0C28.5,102.9,27.6,102,27.1,100.8z"/>
<path class="st1" d="M211.5,119.7l-0.5-1.3l-0.5,1.3c-0.5,1.2-1.4,2.2-2.6,2.6l0,0c1.2,0.5,2.1,1.4,2.6,2.6l0.5,1.3l0.5-1.3
	c0.5-1.2,1.4-2.2,2.6-2.6l0,0C212.9,121.9,212,120.9,211.5,119.7z"/>
<path class="st1" d="M169.2,13.2l-0.3-0.9l-0.3,0.9c-0.3,0.8-0.9,1.4-1.7,1.7l0,0c0.8,0.3,1.4,0.9,1.7,1.7l0.3,0.9l0.3-0.9
	c0.3-0.8,0.9-1.4,1.7-1.7l0,0C170.1,14.6,169.5,14,169.2,13.2z"/>
<g>
	<g id="Layer_1_1_">
		<rect x="92.7" y="31.3" class="st2" width="118.4" height="69.9"/>
		<rect x="95.9" y="32.7" class="st1" width="111.8" height="67.2"/>
		<rect x="104.1" y="35.8" class="st3" width="94.6" height="4.5"/>
		<rect x="107.6" y="78.5" class="st4" width="5.1" height="12.9"/>
		<rect x="119.2" y="67.1" class="st5" width="5.1" height="24.3"/>
		<rect x="130.8" y="69.6" class="st4" width="5.1" height="21.8"/>
		<rect x="142.4" y="57.4" class="st5" width="5.1" height="34"/>
		<g class="st6">
			<rect x="119.2" y="67.1" class="st7" width="2.4" height="24.3"/>
		</g>
		<g class="st6">
			<rect x="107.6" y="78.5" class="st7" width="2.4" height="12.9"/>
		</g>
		<g class="st8">
			<rect x="142.4" y="57.4" class="st7" width="2.4" height="34"/>
		</g>
		<g class="st6">
			<rect x="130.8" y="69.6" class="st7" width="2.4" height="21.8"/>
		</g>
		<polygon class="st2" points="150.3,95 104.2,95 104.2,45.9 104.9,45.9 104.9,94.3 150.3,94.3 		"/>
		<polygon class="st2" points="108.9,72.4 108.4,71.9 120.5,61.1 131.7,63.5 143.7,50.1 144.3,50.5 131.9,64.3 120.7,61.8 		"/>
		<polygon class="st2" points="145.2,52.5 141.8,49.2 146.2,48.1 		"/>
		<rect x="154.6" y="75.4" class="st5" width="4.3" height="4.3"/>
		<rect x="154.6" y="83" class="st4" width="4.3" height="4.3"/>
		<rect x="160.1" y="84.8" class="st3" width="13.7" height="2.5"/>
		<rect x="160.1" y="77.3" class="st3" width="13.7" height="2.5"/>
		<rect x="180" y="75.4" class="st5" width="4.3" height="4.3"/>
		<rect x="180" y="83" class="st4" width="4.3" height="4.3"/>
		<rect x="185.5" y="84.8" class="st3" width="13.7" height="2.5"/>
		<rect x="185.5" y="77.3" class="st3" width="13.7" height="2.5"/>
		<rect x="158.3" y="48.9" class="st3" width="40.5" height="0.9"/>
		<rect x="155.1" y="51.1" class="st3" width="43.7" height="0.9"/>
		<rect x="155.1" y="53.3" class="st3" width="43.7" height="0.9"/>
		<rect x="155.1" y="55.6" class="st3" width="43.7" height="0.9"/>
		<rect x="155.1" y="57.8" class="st3" width="43.7" height="0.9"/>
		<rect x="155.1" y="60" class="st3" width="43.7" height="0.9"/>
		<rect x="155.1" y="62.3" class="st3" width="43.7" height="0.9"/>
		<rect x="155.1" y="64.5" class="st3" width="43.7" height="0.9"/>
		<rect x="161.4" y="66.7" class="st3" width="37.4" height="0.9"/>
		<path class="st9" d="M213.6,30.7c0,0.5-0.4,0.9-0.9,0.9H91c-0.5,0-0.9-0.4-0.9-0.9c0,0,0,0,0,0l0,0c0-0.5,0.4-0.9,0.9-0.9
			c0,0,0,0,0,0h121.6C213.2,29.8,213.6,30.2,213.6,30.7L213.6,30.7L213.6,30.7z"/>
		<path class="st9" d="M213.6,101.8c0,0.5-0.4,0.9-0.9,0.9H91c-0.5,0-0.9-0.4-0.9-0.9c0,0,0,0,0,0l0,0c0-0.5,0.4-0.9,0.9-0.9
			c0,0,0,0,0,0h121.6C213.2,100.9,213.6,101.3,213.6,101.8L213.6,101.8z"/>
		<path class="st10" d="M72.5,182l0.7-35.3h-2.3l0.7,35.3c-0.1,0.3,0.1,0.6,0.4,0.6c0.3,0.1,0.6-0.1,0.6-0.4
			C72.5,182.2,72.5,182.1,72.5,182z"/>
		<path class="st10" d="M50.9,177.9l13.6-32.6l-2.2-0.9l-12.4,33c-0.1,0.3,0,0.6,0.2,0.8C50.5,178.4,50.8,178.2,50.9,177.9z"/>
		<path class="st10" d="M93,177.9l-13.6-32.6l2.2-0.9l12.4,33c0.2,0.2,0.1,0.6-0.1,0.7s-0.6,0.1-0.7-0.1C93.1,178,93.1,178,93,177.9
			z"/>
		<g class="st11">
			<path d="M62,145.5l1.4,0.6l-12.8,32.2c0.2-0.1,0.3-0.2,0.4-0.4l13.6-32.6l-2.2-0.9L62,145.5z"/>
			<path d="M70.8,147.7h1.7l-0.7,35c0,0,0,0,0.1,0c0.3,0,0.5-0.3,0.5-0.6l0.7-35.3h-2.3L70.8,147.7z"/>
			<path d="M94,177.5l-12.4-33l-2.2,0.9l0.3,0.6l1.4-0.5l12.3,32.9c0.1,0.1,0.3,0.1,0.4,0.1C94,178.1,94.1,177.8,94,177.5z"/>
		</g>
		<path class="st12" d="M88.2,148.4c-2.4,1.9-5.9,3.7-14.9,3.9c-11.8,0.2-18-1.1-21.3-7.2c-5.6-10.2,1.4-42.9,12.4-35.7
			c9.2,6.1,11.1,25.5,12.3,28.1C77.9,140.2,93.9,143.7,88.2,148.4z"/>
		<path class="st13" d="M75.3,149.8c-11.8,0.2-18-1.1-21.3-7.2c-3.8-6.9-1.8-24.4,3.4-32.5c-6.7,6.2-9.8,27.2-5.5,35
			c3.3,6.1,9.5,7.4,21.3,7.2c9-0.2,12.5-2,14.9-3.9c0.8-0.7,1.2-1.3,1.2-1.9C87,148.2,83.3,149.6,75.3,149.8z"/>
		<path class="st14" d="M80.4,72.2c0.8-2.3,1.5-4.8,2.8-3.5c1.3,1.3,1.2,1.1,0.7,2.9C83.4,73.4,79.7,74.1,80.4,72.2z"/>
		<path class="st14" d="M81.8,68.9c0.4-1.1,1.1-2.4,1.7-2.9c0.7-0.5-0.3,1.3-0.6,2.2C82.7,69,81.5,69.8,81.8,68.9z"/>
		<path class="st15" d="M80.7,81.5c0.9-3.6,1.4-8.2,1.4-8.2l-1.8-1.2c0,0-3.6,7.4-5.6,13.1l-10.1-2.6l-1.2-0.3l3.3,6.5
			c0,0,9.7,1.4,10.3,1.1C77.7,89.6,79.7,85.1,80.7,81.5z"/>
		<path class="st16" d="M77.1,89.9c-0.6,0.3-10.3-1.1-10.3-1.1l-3.3-6.5l1.2,0.3c0.9,0.4,2.4,1.8,3.6,3.4c0.9,1.1,1.3,1.5,2.6,2
			c2,0.7,4.1,1.3,4.9,1.3c1.3,0.1,1.5,0.2,1.8-0.2C77.6,89.4,77.4,89.8,77.1,89.9z"/>
		<path class="st15" d="M53.4,102c0.6,1.6,0.8,3.4,0.4,5.1c-0.8,3.4,0.1,3.6,0.1,3.6s4.6,2.9,8.4,4.1c2.7,0.9,5.1,0.7,5-2.3l0,0
			c0-0.2,0-0.4,0-0.5c-0.1-6.8,1.3-7.1,1.6-14.7c0.4-7.8-1.7-12.2-3.8-14c-2.1-1.9-4.9-2-10.2-0.7c-4,0.9-5.3,2-5.3,5
			c0,1.2,0.2,2.4,0.4,3.6C50.7,94.8,52.3,99.3,53.4,102z"/>
		<path class="st17" d="M63,85.3c0,0,4.1,13.6,3.3,20.1l-1.5,2.8l-1.7-3c0,0,1.4-13-1.2-19.6L63,85.3z"/>
		<path class="st18" d="M53.4,102c0.6,1.6,0.8,3.4,0.4,5.1c-0.8,3.4,0.1,3.6,0.1,3.6s4.6,2.9,8.4,4.1l3.6-0.3l1.4-1.1l0-0.9
			c0-0.2,0-0.4,0-0.5c-1.8,0.1-3.6,0.1-5.4-0.1c-1.8-0.2-3.6-0.7-5.3-1.3c-0.9-0.4-1.5-1.3-1.3-2.3c0.3-1.6,0.5-3.1,0.5-4.7
			c0-1.5-0.7-4-1.3-5.8c-0.4-1.4-0.6-2.9-0.5-4.3c0.1-1.6,0.1-3.3,0-4.9l-2.8-1.5l-1.6,0.6c0,1.2,0.2,2.4,0.4,3.6
			C50.7,94.8,52.3,99.3,53.4,102z"/>
		<path class="st19" d="M53.3,116.5c-0.3,0.1-1.2-1.4-1.2-1.4l0.4-0.5c0.2-0.3,0.5-0.5,0.8-0.6l0.1,0c0.3-0.1,0.6,0,0.8,0.3
			c0.2,0.4,0.6,0.8,1,0.7h0c0,0,0,0,0,0C55.6,115,53.6,116.4,53.3,116.5z"/>
		<path class="st20" d="M66.2,69.2c0,0,0.4,1-0.2,1.8l-2.2-3l1.5,0L66.2,69.2z"/>
		<path class="st14" d="M54.3,73.2c0.1,3.8,3.4,6,3.4,6l-0.2,3.5l2.2,1.4l1.5,1l0.9-1.8l0.1-2.2c0-0.5,0.4-1,0.9-1.1
			c0.8-0.2,1.6-0.7,2.2-1.3c0.1-0.1,0.1-0.1,0.1-0.2l0,0c1.4-2,2-9.5-3-11.7C57.4,64.6,54.2,69.3,54.3,73.2z"/>
		<path class="st21" d="M59.9,82l-0.1,2.1l1.5,1l0.9-1.8l0.1-2.2c0-0.5,0.4-1,0.9-1.1c0.8-0.2,1.6-0.7,2.2-1.3
			c0.1-0.1,0.1-0.1,0.1-0.2c-1,0.5-2,0.9-3.1,1C61,79.6,60,80.7,59.9,82z"/>
		<path class="st22" d="M59.7,74.3c-0.2,0.1-0.4-0.2-0.4-0.2s-1.1-2.4-1.4-2.8c-0.7-0.7-2.2-0.6-2.3,1.5c-0.1,1.6,1.8,5,2.4,6
			c0.1,0.2,0.1,0.4-0.1,0.5c-0.1,0-0.1,0.1-0.2,0.1h0c-0.1,0-0.2,0-0.2-0.1c-1.2-1.1-6.6-6.2-2.3-11.1c0,0,3.4,0.2,3.9,1.9
			c0.4,1.3,0.7,2.6,0.9,3.9C59.8,73.9,59.9,74.3,59.7,74.3z"/>
		<path class="st22" d="M66.2,69.2c0,0-3-2.3-7.5,0.5L55,68.8c0,0-0.2-0.1-0.1-0.6c0.1-0.6,0.5-6,7-4.8
			C65.6,64.1,67.9,66.7,66.2,69.2z"/>
		<path class="st23" d="M63.3,84.2l0,0.2c0,0.3-0.1,0.7-0.3,1l0,0l-1.1,0.2l-1-0.7l1.1-1.3l0.2,0C62.6,83.7,63,83.9,63.3,84.2
			L63.3,84.2z"/>
		<path class="st18" d="M57.5,81.1c-0.4,0.3-0.8,0.7-1.1,1.1c0.5,0.2,0.9,0.5,1.4,0.7c0.6,0.4,3.4,2.3,3.4,2.3l0.8-1.7
			C62,83.5,59.1,81.5,57.5,81.1z"/>
		<path class="st18" d="M62,83.5c0,0,1,0.3,1.3,1.1c0,0,0.5-1-0.1-2.7c-0.3-0.3-0.6-0.5-1-0.7L62,83.5z"/>
		<path class="st24" d="M54.2,114.1c0.2,0.3,0.4,0.5,0.7,0.7c0.2,0.1,0.2-0.1,0.1-0.2C55,114.4,54.3,113.9,54.2,114.1z"/>
		<path class="st20" d="M57.6,79.4L57.6,79.4c-0.1,0-0.2,0-0.3-0.1c-1.2-1.1-6.6-6.2-2.3-11.1c-0.1,0.5-0.2,1-0.1,1.5
			C54.8,69.8,52.1,74.2,57.6,79.4z"/>
		<ellipse class="st25" cx="60.2" cy="182.8" rx="17.7" ry="1.3"/>
		<path class="st22" d="M51.4,177.7c0.2,0.9,0.1,1.2,0.2,1.8c0.1,0.7,0.8,1,1.2,1.6c0.4,0.7,1.1,1.7-1.5,1.8c-2.8,0.1-4.4-0.1-4-1.7
			c0.5-1.6,0.6-2.3,0.5-2.8s0-1,0.3-1.4S51,176.1,51.4,177.7z"/>
		<path class="st17" d="M52,127.6c0,0-4.4-7,1.8-16.8c0,0,4.9,2.2,8.8,2.4c3.1,0.2,4.6-0.1,4.6-0.1s0.3,9.4,0.3,14.5L52,127.6
			L52,127.6z"/>
		<path class="st17" d="M55,148c1.2-5.1-3.8-6-5.4-2.3c-2.2,5.2-2.1,28-1.9,31.3c0,0.4,0.2,0.4,0.5,0.3c0.7-0.3,1.3-0.4,1.6-0.3
			c0.6,0.2,1.1,0.4,1.6,0.7C51.9,173.2,53.8,152.9,55,148z"/>
		<path class="st17" d="M59.5,128.3c0.5-6.3-1.9-11.2-5.7-9.1c-1.6,0.9-2.2,2.6-2.4,4.3s-1.4,18.8-1.8,21.9c-0.9,7,4.4,5.1,5,3.2
			C56.1,143.6,59.2,131.7,59.5,128.3z"/>
		<path class="st17" d="M68.4,147.7c0.2-4.7-3.8-4.5-5.4-0.8c-3.5,7.9,0,24.9,0.7,32.8c0.8-1.3,2.2-1.7,2.6-1.7
			c0.3,0,0.7,0.2,0.9,0.5C67.1,168.7,68.2,152.7,68.4,147.7z"/>
		<path class="st17" d="M63.2,148.2c0.6,1.9,5.7,4.2,5.1-2.9c-0.2-3.1-0.9-20.4-1-22s-0.4-4.1-1.2-4.4c-4-1.5-7.9,3.4-6.9,9.7
			C60,132.8,62,144.2,63.2,148.2z"/>
		<path class="st22" d="M67.2,178.7c0.2,0.4,1.2,1.4,2.6,2c1.4,0.6,4.4,0.9,2.7,1.5s-3.6,0.2-4.5,0.1c-1-0.1-2-0.2-3.1-0.2
			c-1.5,0-1.5-0.1-1.3-1.8C63.9,177.8,66.5,177.3,67.2,178.7z"/>
		<path class="st14" d="M53,112.7l0.8,1.1c0.8-0.1,1.7,0.3,2,1.1c0.7,1.3-1.7,2.9-2.3,2.3c-0.7-0.6-2.1-3.3-2.1-3.3L53,112.7z"/>
		<path class="st15" d="M47.2,109.2c1.5,1.6,3,3.3,4.3,5.1l0.4-0.3l1.5-1c0,0-3.1-6.6-4-9.8c-0.4-1.3-1-2.6-1.9-3.7
			c0.1-0.1,0.1-0.1,0.2-0.2c2.3-2.4,4.1-5.6,5.4-7.5c0.7-0.9,1.1-2,1.3-3.1c0.1-0.8,0.1-1.5,0-2.3c-0.2-1.2-0.7-2.3-1.9-2.6
			c-0.4-0.1-0.9-0.1-1.3,0.1c-0.5,0.2-0.8,0.5-1.1,0.9c-1.8,2.9-6.8,10.7-7.6,12.6c-0.1,0.3-0.2,0.6-0.3,1c0,0.1,0,0.2-0.1,0.3
			C42,101.9,45.1,107.1,47.2,109.2z"/>
		<path class="st16" d="M47.2,109.2c1.5,1.6,3,3.3,4.3,5.1l0.4-0.3c0,0-2.3-3.2-3.4-4.5c-1.7-2-2.8-3.5-3.8-5.4s-1.5-5.4-0.9-6.4
			c0.5-1,3.5-5.4,4.1-6.2c0.6-0.8,5.8-6,4.3-7.4c-0.2-0.2-0.5-0.3-0.8-0.2c-0.5,0.2-0.8,0.5-1.1,0.9c-1.8,2.9-6.8,10.7-7.6,12.6
			c-0.1,0.3-0.2,0.6-0.3,1c0,0.1,0,0.2-0.1,0.3C42,101.9,45.1,107.1,47.2,109.2z"/>
		<path class="st17" d="M55.5,113.8c0,0-0.7,2.5-3.9,3.9c-2.7,1.2,4.4,2,4.5,1.7c0.2-0.3,1.5-4.8,1.5-4.8L55.5,113.8z"/>
		<path class="st10" d="M109.7,180l0.7-35.5H108l0.7,35.5c-0.1,0.3,0.1,0.6,0.4,0.6c0.3,0.1,0.6-0.1,0.6-0.4
			C109.7,180.2,109.7,180.1,109.7,180z"/>
		<path class="st10" d="M88,175.9l13.7-32.8l-2.2-0.9L87,175.5c-0.2,0.2-0.1,0.6,0.1,0.7s0.6,0.1,0.7-0.1C88,176,88,176,88,175.9z"
			/>
		<path class="st10" d="M130.4,175.9l-13.7-32.8l2.2-0.9l12.5,33.2c0.2,0.2,0.1,0.6-0.1,0.7c-0.2,0.2-0.6,0.1-0.7-0.1
			C130.4,176,130.4,176,130.4,175.9z"/>
		<g class="st11">
			<path d="M99.1,143.3l1.4,0.6l-12.9,32.4c0.2-0.1,0.3-0.2,0.4-0.4l13.7-32.8l-2.2-0.9L99.1,143.3z"/>
			<path d="M108,145.5h1.8l-0.7,35.2c0,0,0,0,0.1,0c0.3,0,0.5-0.3,0.5-0.7l0.7-35.5H108L108,145.5z"/>
			<path d="M131.3,175.5l-12.5-33.2l-2.2,0.9l0.3,0.6l1.4-0.5l12.4,33.1c0.1,0.1,0.3,0.1,0.4,0.1
				C131.4,176.1,131.5,175.8,131.3,175.5z"/>
		</g>
		<path class="st12" d="M126.4,132.4c0,13.6-7.7,16.9-17.2,16.9S92,146,92,132.4c0-13.6,7.7-26.8,17.2-26.8S126.4,118.8,126.4,132.4
			z"/>
		<path class="st13" d="M110.6,146.2c-9.5,0-17.2-3.3-17.2-16.9c0-4.6,0.8-9.1,2.5-13.4c-2.4,4.7-3.9,10.5-3.9,16.5
			c0,13.6,7.7,16.9,17.2,16.9c7.4,0,13.8-2,16.2-9.4C122.4,144.8,116.9,146.2,110.6,146.2z"/>
		<path class="st26" d="M100.9,128.8c0,0-2.2,4.7-2.7,7.9c-0.7,4.6,0.3,6.6,6.2,6.8s7.6-1,10.4-1s6-5.3,2.4-11.6L100.9,128.8z"/>
		<path class="st14" d="M103.5,167.4l-0.1,1.8c0,0-1.7,5.1-1.8,6.4c-0.1,2.2,0.8,4.8,1.8,4.7c1.1,0,2.6-1.4,3.3-4.2
			c0.5-1.9-0.3-5.6,0-6.5c0.3-0.9,0.8-2.6,0.8-2.6L103.5,167.4z"/>
		<path class="st22" d="M106.8,175c-0.8,0.8-2.3,2.4-2.9,2.3c-0.6,0-1.8-2-2.1-2.8c-0.1,0.3-0.2,0.7-0.2,1c-0.1,2.2,0.8,4.8,1.8,4.7
			c1.1,0,2.6-1.4,3.3-4.2C106.7,175.7,106.8,175.3,106.8,175z"/>
		<path class="st27" d="M107.3,168.2c0,0,7-22.1,7.9-24.9c0.9-2.7,1.6-7.9-2.5-8.8c-3.5-0.8-5,4.4-5.6,7.7
			c-0.6,3.2-3.9,24.7-3.9,24.7s-0.4,1.2,1.7,1.6C107,168.8,107.3,168.2,107.3,168.2z"/>
		<g class="st28">
			<path d="M111.5,134.6c-1.5,2.1-2.3,6-2.7,8.1c-0.6,3.2-3.8,25.1-3.8,25.1s0.5,0.3,1.7,0.8c-0.2,0-0.4,0-0.6,0
				c-2.3,0.2-2.8-1.2-2.8-1.2s3.2-21.9,3.8-25.1C107.7,139.4,108.9,135.1,111.5,134.6z"/>
		</g>
		<path class="st14" d="M94.7,166.5l-0.2,1.8c0,0-2.1,5-2.3,6.3c-0.3,2.2,0.5,4.8,1.5,4.9c1.1,0.1,2.7-1.2,3.6-4
			c0.6-1.9,0.1-5.6,0.4-6.5c0.3-0.9,1-2.5,1-2.5L94.7,166.5z"/>
		<path class="st22" d="M97.4,174.3c-0.8,0.7-2.5,2.2-3.1,2.1c-0.6-0.1-1.6-2.1-1.9-2.9c-0.1,0.3-0.2,0.7-0.3,1
			c-0.3,2.2,0.5,4.8,1.5,4.9c1.1,0.1,2.7-1.2,3.6-4C97.3,175.1,97.4,174.7,97.4,174.3z"/>
		<path class="st27" d="M98.5,167.7c0,0,8.6-21.6,9.6-24.2c1.1-2.7,2.1-7.8-1.8-9c-3.4-1-5.3,4.1-6.1,7.2s-5.6,24.4-5.6,24.4
			s-0.5,1.2,1.6,1.7S98.5,167.7,98.5,167.7z"/>
		<g class="st28">
			<path d="M105,134.4c-1.7,2-2.7,5.8-3.3,7.9c-0.9,3.2-5.6,24.8-5.6,24.8s0.5,0.3,1.6,0.9c-0.2,0-0.4,0-0.6,0
				c-2.3,0-2.7-1.4-2.7-1.4s4.7-21.6,5.6-24.8C100.9,139,102.4,134.7,105,134.4z"/>
		</g>
		<path id="_Path__1_" class="st29" d="M104.7,84.1c0,0,0.8-3.3,6.3-2.3c5.3,1,5,8.4,5.6,10.4c0.5,1.6,1.2,3.2,1.9,4.7
			c0.1,0.2,0,0.4-0.2,0.5c0,0,0,0,0,0c-2,0.7-10.3,3.1-16-0.3c-0.5-0.3-0.9-0.7-1.1-1.3c-0.1-0.2-0.2-0.5-0.2-0.8
			c0-0.9,0.5-2,0.2-4.6C100.8,88,101.3,84,104.7,84.1z"/>
		<path id="_Path_2_1_" class="st14" d="M103.1,91.2c-0.5,0.7-0.6,1.5-0.4,2.3c0.1,0.8,0.8,1.4,1.6,1.4l0.2-1.5L104,91L103.1,91.2z"
			/>
		<path id="_Path_3_1_" class="st14" d="M115.5,91.2c0.5,0.7,0.6,1.5,0.5,2.3c-0.1,0.8-0.8,1.4-1.6,1.4l-0.2-1.5l0.4-2.6L115.5,91.2
			z"/>
		<path id="_Path_4" class="st4" d="M116.4,119.5c-0.1,1.3-0.1,2.7,0.1,4c0.2,1.7,0.7,7.9,0.7,7.9c-1.1,0.4-2.3,0.7-3.5,0.9
			c-3,0.6-8.1-1-12.9-2.6c0,0,1.7-4.3,1.8-7.8c0-0.5,0-1,0-1.5c-0.1-1.1-0.3-2.2-0.5-3.3c0-0.3-0.1-0.5-0.1-0.8
			c-0.2-1-0.4-2.2-0.5-3.3c-0.1-1.2-0.2-2.3-0.2-3.5c-0.4-3.1,0.5-6.2,0.5-6.2s3.9-1.6,5.6-1.9c0,0,2.9-0.7,5,0
			c2.7,0.9,4.2,1.4,5.4,2.1c0.1,0.1,0.9,2.4,0.6,4.4c-0.5,3-1.3,7-1.7,9.5C116.5,118.5,116.4,119.2,116.4,119.5z"/>
		<path id="_Path_5" class="st30" d="M117.2,132.1c-1.2-0.1-2.4,0-3.5,0.2c-0.8-2.1-0.6-9.9-0.6-9.9c-2.3-0.4-5.8-1.8-5.8-1.8
			c-0.9,0.4-3.8,1.1-4.7,1.3c0-0.5,0-1,0-1.5c-0.1-1.1-0.3-2.2-0.5-3.3c1.1-0.8,3.1,0.9,3.1,0.9l10.2-1.6c0.5,0.3,0.9,0.6,1.3,1
			c-0.2,1-0.3,1.7-0.3,2c-0.1,1.3-0.1,2.7,0.1,4C116.7,125.2,117.2,132.1,117.2,132.1z"/>
		<path id="_Path_6" class="st14" d="M115.1,89.5c0,1.5-0.3,5-1.2,7.3c-0.5,1.3-1.4,2.4-2.6,3.1c0,0.6,0,1.4,0.4,1.4
			c0.1,0.3,0.3,0.3,0.2,0.8c-0.3,1.5-2,3.1-2.4,3.5c-0.4,0.4-0.7,0-0.7,0c-0.5-0.6-0.9-1.2-1.3-1.9c-0.2-0.4-0.4-0.8-0.5-1
			c-0.2-0.4-0.1-0.8,0.1-1.2c0.5-0.1,0.3-1,0.3-1.6c-0.9-0.6-1.7-1.7-2.3-3c-1.2-2.5-1.3-5.8-1.3-7.5c0-3.2,2.6-5.7,5.7-5.7
			S115.1,86.4,115.1,89.5L115.1,89.5z"/>
		<path id="_Path_7" class="st21" d="M111.1,100c-0.3,0.1-1.7,0.7-2,1.2c-0.3,0.7-0.5,1.7-0.8,2c-0.3,0.2-0.6,0.4-1,0.6
			c-0.2-0.4-0.4-0.8-0.5-1c-0.2-0.4-0.1-0.8,0.1-1.2c0.5-0.1,0.3-1,0.3-1.6c0.6,0.2,1.2,0.3,1.8,0.3
			C109.8,100.3,110.5,100.2,111.1,100z"/>
		<path id="_Path_8" class="st14" d="M113.2,115.1c0.4-0.1,0.8-0.1,1.2-0.2c0.3,0-0.5,2.6-0.5,2.6c-0.2-0.2-0.4-0.3-0.7-0.4
			c-0.4-0.1-0.2-2-0.2-2L113.2,115.1z"/>
		<path id="_Path_9" class="st31" d="M117.8,103.6c0,0,2.6,1.3,2.4,3.3s-3.2,13-3.7,14.4s-13.7-2.9-13.7-2.9s0.4-1.8,0.8-2.2
			c0,0,9,1,10.2,1.4c0,0,1.8-8.7,2.4-10.2C116.7,105.8,117.8,103.6,117.8,103.6z"/>
		<path id="_Path_10" class="st32" d="M113.4,117.3c-1.4,0.8-11.8,5.1-12.7,4.8c-1-0.3-2.1-1.1-2.3-3.7c-0.1-2.3,1.2-11.2,1.5-13.2
			c0-0.3,0.2-0.6,0.4-0.9c0.1-0.1,0.1-0.1,0.2-0.2c0.4-0.3,0.9-0.6,1.3-0.7c0.1,0.3,0.1,1.5,0.3,3.6c0,0.2,0,0.5,0,0.7
			c-0.3,1.2-0.6,2.8-0.6,3.7c0,0.1,0,0.1,0,0.2c0.1,0.9,0.8,2.6,0.8,3.3c0,1.7,0,1.9,0,2c0.4-0.1,1.7-0.3,3.3-0.6
			c3.3-0.6,7.8-1.4,7.8-1.4C113.6,115.7,113.4,117.3,113.4,117.3z"/>
		<path id="_Path_11" class="st29" d="M102.5,91.8c0,0,1.8-0.3,2.8-1.7c0.5-0.8,1-1.6,1.3-2.5c0,0,0.6,1.4,2.8,2.3
			c2.1,1,4.3,1.6,6.6,1.9c0,0,0.1-4.9-1.5-6.9s-5.8-3.2-8.7-1.4C102.9,85.1,102.5,91.8,102.5,91.8z"/>
		<path id="_Path_12" class="st33" d="M107.1,101.6c0,0,0.3,2.7,1.6,4.1c0,0-0.4-0.1-1.2,0.8c-0.1,0.1-0.2,0.1-0.3,0
			c0,0-0.1-0.1-0.1-0.1c-0.3-1.1-1.1-3.7-0.6-4.7C106.6,101.6,106.8,101.5,107.1,101.6z"/>
		<path id="_Path_13" class="st33" d="M111.5,101.4c-0.2,0.8-0.5,1.5-0.8,2.3c-0.4,0.8-0.9,1.5-1.5,2.1c0,0,1,0.2,1.5,0.9
			c0.1,0.1,0.2,0.1,0.2,0c0,0,0,0,0.1-0.1c0.3-0.6,0.5-1.1,0.8-2.3c0.4-1.4,0.4-2.1,0.4-2.7C112.1,101.3,111.8,101.3,111.5,101.4z"
			/>
		<path id="_Path_14" class="st30" d="M101.5,117.6c-1.1-0.9,0.2-2.6,0.1-3.2c-0.1-0.6-0.1-0.7-0.2-1.3c-0.1-0.5-0.1-1,0-1.5
			c0.1,0.9,0.8,2.6,0.8,3.3c0,1.7,0,1.9,0,2c0.4-0.1,3.9-0.7,5.4-1C108,116.1,102.2,118.2,101.5,117.6z"/>
		<path id="_Path_15" class="st14" d="M103.3,116.7l-1.1,0.2c-0.7-0.1-1.4-0.1-2.1-0.1c-0.5,0-1.1,0.2-1.6,0.3c-0.1,0-0.2,0-0.3-0.2
			c0,0,0,0,0,0c-0.1-0.4-0.2-0.8-0.1-1.1c0-0.4,0.1-0.7,0.3-1.1c0.1-0.1,0.1-0.2,0.3-0.2c0.4-0.1,0.9-0.1,1.6-0.1
			c0.6,0,1.3,0.3,1.6,0.8l0.5,0.5c0.1,0.2,0.4,0.3,0.6,0.3l0.6,0.1c0,0-0.1,0.1-0.1,0.2C103.4,116.5,103.4,116.6,103.3,116.7z"/>
		<polygon class="st34" points="81,127.5 81.5,117.5 76.6,117.5 77.1,127.5 		"/>
		<polygon class="st35" points="77.6,127 77.1,118 81,118 80.5,127 		"/>
		<polygon class="st36" points="77.2,120.2 77.6,127 80.5,127 80.8,120.2 		"/>
		<g class="st37">
			<path class="st1" d="M77.9,126h0.8l-0.5-7.1c-0.1-0.9-0.9-0.9-0.8,0.1L77.9,126z"/>
		</g>
		<rect x="65.3" y="128.9" class="st38" width="22.6" height="1.4"/>
		<rect x="65.5" y="127.4" class="st39" width="20.5" height="1.1"/>
		<rect x="64.4" y="128.3" class="st40" width="22.6" height="0.5"/>
		<rect x="65.9" y="127.9" class="st41" width="19.7" height="0.1"/>
		<rect x="65.9" y="128.1" class="st41" width="19.7" height="0.1"/>
		<rect x="65.9" y="127.6" class="st41" width="19.7" height="0.1"/>
		<rect x="167.4" y="127.7" class="st42" width="9.3" height="2.3"/>
		<rect x="173.8" y="127.7" class="st43" width="2.9" height="2.3"/>
		<rect x="166.8" y="127.7" class="st43" width="9.3" height="0.3"/>
		<rect x="166.8" y="129.7" class="st43" width="9.3" height="0.3"/>
		<rect x="174" y="127.7" class="st44" width="12.2" height="2.3"/>
		<rect x="175.4" y="128.2" class="st43" width="6.5" height="1.2"/>
		<rect x="175.7" y="128.3" class="st45" width="5.8" height="1.1"/>
		<ellipse class="st43" cx="184.5" cy="128.8" rx="0.8" ry="0.6"/>
		<rect x="168" y="128.1" class="st43" width="5.3" height="0.2"/>
		<rect x="168" y="129" class="st43" width="5.3" height="0.2"/>
		<rect x="168" y="129.3" class="st43" width="5.3" height="0.2"/>
		<rect x="169.6" y="128.6" class="st43" width="3.3" height="0.2"/>
		<rect x="168" y="128.6" class="st43" width="1.4" height="0.2"/>
		<rect x="165.6" y="125.4" class="st42" width="9.3" height="2.3"/>
		<rect x="172" y="125.4" class="st43" width="2.9" height="2.3"/>
		<rect x="165.1" y="125.4" class="st43" width="9.3" height="0.3"/>
		<rect x="165.1" y="127.5" class="st43" width="9.3" height="0.3"/>
		<rect x="172.3" y="125.4" class="st46" width="12.2" height="2.3"/>
		<rect x="173.6" y="126" class="st43" width="6.5" height="1.2"/>
		<rect x="174" y="126" class="st45" width="5.8" height="1.1"/>
		<ellipse class="st43" cx="182.8" cy="126.6" rx="0.8" ry="0.6"/>
		<rect x="166.2" y="125.8" class="st43" width="5.3" height="0.2"/>
		<rect x="166.2" y="126.7" class="st43" width="5.3" height="0.2"/>
		<rect x="166.2" y="127.1" class="st43" width="5.3" height="0.2"/>
		<rect x="167.9" y="126.4" class="st43" width="3.3" height="0.2"/>
		<rect x="166.2" y="126.4" class="st43" width="1.4" height="0.2"/>
		<rect x="167.4" y="123.2" class="st42" width="9.3" height="2.3"/>
		<rect x="173.8" y="123.2" class="st43" width="2.9" height="2.3"/>
		<rect x="166.8" y="123.2" class="st43" width="9.3" height="0.3"/>
		<rect x="166.8" y="125.2" class="st43" width="9.3" height="0.3"/>
		<rect x="174" y="123.2" class="st47" width="12.2" height="2.3"/>
		<rect x="175.4" y="123.7" class="st43" width="6.5" height="1.2"/>
		<rect x="175.7" y="123.8" class="st45" width="5.8" height="1.1"/>
		<ellipse class="st43" cx="184.5" cy="124.3" rx="0.8" ry="0.6"/>
		<rect x="168" y="123.6" class="st43" width="5.3" height="0.2"/>
		<rect x="168" y="124.5" class="st43" width="5.3" height="0.2"/>
		<rect x="168" y="124.8" class="st43" width="5.3" height="0.2"/>
		<rect x="169.6" y="124.1" class="st43" width="3.3" height="0.2"/>
		<rect x="168" y="124.1" class="st43" width="1.4" height="0.2"/>
		<polygon class="st34" points="187,129.9 187.6,122.3 182.7,122.3 183.2,129.9 		"/>
		<polygon class="st35" points="183.6,129.5 183.2,122.7 187.1,122.7 186.6,129.5 		"/>
		<polygon class="st36" points="183.3,124.9 183.6,129.5 186.6,129.5 186.9,124.9 		"/>
		<g class="st37">
			<path class="st1" d="M183.9,128.5h0.8l-0.5-4.8c-0.1-0.9-0.9-0.9-0.8,0.1L183.9,128.5z"/>
		</g>
		<path class="st48" d="M88.4,122.1c0.2,1.7,1.3,3.2,2.9,3.8c0,0,0,0,0,0c0,0,0,0,0,0C89.8,125.2,88.7,123.9,88.4,122.1
			C88.5,122.1,88.4,122.1,88.4,122.1L88.4,122.1L88.4,122.1z"/>
		<path class="st48" d="M91.2,119.6c0.9,2.1,0.5,4.5-1.1,6.2c0,0,0,0,0,0c0,0,0,0,0,0C91.8,124.1,92.2,121.6,91.2,119.6
			C91.3,119.5,91.2,119.5,91.2,119.6L91.2,119.6L91.2,119.6z"/>
		<path class="st48" d="M95.7,120.5c0.8,1.1,0.4,2.3-0.2,3.4c-0.5,1-1.4,1.4-2.3,1.8c0,0,0,0,0,0c0,0,0,0,0,0
			c1.2-0.4,2.1-1.1,2.6-2.3C96.3,122.5,96.5,121.4,95.7,120.5C95.7,120.5,95.7,120.5,95.7,120.5L95.7,120.5L95.7,120.5z"/>
		<path class="st48" d="M95.2,123.9c0.8,0.1,1.6-0.2,2.1-0.8c0,0,0,0,0,0c0,0,0,0,0,0C96.8,123.6,96,123.9,95.2,123.9
			C95.2,123.9,95.2,123.9,95.2,123.9C95.2,123.9,95.2,123.9,95.2,123.9L95.2,123.9L95.2,123.9z"/>
		<path class="st48" d="M93.1,119.9c-0.1,1.1-0.4,3.1-1.6,3.7c0,0,0,0,0,0c0,0,0,0,0,0C92.7,123.2,93,121,93.1,119.9
			C93.1,119.9,93.1,119.9,93.1,119.9L93.1,119.9L93.1,119.9z"/>
		<path class="st48" d="M86.3,121.5c0.2,1.3,1.3,2.3,2.7,2.3c0,0,0,0,0,0c0,0,0,0,0,0C87.7,123.8,86.6,122.8,86.3,121.5
			C86.4,121.5,86.3,121.5,86.3,121.5L86.3,121.5L86.3,121.5z"/>
		<path class="st4" d="M97.1,124.6h-9.7c0,0-0.8,1.9-0.8,2.4c0,0.5,1.1,1.4,2.2,1.4h6.8c1.2,0,2.2-1,2.2-1.4S97.1,124.6,97.1,124.6z
			"/>
		<polygon class="st32" points="96.1,128.9 88.5,128.9 88.8,128.4 95.8,128.4 		"/>
		<path class="st32" d="M89.6,127c0-0.5,0.8-2.4,0.8-2.4h-2.9c0,0-0.8,1.9-0.8,2.4c0,0.5,1.1,1.4,2.2,1.4h2.9
			C90.7,128.4,89.6,127.5,89.6,127z"/>
		<polygon class="st49" points="88.8,128.4 88.5,128.9 91.4,128.9 91.7,128.4 		"/>
		<path class="st50" d="M91.9,121.1c0.2-0.2,1.1-0.5,1.7-0.1c0.7,0.4,1.1,1.1,1.2,2c-0.5,0.1-1.1,0.2-1.6,0.2
			C91.4,123,91.5,121.4,91.9,121.1z"/>
		<path class="st50" d="M96.3,120.2c0.1-0.1,0.7-0.4,1.1-0.1c0.5,0.3,0.8,0.8,0.9,1.3c-0.4,0.1-0.7,0.2-1.1,0.2
			C96,121.4,96.1,120.4,96.3,120.2z"/>
		<path class="st50" d="M96,119.5c-0.3-0.1-0.6-0.1-0.8,0.1c-0.3,0.2-0.5,0.6-0.4,1c0.3,0,0.5,0,0.8,0
			C96.3,120.4,96.2,119.7,96,119.5z"/>
		<path class="st50" d="M87.3,120.4c-0.2-0.1-0.4-0.1-0.6-0.1c-0.5,0.1-0.7,0.5-0.7,1c0,0,0,0.1,0,0.1c0.1,0.2,0.4,0.4,0.6,0.4
			c0.5,0.1,1.1-0.3,1.6-0.5C88.1,120.9,87.8,120.6,87.3,120.4z"/>
		<path class="st50" d="M88.6,121.7c-0.2,0.1-0.3,0.3-0.4,0.5c0.1,0.3,0.3,0.5,0.6,0.5c0.3,0,1.3-0.3,1.7,0
			C89.8,121.3,89.1,121.4,88.6,121.7z"/>
		<path class="st50" d="M97.2,122.2c-0.2,0.1-0.3,0.2-0.4,0.4c0,0.2,0.1,0.4,0.4,0.5c0.2,0.1,1,0,1.3,0.2
			C98.4,122.3,97.6,122,97.2,122.2z"/>
		<path class="st50" d="M91.8,123.6c0.2-0.1,1.1-0.1,1.5,0.3c0.7,0.9,0.1,1.6,0,1.8c-0.5-0.1-0.9-0.2-1.3-0.4
			C90.5,124.7,91,123.7,91.8,123.6z"/>
		<path class="st50" d="M88.6,123.7c-0.2-0.1-0.9-0.1-1.2,0.4c-0.4,0.6-0.4,1.2-0.2,1.9c0.4-0.1,0.8-0.2,1.2-0.3
			C89.6,125,89,123.9,88.6,123.7z"/>
		<path class="st50" d="M90.9,119.5c0.2,0,0.4,0.2,0.5,0.4c0.1,0.3,0,0.5-0.3,0.7c-0.2,0.1-1.1,0.2-1.4,0.6
			C89.8,119.5,90.4,119.4,90.9,119.5z"/>
		<g class="st8">
			<path class="st51" d="M86.1,121c0.8-0.1,1.5,0.1,2.2,0.4c0,0,0,0,0,0C87.6,121.1,86.8,120.9,86.1,121C86,121,86,121,86.1,121
				L86.1,121L86.1,121z"/>
			<path class="st51" d="M86.3,120.8c0.6-0.2,1.2-0.1,1.7,0.2c0,0,0,0,0,0c0,0,0,0,0,0C87.5,120.7,86.9,120.6,86.3,120.8
				C86.3,120.8,86.3,120.8,86.3,120.8C86.3,120.8,86.3,120.8,86.3,120.8L86.3,120.8L86.3,120.8z"/>
			<path class="st51" d="M86.2,121.1c0.2,0.5,1.1,0.5,1.6,0.3c0,0,0,0,0,0s0,0,0,0C87.3,121.5,86.5,121.6,86.2,121.1
				C86.2,121.1,86.2,121.1,86.2,121.1L86.2,121.1L86.2,121.1z"/>
			<path class="st51" d="M88.5,121.9c0.7-0.3,1.6,0,2,0.7c0,0,0,0,0,0c0,0,0,0,0,0l0,0C90.1,121.9,89.2,121.6,88.5,121.9
				C88.5,121.9,88.5,121.9,88.5,121.9C88.5,121.9,88.5,121.9,88.5,121.9L88.5,121.9L88.5,121.9z"/>
			<path class="st51" d="M88.6,122c0.6,0.1,1.2,0.2,1.8,0.5c0,0,0,0,0,0C89.8,122.2,89.2,122.1,88.6,122C88.6,122,88.6,122,88.6,122
				L88.6,122L88.6,122z"/>
			<path class="st51" d="M88.4,122.2c0.6,0.3,1.2,0.5,1.9,0.4c0,0,0,0,0,0C89.6,122.6,89,122.5,88.4,122.2
				C88.4,122.2,88.4,122.2,88.4,122.2C88.4,122.2,88.4,122.2,88.4,122.2L88.4,122.2L88.4,122.2z"/>
			<path class="st51" d="M89.8,121c0.3-0.5,0.8-1,1.4-1.3c0,0,0,0,0,0s0,0,0,0C90.6,120,90.1,120.4,89.8,121
				C89.8,121,89.8,121,89.8,121C89.8,121,89.8,121,89.8,121L89.8,121L89.8,121z"/>
			<path class="st51" d="M90.4,120.7c0.5-0.2,0.8-0.5,1.1-0.9c0,0,0,0,0,0c0,0,0,0,0,0C91.2,120.2,90.8,120.5,90.4,120.7
				C90.4,120.7,90.4,120.7,90.4,120.7L90.4,120.7L90.4,120.7z"/>
			<path class="st51" d="M89.8,120.6c0.2-0.6,0.7-1,1.3-1c0,0,0,0,0,0c0,0,0,0,0,0C90.5,119.6,89.9,120,89.8,120.6
				C89.8,120.6,89.8,120.6,89.8,120.6C89.8,120.6,89.8,120.6,89.8,120.6L89.8,120.6L89.8,120.6z"/>
			<path class="st51" d="M94.8,120.6c0.2-0.4,0.6-0.7,1-0.9c0,0,0,0,0,0c0,0,0,0,0,0C95.4,119.9,95,120.2,94.8,120.6
				C94.8,120.6,94.8,120.6,94.8,120.6C94.8,120.6,94.8,120.6,94.8,120.6L94.8,120.6z"/>
			<path class="st51" d="M95.3,120.4c0.3-0.1,0.6-0.4,0.8-0.7c0,0,0,0,0,0c0,0,0,0,0,0C95.8,120,95.6,120.3,95.3,120.4
				C95.2,120.4,95.2,120.4,95.3,120.4L95.3,120.4L95.3,120.4z"/>
			<path class="st51" d="M94.8,120.3c0.1-0.4,0.5-0.7,0.9-0.8c0,0,0,0,0,0c0,0,0,0,0,0C95.3,119.6,94.9,119.9,94.8,120.3
				C94.8,120.3,94.8,120.3,94.8,120.3C94.8,120.3,94.8,120.3,94.8,120.3L94.8,120.3L94.8,120.3z"/>
			<path class="st51" d="M87.2,125.9c0.4-0.8,1-1.4,1.6-2c0,0,0,0,0,0c0,0,0,0,0,0C88.2,124.4,87.6,125.1,87.2,125.9
				C87.2,125.9,87.2,125.9,87.2,125.9L87.2,125.9L87.2,125.9z"/>
			<path class="st51" d="M87.2,125.9c-0.2-1,0.5-1.9,1.5-2.1c0,0,0,0,0,0c0,0,0,0,0,0C87.6,123.9,87,124.9,87.2,125.9
				C87.1,125.9,87.2,125.9,87.2,125.9L87.2,125.9L87.2,125.9z"/>
			<path class="st51" d="M87.3,125.9c0.9-0.1,1.6-0.8,1.7-1.7c0,0,0,0,0,0C88.9,125,88.2,125.7,87.3,125.9
				C87.3,125.8,87.3,125.9,87.3,125.9L87.3,125.9L87.3,125.9z"/>
			<path class="st51" d="M91.5,123.8c0.8,0.3,1.3,1,1.5,1.8c0,0,0,0,0,0s0,0,0,0C92.8,124.8,92.2,124.1,91.5,123.8
				C91.5,123.8,91.5,123.8,91.5,123.8L91.5,123.8L91.5,123.8z"/>
			<path class="st51" d="M91.6,123.8c0.8,0.1,1.8,0.4,1.7,1.4c0,0,0,0,0,0c0,0,0,0,0,0C93.4,124.2,92.4,123.9,91.6,123.8
				C91.6,123.8,91.6,123.8,91.6,123.8L91.6,123.8L91.6,123.8z"/>
			<path class="st51" d="M91.5,124c-0.2,0.8,0.6,1.2,1.2,1.4c0,0,0,0,0,0c0,0,0,0,0,0C92.2,125.1,91.4,124.8,91.5,124
				C91.5,124,91.5,123.9,91.5,124L91.5,124L91.5,124z"/>
			<path class="st51" d="M91.9,121.4c0,1.1,1.7,1.5,2.6,1.5c0,0,0,0,0,0c0,0,0,0,0,0C93.6,122.9,91.9,122.5,91.9,121.4
				C91.9,121.4,91.9,121.4,91.9,121.4C91.9,121.4,91.9,121.4,91.9,121.4L91.9,121.4z"/>
			<path class="st51" d="M92.1,121.6c0.8,0.6,1.6,1,2.5,1.4c0,0,0,0,0,0C93.7,122.5,92.9,122.1,92.1,121.6
				C92.1,121.5,92.1,121.5,92.1,121.6L92.1,121.6L92.1,121.6z"/>
			<path class="st51" d="M92.1,121.4c1,0.2,1.9,0.7,2.5,1.5c0,0,0,0,0,0C94,122.1,93.1,121.5,92.1,121.4
				C92.1,121.4,92.1,121.4,92.1,121.4L92.1,121.4L92.1,121.4z"/>
			<path class="st51" d="M92.2,121.1c1.3-0.1,2.3,0.4,2.5,1.8c0,0,0,0,0,0c0,0,0,0,0,0c0-0.5-0.3-1.1-0.7-1.4
				C93.5,121.1,92.9,121,92.2,121.1C92.2,121.1,92.2,121.1,92.2,121.1L92.2,121.1L92.2,121.1z"/>
			<path class="st51" d="M96.2,120.4c0.1,0.8,1.3,1,1.9,0.9c0,0,0,0,0,0c0,0,0,0,0,0C97.5,121.3,96.4,121.2,96.2,120.4
				C96.2,120.4,96.2,120.4,96.2,120.4C96.2,120.4,96.2,120.4,96.2,120.4L96.2,120.4L96.2,120.4z"/>
			<path class="st51" d="M96.4,120.5c0.6,0.3,1.2,0.6,1.9,0.8c0,0,0,0,0,0c0,0,0,0,0,0C97.6,121.1,97,120.8,96.4,120.5
				C96.4,120.5,96.4,120.5,96.4,120.5C96.4,120.5,96.4,120.5,96.4,120.5L96.4,120.5L96.4,120.5z"/>
			<path class="st51" d="M96.4,120.4c0.7,0.1,1.4,0.4,1.9,0.9c0,0,0,0,0,0c0,0,0,0,0,0C97.8,120.7,97.1,120.4,96.4,120.4
				C96.4,120.4,96.4,120.4,96.4,120.4L96.4,120.4L96.4,120.4z"/>
			<path class="st51" d="M96.5,120.2c0.9-0.1,1.7,0.1,1.9,1.1c0,0,0,0,0,0c0,0,0,0,0,0c0-0.4-0.2-0.7-0.6-1
				C97.4,120.1,96.9,120,96.5,120.2C96.5,120.2,96.4,120.2,96.5,120.2C96.5,120.2,96.5,120.2,96.5,120.2L96.5,120.2L96.5,120.2z"/>
			<path class="st51" d="M96.8,122.7c0.1,0.1,0.2,0.3,0.4,0.3c0.2,0,0.3,0,0.5,0.1c0.2,0,0.5,0.1,0.7,0.3c0,0,0,0,0,0c0,0,0,0,0,0
				c-0.2-0.2-0.5-0.3-0.8-0.3C97.3,122.9,97,123,96.8,122.7C96.8,122.7,96.8,122.6,96.8,122.7C96.8,122.7,96.8,122.7,96.8,122.7
				L96.8,122.7L96.8,122.7z"/>
			<path class="st51" d="M96.9,122.5c0.6,0,1.1,0.3,1.4,0.7c0,0,0,0,0,0c0,0,0,0,0,0C98,122.8,97.5,122.5,96.9,122.5
				C96.9,122.5,96.9,122.5,96.9,122.5C96.9,122.5,96.9,122.5,96.9,122.5L96.9,122.5L96.9,122.5z"/>
			<path class="st51" d="M97.1,122.4c0.5-0.2,1,0.1,1.2,0.6c0,0,0,0.1,0,0.1c0,0,0,0,0,0c0,0,0,0,0,0c-0.1-0.5-0.6-0.8-1.1-0.7
				C97.2,122.4,97.1,122.4,97.1,122.4C97.1,122.4,97.1,122.4,97.1,122.4L97.1,122.4L97.1,122.4z"/>
		</g>
		<path class="st51" d="M86.5,122c-0.2-0.2-1-0.5-1.5-0.1c-0.7,0.5-1.1,1.2-1.2,2c0.5,0.1,1,0.1,1.5,0.1
			C87,123.9,86.8,122.4,86.5,122z"/>
		<path class="st51" d="M95.6,120.3c-0.2-0.1-0.8-0.3-1.2,0c-0.5,0.4-0.7,1-0.7,1.6c0.4,0.1,0.8,0.1,1.1,0
			C96.1,121.7,95.9,120.5,95.6,120.3z"/>
		<path class="st51" d="M91.6,118.5c-0.2,0.1-0.3,0.2-0.4,0.4c0,0.2,0.1,0.4,0.4,0.5c0.2,0.1,1,0,1.3,0.2
			C92.9,118.6,92,118.3,91.6,118.5z"/>
		<path class="st51" d="M95.3,123.7c0.2-0.1,0.9-0.4,1.4,0c0.8,0.6,0.5,1.3,0.5,1.5c-0.4,0-0.9,0-1.3,0
			C94.5,124.9,94.7,123.9,95.3,123.7z"/>
		<path class="st50" d="M83.9,123.9c0.3-0.2,0.6-0.4,0.9-0.7c0.4-0.4,0.9-0.7,1.5-1c0,0,0,0,0,0C85.2,122.5,84.7,123.4,83.9,123.9
			C83.8,123.9,83.8,123.9,83.9,123.9C83.9,123.9,83.9,123.9,83.9,123.9L83.9,123.9L83.9,123.9L83.9,123.9z"/>
		<path class="st50" d="M83.9,123.8c0.2-0.4,0.5-0.8,0.8-1.1c0.4-0.5,0.9-0.6,1.6-0.6c0,0,0,0,0,0C84.9,121.8,84.4,122.8,83.9,123.8
			C83.9,123.8,83.9,123.8,83.9,123.8C83.9,123.8,83.9,123.8,83.9,123.8L83.9,123.8L83.9,123.8z"/>
		<path class="st50" d="M84.2,123.9c1,0,2.6-0.2,2.3-1.6c0,0,0,0,0,0c0,0,0,0,0,0c0,0.4-0.1,0.9-0.4,1.1
			C85.6,123.8,84.8,123.9,84.2,123.9C84.2,123.9,84.2,123.9,84.2,123.9L84.2,123.9L84.2,123.9z"/>
		<path class="st50" d="M84,123.9c0.5-0.2,1-0.3,1.5-0.5c0.5-0.2,0.7-0.6,0.9-1c0,0,0,0,0,0c0,0,0,0,0,0c-0.3,0.5-0.6,0.9-1.2,1.1
			C84.8,123.7,84.4,123.7,84,123.9C83.9,123.9,84,123.9,84,123.9L84,123.9L84,123.9z"/>
		<path class="st50" d="M91.6,118.8c0.5,0.1,0.9,0.4,1.2,0.7c0,0,0,0,0,0s0,0,0,0C92.5,119.1,92.1,118.9,91.6,118.8
			C91.6,118.8,91.6,118.8,91.6,118.8C91.6,118.8,91.6,118.8,91.6,118.8L91.6,118.8z"/>
		<path class="st50" d="M91.4,118.9c0.1,0.1,0.2,0.2,0.3,0.2c0.3,0.1,0.6,0.2,0.9,0.3c0,0,0,0,0,0c0,0,0,0,0,0
			c-0.2-0.1-0.4-0.1-0.6-0.2C91.8,119.2,91.5,119.1,91.4,118.9C91.4,118.9,91.4,118.9,91.4,118.9L91.4,118.9L91.4,118.9z"/>
		<path class="st50" d="M91.6,118.7c0.5-0.1,1.1,0.2,1.3,0.7c0,0,0,0,0,0C92.7,118.9,92.1,118.6,91.6,118.7
			C91.6,118.7,91.6,118.7,91.6,118.7L91.6,118.7L91.6,118.7z"/>
		<path class="st50" d="M93.9,121.9c0.6-0.4,1.1-0.8,1.7-1.2c0,0,0,0,0,0c0,0,0,0,0,0C95,121,94.5,121.5,93.9,121.9
			C93.9,121.9,93.9,121.9,93.9,121.9L93.9,121.9L93.9,121.9z"/>
		<path class="st50" d="M94,121.9c0.6-0.1,1.4-0.5,1.6-1.1c0,0,0,0,0,0c0,0,0,0,0,0C95.3,121.4,94.7,121.8,94,121.9
			C94,121.9,94,121.9,94,121.9L94,121.9L94,121.9z"/>
		<path class="st50" d="M93.9,121.8c0.3-0.6,0.9-1.1,1.5-1.3c0,0,0,0,0,0s0,0,0,0C94.7,120.7,94.1,121.2,93.9,121.8
			C93.8,121.8,93.8,121.8,93.9,121.8C93.9,121.8,93.9,121.8,93.9,121.8L93.9,121.8L93.9,121.8z"/>
		<path class="st50" d="M94.2,121.9c0.4,0,0.9-0.1,1.3-0.3c0.3-0.1,0.4-0.5,0.3-0.7c0,0,0,0,0,0C96,121.7,94.7,121.9,94.2,121.9
			C94.2,121.9,94.2,121.9,94.2,121.9C94.2,121.9,94.2,121.9,94.2,121.9L94.2,121.9z"/>
		<path class="st50" d="M93.8,121.7c0.2-0.7,0.7-1.4,1.5-1.3c0,0,0,0,0,0C94.5,120.3,94,121,93.8,121.7
			C93.8,121.7,93.8,121.7,93.8,121.7C93.8,121.7,93.8,121.7,93.8,121.7L93.8,121.7L93.8,121.7z"/>
		<path class="st50" d="M95.5,123.8c0.6,0.4,1.1,0.8,1.5,1.4c0,0,0,0,0,0C96.6,124.6,96.1,124.1,95.5,123.8
			C95.5,123.7,95.5,123.7,95.5,123.8C95.5,123.7,95.5,123.8,95.5,123.8L95.5,123.8z"/>
		<path class="st50" d="M95.6,123.7c0.7,0.1,1.3,0.6,1.5,1.3c0,0,0,0,0,0c0,0,0,0,0,0l0,0C96.9,124.3,96.3,123.8,95.6,123.7
			C95.6,123.7,95.6,123.7,95.6,123.7L95.6,123.7z"/>
		<path class="st50" d="M95.8,123.7c0.4,0,0.7,0.1,1,0.3c0.2,0.2,0.3,0.5,0.3,0.9c0,0,0,0,0,0s0,0,0,0c0-0.3-0.1-0.7-0.3-0.9
			C96.5,123.7,96.1,123.6,95.8,123.7C95.8,123.7,95.8,123.7,95.8,123.7L95.8,123.7L95.8,123.7z"/>
		<path class="st50" d="M95.5,123.8c-0.4,0.6,1.1,1.3,1.5,1.4c0,0,0,0,0,0c0,0,0,0,0,0C96.6,125,95.1,124.4,95.5,123.8
			C95.5,123.8,95.5,123.8,95.5,123.8L95.5,123.8z"/>
		<path class="st50" d="M95.3,123.8c-0.2,0.2-0.3,0.5-0.1,0.7c0,0,0,0.1,0.1,0.1c0.3,0.4,1,0.5,1.5,0.5c0,0,0,0,0,0c0,0,0,0,0,0
			c-0.3,0-0.6-0.1-0.9-0.2C95.5,124.8,94.7,124.2,95.3,123.8C95.3,123.8,95.3,123.8,95.3,123.8C95.3,123.8,95.3,123.8,95.3,123.8
			L95.3,123.8L95.3,123.8z"/>
		<rect x="70.3" y="131.9" class="st52" width="2.7" height="53.1"/>
		<rect x="181.4" y="131.9" class="st52" width="2.7" height="53.1"/>
		<rect x="64.8" y="130.4" class="st52" width="124.8" height="2.3"/>
		<rect x="63.5" y="129.9" class="st9" width="127.4" height="1.1"/>
		<rect x="85.6" y="129.4" class="st40" width="26.9" height="0.5"/>
		<path class="st39" d="M111.4,128.7c0,0-10.6-0.6-12.2,0.5c-2.1-1-12.5-0.5-12.5-0.5v0.7h24.7V128.7z"/>
		<path class="st41" d="M111.4,129.1c-1-0.1-2-0.1-3.1-0.2s-2-0.1-3.1-0.1s-2,0-3.1,0c-0.5,0-1,0.1-1.5,0.1c-0.3,0-0.5,0.1-0.8,0.1
			c-0.2,0-0.5,0.1-0.7,0.3l0,0l0,0c-0.2-0.1-0.5-0.2-0.7-0.2c-0.3-0.1-0.5-0.1-0.8-0.1c-0.5-0.1-1-0.1-1.6-0.1c-1,0-2.1,0-3.1,0
			c-1,0-2.1,0.1-3.1,0.1c-1,0-2.1,0.1-3.1,0.2c2.1-0.2,4.2-0.3,6.2-0.4c1,0,2.1,0,3.1,0c0.5,0,1,0,1.6,0.1c0.3,0,0.5,0.1,0.8,0.1
			c0.3,0,0.5,0.1,0.8,0.2l-0.1,0c0.2-0.1,0.5-0.2,0.7-0.3c0.3-0.1,0.5-0.1,0.8-0.1c0.5-0.1,1-0.1,1.5-0.1c1,0,2.1,0,3.1,0
			C107.3,128.8,109.4,128.9,111.4,129.1z"/>
		<path class="st41" d="M111.4,129.1c-1,0-2,0-3.1-0.1c-1,0-2,0-3.1,0c-1,0-2,0-3.1,0c-0.5,0-1,0-1.5,0.1c-0.3,0-0.5,0-0.8,0.1
			c-0.2,0-0.5,0.1-0.7,0.1l0,0l0,0c-0.3,0-0.5-0.1-0.8-0.1c-0.3,0-0.5,0-0.8,0c-0.5,0-1,0-1.5,0c-1,0-2.1,0-3.1,0l-6.2,0.1l3.1-0.1
			l3.1-0.1c1,0,2.1,0,3.1,0c0.5,0,1,0,1.5,0c0.3,0,0.5,0,0.8,0c0.3,0,0.5,0,0.8,0.1l0,0c0.2-0.1,0.5-0.1,0.8-0.1
			c0.3,0,0.5,0,0.8-0.1c0.5,0,1,0,1.5-0.1c1,0,2,0,3.1,0c1,0,2,0,3.1,0.1C109.4,129,110.4,129.1,111.4,129.1z"/>
		<rect x="124.2" y="129.4" class="st40" width="26.9" height="0.5"/>
		<path class="st39" d="M150,128.7c0,0-10.6-0.6-12.2,0.5c-2.1-1-12.5-0.5-12.5-0.5v0.7H150V128.7L150,128.7z"/>
		<path class="st41" d="M150,129.1c-1-0.1-2-0.1-3.1-0.2s-2-0.1-3.1-0.1c-1,0-2,0-3.1,0c-0.5,0-1,0.1-1.5,0.1
			c-0.3,0-0.5,0.1-0.8,0.1c-0.2,0-0.5,0.1-0.7,0.3l0,0l0,0c-0.2-0.1-0.5-0.2-0.7-0.2c-0.3-0.1-0.5-0.1-0.8-0.1
			c-0.5-0.1-1-0.1-1.6-0.1c-1,0-2.1,0-3.1,0c-1,0-2.1,0.1-3.1,0.1c-1,0-2.1,0.1-3.1,0.2c2.1-0.2,4.2-0.3,6.2-0.4c1,0,2.1,0,3.1,0
			c0.5,0,1,0,1.6,0.1c0.3,0,0.5,0.1,0.8,0.1c0.3,0,0.5,0.1,0.8,0.2l-0.1,0c0.2-0.1,0.5-0.2,0.7-0.3c0.3-0.1,0.5-0.1,0.8-0.1
			c0.5-0.1,1-0.1,1.5-0.1c1,0,2.1,0,3.1,0C145.9,128.8,148,128.9,150,129.1z"/>
		<path class="st41" d="M150,129.1c-1,0-2,0-3.1-0.1c-1,0-2,0-3.1,0c-1,0-2,0-3.1,0c-0.5,0-1,0-1.5,0.1c-0.3,0-0.5,0-0.8,0.1
			c-0.2,0-0.5,0.1-0.7,0.1l0,0l0,0c-0.3,0-0.5-0.1-0.8-0.1c-0.3,0-0.5,0-0.8,0c-0.5,0-1,0-1.5,0c-1,0-2.1,0-3.1,0l-6.2,0.1l3.1-0.1
			l3.1-0.1c1,0,2.1,0,3.1,0c0.5,0,1,0,1.5,0c0.3,0,0.5,0,0.8,0c0.3,0,0.5,0,0.8,0.1l0,0c0.2-0.1,0.5-0.1,0.8-0.1
			c0.3,0,0.5,0,0.8-0.1c0.5,0,1,0,1.5-0.1c1,0,2,0,3.1,0c1,0,2,0,3.1,0.1C148,129,149,129.1,150,129.1z"/>
		<polygon class="st14" points="164.1,175.4 164.6,178.1 166.6,178.1 167.5,177.9 166.9,173.8 		"/>
		<path id="_Path_16" class="st53" d="M167.2,174.6c-0.2,0.1-0.4,0.2-0.6,0.2c-0.9,0.3-1.8,0.5-2.7,0.6c-2.5-4-8.8-23.6-8.8-23.6
			c-0.6-2.5,3.1,0.7,4.7,0.6c0.5,0,1,0,1.4,0.2c1.5,0.6,3.6,4.8,3.6,4.8s0.7,1.4,1.4,4.4S167.2,174.6,167.2,174.6z"/>
		<path id="_Path_17" class="st54" d="M167.2,174.6c-0.2,0.1-0.4,0.2-0.6,0.2c-0.2-1.2-0.4-3.1-0.7-6.1c-0.8-6.8-5.1-14.6-6.1-16.3
			c0.5,0,1,0,1.4,0.2c1.5,0.6,3.6,4.8,3.6,4.8s0.7,1.4,1.4,4.4S167.2,174.6,167.2,174.6z"/>
		<path id="_Path_18" class="st53" d="M164.5,177.7c0.5,0,1.1-0.1,1.6-0.2c0.5-0.2,0.9-0.5,1.3-0.8c0,0,2.2,1.3,2.2,3.7
			c0,0.1-0.1,0.2-0.2,0.3c0,0-5.2,2.3-7,3c-0.9,0.3-1.9,0.6-2.9,0.7c-0.1,0-0.3,0-0.3-0.1c-0.1-0.2-0.1-0.7,0.4-1.1
			c0.8-0.6,1.7-1.1,2.3-1.6c0.6-0.5,1.2-1.9,1.7-2.3C164,178.7,164.3,178.2,164.5,177.7z"/>
		<g>
			<defs>
				<path id="SVGID_2_" d="M161,149.7l7.9,1.9l9.4,0l9.7-2.4l17.4,32.3l-2.4,9.8c0,0-54.8,3.9-56.3,2.7c-1.5-1.2-8.3-7.9-9.3-10.5
					C136.5,180.9,161,149.7,161,149.7z"/>
			</defs>
			<clipPath id="SVGID_3_">
				<use xlink:href="#SVGID_2_"  style="overflow:visible;"/>
			</clipPath>
			<g class="st55">
				<path class="st10" d="M175.3,189.6l0.8-40.7h-2.7l0.8,40.7c0,0.4,0.3,0.7,0.6,0.7C175,190.3,175.3,190,175.3,189.6z"/>
				<path class="st10" d="M150.4,184.8l15.7-37.6l-2.5-1l-14.3,38.2c-0.1,0.4,0,0.8,0.3,0.9C149.8,185.4,150.2,185.2,150.4,184.8z"
					/>
				<path class="st10" d="M199,184.8l-15.7-37.6l2.5-1l14.3,38.2c0.1,0.4,0,0.8-0.3,0.9C199.5,185.4,199.1,185.2,199,184.8z"/>
				<g class="st11">
					<path d="M163.1,147.4l1.6,0.6l-14.8,37.2c0.2-0.1,0.3-0.3,0.4-0.4l15.7-37.6l-2.5-1L163.1,147.4z"/>
					<path d="M173.3,149.9h2l-0.8,40.4c0,0,0,0,0.1,0c0.3,0,0.6-0.3,0.6-0.7l0.8-40.7h-2.7L173.3,149.9z"/>
					<path d="M200.1,184.4l-14.3-38.2l-2.5,1l0.3,0.7l1.6-0.6l14.2,37.9c0.1,0.1,0.3,0.1,0.5,0.1
						C200.1,185.2,200.2,184.7,200.1,184.4z"/>
				</g>
			</g>
		</g>
		<path id="_Path_19" class="st1" d="M155.6,128.1h-24.9l-4.9-15.5c-0.2-0.6,0.1-1.3,0.8-1.5c0.1,0,0.2-0.1,0.4-0.1h22.4
			c0.5,0,1,0.3,1.2,0.8L155.6,128.1z"/>
		<path id="_Path_20" class="st56" d="M155.2,128.1h-23.8l-4.9-15.2c-0.2-0.6,0.1-1.3,0.8-1.5c0.1,0,0.2-0.1,0.4-0.1h21.3
			c0.5,0,1,0.3,1.1,0.8L155.2,128.1z"/>
		<path id="_Path_21" class="st57" d="M140.2,114.3h-10.9c-0.2,0-0.3-0.1-0.3-0.3v0l0,0c0-0.2,0.1-0.3,0.3-0.3h10.9
			c0.2,0,0.3,0.1,0.3,0.3v0l0,0C140.5,114.1,140.4,114.3,140.2,114.3z"/>
		<path id="_Path_22" class="st57" d="M141.9,115.6h-12.1c-0.2,0-0.3-0.1-0.3-0.3v0l0,0c0-0.2,0.1-0.3,0.3-0.3l0,0h12.1
			c0.2,0,0.3,0.1,0.3,0.3v0l0,0C142.2,115.5,142.1,115.6,141.9,115.6L141.9,115.6z"/>
		<path id="_Path_23" class="st57" d="M140.8,117h-10.6c-0.2,0-0.3-0.1-0.3-0.3v0l0,0c0-0.2,0.1-0.3,0.3-0.3l0,0h10.6
			c0.2,0,0.3,0.1,0.3,0.3v0l0,0C141.1,116.8,140.9,117,140.8,117z"/>
		<path id="_Path_24" class="st57" d="M139,118.3h-8.4c-0.2,0-0.3-0.1-0.3-0.3v0l0,0c0-0.2,0.1-0.3,0.3-0.3h0h8.4
			c0.2,0,0.3,0.1,0.3,0.3v0l0,0C139.3,118.2,139.2,118.3,139,118.3L139,118.3z"/>
		<path id="_Path_25" class="st57" d="M143.2,119.7h-12.1c-0.2,0-0.3-0.1-0.3-0.3v0l0,0c0-0.2,0.1-0.3,0.3-0.3l0,0h12.1
			c0.2,0,0.3,0.1,0.3,0.3v0l0,0C143.5,119.5,143.4,119.7,143.2,119.7C143.2,119.7,143.2,119.7,143.2,119.7z"/>
		<path id="_Path_26" class="st57" d="M142.1,121h-10.6c-0.2,0-0.3-0.1-0.3-0.3v0l0,0c0-0.2,0.1-0.3,0.3-0.3h0h10.6
			c0.2,0,0.3,0.1,0.3,0.3v0l0,0C142.4,120.9,142.2,121,142.1,121L142.1,121z"/>
		<path id="_Path_27" class="st57" d="M144.5,123.7h-12.1c-0.2,0-0.3-0.1-0.3-0.3v0l0,0c0-0.2,0.1-0.3,0.3-0.3h0h12.1
			c0.2,0,0.3,0.1,0.3,0.3v0l0,0C144.8,123.6,144.7,123.7,144.5,123.7z"/>
		<path id="_Path_28" class="st57" d="M144.9,125.1h-12.1c-0.2,0-0.3-0.1-0.3-0.3v0l0,0c0-0.2,0.1-0.3,0.3-0.3l0,0h12.1
			c0.2,0,0.3,0.1,0.3,0.3c0,0,0,0,0,0l0,0C145.2,125,145.1,125.1,144.9,125.1L144.9,125.1z"/>
		<path id="_Path_29" class="st57" d="M151.4,125.1h-3.9c-0.4,0-0.7-0.2-0.8-0.6l-3.3-10.3c-0.1-0.4,0.1-0.9,0.5-1
			c0.1,0,0.2,0,0.3,0h3.9c0.4,0,0.7,0.2,0.8,0.6l3.3,10.3c0.1,0.4-0.1,0.9-0.5,1C151.6,125.1,151.5,125.1,151.4,125.1z"/>
		<path id="_Path_30" class="st1" d="M157.7,129.3h-27.1c-0.4,0-0.8-0.4-0.8-0.8l0,0c0-0.4,0.4-0.8,0.8-0.8h27.1
			c0.4,0,0.8,0.4,0.8,0.8l0,0C158.5,128.9,158.1,129.3,157.7,129.3z"/>
		<g id="_Group_">
			<path id="_Compound_Path_" class="st53" d="M165.5,107.9c-0.2,0-0.5-0.1-0.6-0.3l-0.9-1.6c-0.2-0.3-0.1-0.7,0.3-0.9c0,0,0,0,0,0
				l2.5-1.3c0.3-0.2,0.7,0,0.9,0.3l0.9,1.6c0.2,0.3,0.1,0.7-0.3,0.9c0,0,0,0,0,0l-2.5,1.3C165.7,107.8,165.6,107.9,165.5,107.9z
				 M167.1,103.9c-0.1,0-0.1,0-0.2,0l-2.5,1.3c-0.2,0.1-0.2,0.3-0.2,0.5c0,0,0,0,0,0l0,0l0.9,1.6c0.1,0.2,0.3,0.2,0.5,0.1l2.5-1.3
				c0.2-0.1,0.2-0.3,0.1-0.5l-0.9-1.6C167.3,104,167.2,103.9,167.1,103.9z"/>
		</g>
		<path id="_Path_31" class="st14" d="M155.2,124.2c-0.1,0.1-0.2,0.3-0.3,0.4c0,0-1.3-1-1.7-1.1c-0.4-0.1-1.1,0.2-1.6,0.2
			c-0.4,0-0.5-0.2-0.5-0.2s-1.7,0.7-2,0.8c-0.3,0.1-0.5,0-0.3-0.5c0.1-0.2,0.2-0.3,0.3-0.4l0,0c0.6-0.7,1.8-1.7,2.2-1.9
			c0.5-0.3,1.3-0.6,1.9-0.4c0.6,0.2,2.5,1.7,2.5,1.7C155.9,123.3,155.5,123.9,155.2,124.2z"/>
		<path id="_Path_32" class="st58" d="M155.6,122.8l-0.4,1.4c-0.1,0.1-0.2,0.3-0.3,0.4c0,0-1.3-1-1.7-1.1c-0.4-0.1-1.1,0.2-1.6,0.2
			c-0.4,0-0.5-0.2-0.5-0.2s-1.7,0.7-2,0.8c-0.3,0.1-0.5,0-0.3-0.5c0.1-0.2,0.2-0.3,0.3-0.4c-0.1,0.2-0.3,0.4-0.2,0.7
			c0.1,0.3,1.9-0.6,3.2-1.4c0,0,0.1-0.1,0.2,0c0,0.1,0,0.1-0.1,0.1c-0.2,0.2-1.3,0.3-1.1,0.7c0.3,0.5,1.4-0.4,2.1-0.2
			c0.5,0.2,1,0.5,1.4,0.8C154.7,124.1,155,123,155.6,122.8z"/>
		<path id="_Path_33" class="st59" d="M154.7,124.6c0,0,6.4,5.6,11.3,6.2c4.8,0.6,13-8.6,13-8.6s-0.5-4.9-3.5-4.3
			c-3,0.6-7,7.8-8.8,8.2c-1.7,0.3-10.8-3.5-10.8-3.5c-0.2,0.2-0.4,0.4-0.6,0.7C155,123.7,154.8,124.1,154.7,124.6z"/>
		<path id="_Path_34" class="st14" d="M176.6,96.8c-1.8-2-4.4-2.2-6.4-2c-2.7,0.3-4.9,2.1-5.7,4.6c-0.4,1.2-0.3,2.6,0.1,3.8
			c1.6,4.5,3.4,7.4,5,8.3c0.6,0.3,1.8,0.1,3-0.3c0.2-0.1,0.3,0,0.4,0.2l0.5,1l4.6-1c-0.4-0.9-0.7-1.7-0.9-2.6
			C178,107.9,179.8,100.5,176.6,96.8z"/>
		<path id="_Path_35" class="st29" d="M167.2,103.3c0.6-0.1,1.1,0.3,1.3,0.8c0.4,0.9,1,2.2,1.4,2.6c0.2,0.1,0.4,0.1,0.5,0
			c0.2-0.1,0.2-0.2,0.2-0.4c-0.1-0.6-0.3-1.2-0.5-1.8c-0.3-0.6,0-1.3,0.6-1.6c0.1,0,0.2-0.1,0.3-0.1c0.3,0,0.5,0,0.8,0
			c1.4,0.4,0.4,2.6,0.4,3.7c0,0.8,0.9,2.6,1.3,2.8c1.4,0.5,3.5,0.1,4.6-1.3s1.3-5.9,0.7-8.7c-0.6-2.7-2.8-4.3-3.5-4.5
			c-0.3-0.1-0.6-0.1-0.9-0.1c-0.2,0-0.4-0.1-0.6-0.2c-0.7-0.6-2.9-2.1-6.4-0.6c-3.1,1.3-5,4.3-4.9,7.6c0.1,1.2,1,1.1,1.6,0.9
			c0.4-0.1,0.7,0,1,0.2C165.8,103.2,166.5,103.4,167.2,103.3z"/>
		<path id="_Path_36" class="st60" d="M173.5,113.1c0,0-0.4-0.4-0.2-0.7c0.2-0.3,2.2-1.9,4.6-1.9c0.4,0,0.8,0,1.3,1
			c0.2,0.5,0.4,1,0.5,1.6L173.5,113.1L173.5,113.1z"/>
		<path id="_Path_37" class="st60" d="M182.5,152.1c-0.1,0-0.3,0.1-0.5,0.1c-2,0.4-5.3,0.4-5.3,0.4c-6.5-0.1-9.7-6.1-10.8-7.9
			c-0.2-0.3-0.4-0.7-0.5-1.1c0.4-0.2,4.8-2.6,4.5-10.7c0-1.7,0-5.4-0.9-6.9c-0.5-0.8-1.8-2.4-2.7-4.1c-0.7-1.4-1.1-2.9-0.3-4
			c1.9-2.8,4.9-4.3,4.9-4.3s5.5-2.2,10.2-1.7c3,0.3,5.6,1.7,6.3,5.5C189.4,127,182.5,152.1,182.5,152.1z"/>
		<path id="_Path_38" class="st61" d="M171.8,130.8c0.8,8-4.6,13-5.8,13.8c-0.2-0.3-0.4-0.7-0.5-1.1c0.4-0.2,4.5-3.8,4.5-10.7
			c0-1.7,0-5.4-0.9-6.9c-0.5-0.8-1.8-2.4-2.7-4.1l0.4-0.1l2.2-0.4l1.1,0.9C170.1,122.3,171.2,125.7,171.8,130.8z"/>
		<path id="_Path_39" class="st62" d="M182.5,152.1c-0.1,0-0.3,0.1-0.5,0.1c0.4-2.2,3-15.8,3.9-20.8c1.7-9.8-0.1-14.7-1.1-16.5
			c-0.8-1.4-2.3-2.2-3.6-3c3,0.3,5.6,1.7,6.3,5.5C189.4,127,182.5,152.1,182.5,152.1z"/>
		<path id="_Path_40" class="st14" d="M150.8,181.2c-0.5,0.2-1,0.3-1.5,0.3c-0.9,0-1.2-0.4-1.2-0.4V179l3.1-0.4L150.8,181.2z"/>
		<path id="_Path_41" class="st63" d="M175.3,150.9c0,1.4-0.4,3.7-2.5,4.3c-3.1,0.9-5.5,0.4-9.1-0.2c-3.1-0.5-11.1-2.3-12.6-2.8
			c-0.1-0.1-0.3,0-0.3,0.1c0,0,0,0.1,0,0.1c0.7,3.4,1.3,4.9,1.7,10c0.4,4.3-1.3,16.5-1.3,16.5c-0.3,0.1-0.7,0.2-1,0.2
			c-0.2,0-0.4,0.1-0.6,0.1c-0.6,0-1.2-0.1-1.7-0.1c0,0-3.3-17.9-3.7-25.2c-0.4-7.3,0.3-7.9,3.6-9.4s18.1-1,18.1-1l0,0
			c0,0.1,0.9,2.4,3.3,4.4C170.9,149.5,173,150.5,175.3,150.9z"/>
		<path class="st64" d="M166.4,144.8c-0.2-0.4-0.4-0.8-0.6-1.3l0,0c0,0-0.2,0-0.5,0C165.6,144,166,144.4,166.4,144.8z"/>
		<path class="st64" d="M173.3,150.4c-0.3,1.1-0.9,2.1-2.3,2.5c-3.1,0.9-5.5,0.4-9.1-0.2c-3.1-0.5-11.1-2.3-12.6-2.8
			c-0.1-0.1-0.3,0-0.3,0.1c0,0,0,0.1,0,0.1c0.7,3.4,1.3,4.9,1.7,10c0.3,3.3,0.2,14.3,0.1,18.9c0.2-0.1,0.4-0.1,0.4-0.1
			s1.7-12.2,1.3-16.5c-0.5-5.1-1-6.6-1.7-10c0-0.1,0.1-0.3,0.2-0.3c0,0,0.1,0,0.1,0c1.5,0.6,9.5,2.3,12.6,2.8c3.6,0.6,6,1.2,9.1,0.2
			c2.1-0.6,2.5-2.9,2.5-4.3C174.7,150.8,174,150.6,173.3,150.4z"/>
		<path id="_Path_42" class="st53" d="M148,180.9c0.5,0.2,1,0.3,1.6,0.3c0.5,0,1-0.1,1.5-0.3c0,0,1.6,2,0.7,4.2
			c0,0.1-0.2,0.2-0.3,0.2h-10.6c-0.1,0-0.2-0.1-0.2-0.2c0-0.3,0.1-0.7,0.7-0.9c1-0.3,2-0.5,2.7-0.7c0.8-0.3,1.8-1.4,2.4-1.6
			C147.1,181.7,147.6,181.3,148,180.9z"/>
		<path id="_Path_43" class="st14" d="M143.2,127.9c0,0-0.9-0.2-1.4-0.3c-0.2,0-0.3-0.1-0.5-0.1c-0.2,0-0.4,0-0.6,0l-5.1,0.7
			c-0.1,0-0.3-0.1-0.3-0.2c0-0.2,0-0.4,0.2-0.5l0.5-0.4l1.5-1.3c0.7-0.6,1.3-0.7,2.3-0.8c0.4,0,0.7,0.1,1,0.2c1,0.2,1.2,0.3,1.9,0.4
			c0.2,0,0.4,0.1,0.6,0.1c0.1,0,0.1,0,0.2,0C143.6,126.4,143.5,127.2,143.2,127.9z"/>
		<path id="_Path_44" class="st15" d="M150.9,128.4C150.9,128.4,150.9,128.4,150.9,128.4c-0.2,0-0.9-0.4-1.4-0.5
			c-0.2-0.1-0.3-0.1-0.4-0.1c-0.2-0.1-0.5-0.1-0.7-0.1h-5.1c-0.2,0-0.3-0.1-0.3-0.3c0-0.2,0.1-0.4,0.3-0.5l0.5-0.4
			c-0.5,0.4-0.6,0.7-0.3,0.7c0.2,0,0.7,0,1.9-0.4c0,0,0,0,0,0.1c-0.1,0.1-0.2,0.2-0.1,0.4c0.1,0.1,0.2,0.2,0.3,0.2
			c0.2,0,1.1-0.1,1.3-0.1c0.8,0,2-0.1,2.2-0.1c0.4,0.1,0.8,0.2,1.1,0.4c0.2,0.1,0.4-0.1,0.5-0.4c0.1-0.4,0.3-0.8,0.4-1.1
			c0.1,0,0.1,0,0.2,0C151.5,127,151.3,127.8,150.9,128.4z"/>
		<path id="_Path_45" class="st60" d="M170.8,116.2c-0.7-0.4-2.7-1.5-5.3,2.5c-2.6,4.1-4.7,7.1-5.6,7.7c-0.9,0.5-3.2,0.2-4,0.2
			s-12.6-0.9-12.6-0.9c-0.3,0.7-0.6,1.5-0.7,2.3c0,0,10.8,2.8,17.6,2.9c6.7,0,11.8-10.1,12.1-11.4
			C172.5,118.2,172.4,117.2,170.8,116.2z"/>
		<g id="_Group_2">
			<path id="_Path_46" class="st53" d="M164.3,106.8c-0.1,0-0.2-0.1-0.2-0.2c0-0.1,0-0.1,0.1-0.1l5.8-3c0.7-0.3,2-1,3,0.4
				c0,0.1,0,0.2,0,0.2c-0.1,0-0.2,0-0.2,0c-0.8-1.1-1.7-0.8-2.6-0.3L164.3,106.8C164.4,106.8,164.4,106.8,164.3,106.8z"/>
		</g>
		<path id="_Path_47" class="st14" d="M170.2,103.9l0.7,2.2c0.3,0.3,0.7,0.3,1,0c0,0,0,0,0.1-0.1c0.5-0.6,1-2.7,0-3.1
			S170.4,103.1,170.2,103.9z"/>
		<path class="st12" d="M196.7,136.4c0-11.3-0.3-19.3-7.5-20.5c-9.8-1.6-17.4,6.8-15.9,23.1c0.9,9.3-2.9,12.5-6.2,14.3
			c-2.1,1.2-6.2,0.9-6.2,0.9s-1.9-0.2-3.1-0.3c0.8,0.4,17.5,8.6,29.5,2.5C198,150.9,196.7,143.1,196.7,136.4z"/>
		<path class="st13" d="M196.7,136.4c0-11.3-0.3-19.3-7.5-20.5c-0.3-0.1-0.7-0.1-1-0.1c-7.8,0.8-13,9-11.6,23.2
			c0.9,9.3-2.9,12.5-6.2,14.3c-2.1,1.2-6.2,0.9-6.2,0.9s-0.1,0-0.3-0.1c-1,0.1-2,0.1-3,0.1c0,0-1.9-0.2-3.1-0.3
			c0.8,0.4,17.5,8.6,29.5,2.5C198,150.9,196.7,143.1,196.7,136.4z"/>
	</g>
</g>
</svg>
