<?xml version="1.0" encoding="utf-8"?>
<!-- Generator: Adobe Illustrator 25.2.0, SVG Export Plug-In . SVG Version: 6.00 Build 0)  -->
<svg version="1.1" id="Layer_1" xmlns="http://www.w3.org/2000/svg" xmlns:xlink="http://www.w3.org/1999/xlink" x="0px" y="0px"
	 viewBox="0 0 1077.6 915.4" style="enable-background:new 0 0 1077.6 915.4;" xml:space="preserve">
<style type="text/css">
	.st0{fill:url(#SVGID_1_);}
	.st1{fill:#FFFFFF;}
	.st2{opacity:0.75;fill:#E0E0E0;enable-background:new    ;}
	.st3{fill:#B3F8FF;}
	.st4{fill:#9B9B9B;}
	.st5{fill:#3CD5DD;}
	.st6{fill:#BFBFBF;}
	.st7{opacity:0.5;fill:url(#SVGID_2_);enable-background:new    ;}
	.st8{opacity:0.5;fill:url(#SVGID_3_);enable-background:new    ;}
	.st9{fill:#082947;}
	.st10{fill:#EE9255;}
	.st11{fill:#E95C33;}
	.st12{fill:url(#SVGID_4_);}
	.st13{fill:#0F1B29;}
	.st14{fill:url(#SVGID_5_);}
	.st15{fill:#101B29;}
	.st16{fill:#14B6C8;}
	.st17{fill:#F4AA74;}
	.st18{fill:#F2441C;}
	.st19{opacity:0.75;fill:#FFFFFF;enable-background:new    ;}
	.st20{opacity:0.5;fill:#FFFFFF;enable-background:new    ;}
	.st21{fill:#1CCBF3;}
	.st22{fill:#DDDDDD;}
	.st23{fill:#0084C6;}
	.st24{fill:#71DEFF;}
	.st25{fill:#39C9EA;}
	.st26{fill:#B0F0FF;}
	.st27{fill:#E5E5E5;}
	.st28{fill:#0095C9;}
	.st29{fill:#73EBFF;}
	.st30{fill:#43CDED;}
	.st31{fill:#64DDF9;}
	.st32{fill:#007CB2;}
	.st33{fill:#C1C1C1;}
	.st34{fill:#C2FFFD;}
	.st35{opacity:0.75;}
	.st36{fill:#124368;}
	.st37{fill:#1FD7EA;}
	.st38{fill:#111B29;}
	.st39{fill:#F2A874;}
	.st40{fill:#17B2C4;}
	.st41{fill:#E85C32;}
	.st42{fill:url(#SVGID_6_);}
	.st43{fill:url(#SVGID_7_);}
	.st44{fill:url(#SVGID_8_);}
	.st45{fill:url(#SVGID_9_);}
	.st46{fill:url(#SVGID_10_);}
	.st47{fill:url(#SVGID_11_);}
	.st48{fill:url(#SVGID_12_);}
	.st49{fill:#AAAAAA;}
	.st50{opacity:0.7;fill:#FFFFFF;enable-background:new    ;}
	.st51{opacity:0.3;fill:#FFFFFF;enable-background:new    ;}
	.st52{fill:#00479F;}
	.st53{fill:url(#SVGID_13_);}
	.st54{fill:url(#SVGID_14_);}
	.st55{fill:#E8512E;}
	.st56{fill:url(#SVGID_15_);}
	.st57{fill:url(#SVGID_16_);}
	.st58{fill:url(#SVGID_17_);}
	.st59{fill:#5FE8FF;}
	.st60{fill:#30D4EF;}
	.st61{opacity:0.2;fill:#FFFFFF;enable-background:new    ;}
</style>
<linearGradient id="SVGID_1_" gradientUnits="userSpaceOnUse" x1="18.7878" y1="569.0827" x2="1077.6125" y2="569.0827" gradientTransform="matrix(1 0 0 -1 0 988.3654)">
	<stop  offset="0" style="stop-color:#00BFC2"/>
	<stop  offset="0.246" style="stop-color:#00BBC5"/>
	<stop  offset="0.49" style="stop-color:#00AFCF"/>
	<stop  offset="0.732" style="stop-color:#009BDF"/>
	<stop  offset="0.972" style="stop-color:#0080F5"/>
	<stop  offset="1" style="stop-color:#007CF8"/>
</linearGradient>
<path class="st0" d="M751.2,312.5c-187.5-111.2-276-453-565.5-248.7S16.3,687.5,293.7,789s634.3,44.1,734.7-144.3
	C1200.1,322.6,877,387.1,751.2,312.5z"/>
<path class="st1" d="M476.9,107.6l-3.1-8.7l-3.1,8.7c-3,7.8-9.2,14.1-16.9,17.3l0,0c7.8,3.2,13.9,9.4,16.9,17.3l3.1,8.7l3.1-8.7
	c3-7.8,9.2-14.1,17-17.2l0,0C486,121.7,479.9,115.5,476.9,107.6z"/>
<path class="st1" d="M201.3,607l-3.1-8.7l-3,8.7c-3,7.8-9.2,14.1-16.9,17.3l0,0c7.8,3.2,13.9,9.4,16.9,17.3l3.1,8.7l3.1-8.7
	c3-7.8,9.2-14.1,16.9-17.3l0,0C210.4,621.1,204.3,614.9,201.3,607z"/>
<path class="st1" d="M947.8,431.2l-2-5.8l-2,5.8c-2,5.2-6,9.3-11.2,11.4l0,0c5.1,2.1,9.2,6.2,11.2,11.4l2,5.8l2-5.8
	c2-5.2,6-9.3,11.2-11.4l0,0C953.8,440.5,949.8,436.4,947.8,431.2z"/>
<path class="st1" d="M68.1,264.5l-2-5.8l-2,5.8c-2,5.2-6,9.3-11.2,11.4l0,0c5.1,2.1,9.2,6.2,11.2,11.4l2,5.8l2-5.8
	c2-5.2,6-9.3,11.2-11.4l0,0C74.1,273.8,70.1,269.7,68.1,264.5z"/>
<g>
	<g id="Layer_1_1_">
		<path class="st2" d="M1024,896.1c0,3.2-2.6,5.8-5.8,5.8H5.8c-3.2,0-5.8-2.6-5.8-5.8l0,0c0-3.2,2.6-5.8,5.8-5.8h1012.5
			C1021.4,890.3,1024,892.9,1024,896.1z"/>
		<path class="st3" d="M434.1,531.8c15.2-8.6,11-27.8,11-27.8c19.6-0.4,33.2-9.6,33.5-33.2s-15.3-29.2-15.3-29.2
			c0,5.7-0.8,11.5-2.3,17c-2.5,9.8-10.9,26.5-18.1,20.8s6.7-22.9,10.2-34.7s-2.2-18.9-18.4-26s-28.4-5.4-28.4-5.4
			c5,6.4,8.6,13.8,10.5,21.7c3.1,12.9-3.4,12.4-8.6,7c-5.3-5.4-5.8-11-7.7-22.6c-1.9-11.5-9.1-8.8-20.3-7
			c-11.2,1.8-22.6-2.2-22.6-2.2s4.7,3.4,4.9,13.7c0.2,10.3-8.6,16.5-8.4,20.7c0.1,4.3,14,5.4,20.9,9.8c6.9,4.4,1.4,8.1-7.5,5.1
			c-6.1-2.1-12-4.8-17.5-8.1c0,0-2.2,5.4,5,16.3c7.2,10.9,12.3,4.2,28.2,6.1s5.4,8.9-7.7,8.9s-23.5-12.9-23.5-12.9
			s-0.7,7.8,3.9,19.4s17.9,11.4,37.5,5.7s17.4,7.2,5.7,11.1s-36.8-3.8-36.8-3.8c4.7,10.3,12.5,18.9,22.2,24.7
			C400.6,536.3,419,540.4,434.1,531.8z M384.5,429.8c-2.6-5.3-2.8-9.4,1.3-10.9h-0.2c2.1-0.7,7.3-1.9,7.7,7.9
			C393.7,436.4,387.2,435.1,384.5,429.8L384.5,429.8z M428.3,440.3c0-6.2,4.1-7.6,4.1-7.6c2.2,0.8,7,3,5.3,10.1
			S428.3,446.6,428.3,440.3L428.3,440.3z M369.7,442.3c-5.5-1.4-6-4.9-2.6-6.6c2.4-1.2,3.7-3.7,8,0.6
			C379.4,440.5,375.1,443.6,369.7,442.3z M423.9,464.6c-7.5-1.1-5.7-14.1,1-13.3C431.8,452.1,431.4,465.7,423.9,464.6L423.9,464.6z
			 M387.5,460.1c1.1-1.7,6.1-0.9,6.1-0.9c7.2,1.1,6.1,4.4,1.6,6.2S386.4,461.8,387.5,460.1L387.5,460.1z M459.8,486.3
			c-3.4-3.6,5.2-13,9.9-9.1C473.9,480.7,463.1,489.9,459.8,486.3L459.8,486.3z M428.9,479.1c4.6-3.2,13,2.6,8.5,7.8
			S425,481.8,428.9,479.1L428.9,479.1z M412.6,509.3c3.1,2.9-0.9,9.2-6.3,11.9s-17,4-16.7,0s5.6-2.2,9.5-6.8
			C402.9,509.8,408.2,505.3,412.6,509.3z M417.8,527.3c-1.8-3,7.4-4.2,7.4-9.1c-0.1-13,11.9-10.5,8.5-1.2S419.5,530.3,417.8,527.3z"
			/>
		<path class="st4" d="M399.6,458.1c-1.8-2.6-3.6-5.2-5.3-7.7s-3.5-4.9-5.1-7.2c-3.4-4.5-6.7-8.6-9.6-11.9c-2.9-3.3-5.4-5.9-7.3-7.6
			s-2.9-2.6-2.9-2.6s1.1,0.8,3,2.5c1.9,1.7,4.5,4.1,7.6,7.4c3,3.2,6.5,7.1,10,11.6c1.8,2.2,3.6,4.6,5.4,7s3.6,5,5.5,7.5
			c3.8,5,7.8,10.1,12,15s8.3,9.4,12.4,13.4s8,7.6,11.4,10.5s6.5,5.1,8.6,6.7l1.7,1.2c-0.6,0-1.3,0.1-1.9,0.1c0.2,1,0.3,2,0.4,3
			c-0.7-0.5-1.4-1-2.2-1.5c-2.2-1.6-5.3-4-8.8-7s-7.4-6.7-11.4-11s-8.1-9-12.1-14S403.3,463.3,399.6,458.1z"/>
		<path class="st5" d="M476.1,896.1c12.8-22.6,38.3-30.6,50.6-18c5.5,5.7,5.2,12.3,2.9,18H476.1z"/>
		<path class="st5" d="M318.4,822.3c8-18.8,1.5-37.6-7-36.4C298.8,787.7,306.2,812.4,318.4,822.3z"/>
		<path class="st5" d="M342.3,853.5c-1.7-2.9-3.6-5.6-5.5-8.4c10.7-12.2,11-27.7,4.3-29.3c-8.6-2.1-11.5,11.7-8.9,23.3
			c-6.4-7.9-13.6-15.1-21.6-21.4c-0.2-0.2-0.5-0.3-0.7-0.4c-12.7-8.4-29.6-5.8-31.2,3.2s15.6,20.3,41.4,11.6
			c8.9,9.1,16.5,19.5,22.5,30.8l4.5-0.9C345.6,859,344,856.2,342.3,853.5z"/>
		<path class="st5" d="M314.3,868c-3.7,9.1-0.1,19.3,5.3,28.1h69.3c-1.1-6.9-4.1-15.1-10.8-24C359.2,847,323.1,846.8,314.3,868z"/>
		<path class="st6" d="M314.3,868c-3.7,9.1-0.1,19.3,5.3,28.1h69.3c-1.1-6.9-4.1-15.1-10.8-24C359.2,847,323.1,846.8,314.3,868z"/>
		<path class="st5" d="M432.5,872.1c-6.7,8.9-9.7,17.1-10.8,24H491c5.4-8.8,9-19,5.3-28.1C487.5,846.8,451.4,847,432.5,872.1z"/>
		<path class="st6" d="M432.5,872.1c-6.7,8.9-9.7,17.1-10.8,24H491c5.4-8.8,9-19,5.3-28.1C487.5,846.8,451.4,847,432.5,872.1z"/>
		<path class="st5" d="M337.2,896.1c-12.8-22.6-38.3-30.6-50.6-18c-5.5,5.7-5.2,12.3-2.9,18H337.2z"/>
		<path class="st5" d="M428.1,847.4c17.5,0.7,28,26,19.8,46.9c-0.2,0.6-0.5,1.2-0.9,1.8h-65.4c-12.2-11.6-32.2-39.7-20.2-48.7
			c12.5-9.4,35.5,4.4,48.2,20.1C412.4,857.2,417.1,846.9,428.1,847.4z"/>
		
			<linearGradient id="SVGID_2_" gradientUnits="userSpaceOnUse" x1="6324.0703" y1="147.4033" x2="6399.5405" y2="147.4033" gradientTransform="matrix(-1 0 0 -1 6690.7002 988.3654)">
			<stop  offset="0" style="stop-color:#878787"/>
			<stop  offset="1" style="stop-color:#FFFFFF"/>
		</linearGradient>
		<path class="st7" d="M320.1,832c6.2,6.4,11.8,13.3,16.6,20.8c-10.1,1-18.7,6.2-22.4,15.1c-0.8,2-1.3,4.1-1.5,6.3
			c-9.9-3.7-19.8-2.8-26.2,3.8c-5.5,5.7-5.2,12.3-2.9,18h245.8c2.3-5.7,2.6-12.3-2.9-18c-6.9-7.2-18.1-7.7-28.9-2.7
			c0-2.6-0.5-5.1-1.5-7.4c-6.9-16.8-31.1-20.2-50.3-8.2c-4-7.2-10.3-12.1-17.9-12.4c-11-0.4-15.8,9.8-18.4,20.1
			c-12.7-15.7-35.7-29.5-48.2-20.1c-2.8,2.1-3.8,5.2-3.7,8.8c-5.1-2.2-10.5-3.4-16-3.6c-1.6-2.6-3.3-5.1-5-7.6
			c10.7-12.2,11-27.7,4.3-29.3c-8.6-2.1-11.5,11.7-8.9,23.3c-6.4-7.9-13.6-15.1-21.6-21.4c-0.2-0.2-0.5-0.3-0.7-0.4
			c-12.7-8.4-29.6-5.8-31.2,3.2S294.2,840.7,320.1,832z M318.4,822.3c8-18.8,1.5-37.6-7-36.4C298.8,787.7,306.2,812.4,318.4,822.3z"
			/>
		<path class="st5" d="M663.2,896.1c-12.8-22.6-38.3-30.6-50.6-18c-5.5,5.7-5.2,12.3-2.9,18H663.2z"/>
		<path class="st5" d="M820.9,822.3c-8-18.8-1.5-37.6,7-36.4C840.5,787.7,833,812.4,820.9,822.3z"/>
		<path class="st5" d="M796.9,853.5c1.7-2.9,3.6-5.6,5.5-8.4c-10.7-12.2-11.1-27.7-4.3-29.3c8.6-2.1,11.5,11.7,8.9,23.3
			c6.4-7.9,13.6-15.1,21.6-21.4c0.2-0.2,0.5-0.3,0.7-0.4c12.7-8.4,29.6-5.8,31.2,3.2S845,840.7,819.2,832
			c-8.9,9.1-16.5,19.5-22.5,30.8l-4.5-0.9C793.7,859,795.3,856.2,796.9,853.5z"/>
		<path class="st5" d="M761.2,872.1c-6.7,8.9-9.7,17.1-10.8,24h69.3c5.4-8.8,9-19,5.3-28.1C816.2,846.8,780.1,847,761.2,872.1z"/>
		<path class="st6" d="M761.2,872.1c-6.7,8.9-9.7,17.1-10.8,24h69.3c5.4-8.8,9-19,5.3-28.1C816.2,846.8,780.1,847,761.2,872.1z"/>
		<path class="st5" d="M643,868c-3.7,9.1-0.1,19.3,5.3,28.1h69.3c-1.1-6.9-4.1-15.1-10.8-24C687.9,847,651.7,846.8,643,868z"/>
		<path class="st6" d="M643,868c-3.7,9.1-0.1,19.3,5.3,28.1h69.3c-1.1-6.9-4.1-15.1-10.8-24C687.9,847,651.7,846.8,643,868z"/>
		<path class="st5" d="M802,896.1c12.8-22.6,38.3-30.6,50.6-18c5.5,5.7,5.2,12.3,2.9,18H802z"/>
		<path class="st5" d="M711.1,847.4c-17.5,0.7-28,26-19.8,46.9c0.2,0.6,0.5,1.2,0.9,1.8h65.4c12.2-11.6,32.2-39.7,20.2-48.7
			c-12.5-9.4-35.5,4.4-48.2,20.1C726.9,857.2,722.1,846.9,711.1,847.4z"/>
		
			<linearGradient id="SVGID_3_" gradientUnits="userSpaceOnUse" x1="13615.9297" y1="147.4184" x2="13691.4004" y2="147.4184" gradientTransform="matrix(1 0 0 -1 -12843.29 988.3654)">
			<stop  offset="0" style="stop-color:#878787"/>
			<stop  offset="1" style="stop-color:#FFFFFF"/>
		</linearGradient>
		<path class="st8" d="M860.6,820.4c-1.6-8.9-18.5-11.6-31.2-3.2c-0.3,0.1-0.5,0.2-0.7,0.4c-8,6.3-15.2,13.5-21.6,21.4
			c2.6-11.6-0.3-25.3-8.9-23.3c-6.8,1.6-6.4,17.1,4.3,29.3c-1.8,2.5-3.4,5-5,7.6c-5.5,0.2-10.9,1.4-16,3.6c0.1-3.7-0.9-6.8-3.7-8.8
			c-12.5-9.4-35.5,4.4-48.2,20.1c-2.7-10.3-7.5-20.5-18.5-20.1c-7.6,0.3-13.8,5.2-17.8,12.4c-19.1-11.9-43.3-8.6-50.3,8.2
			c-1,2.4-1.5,4.9-1.5,7.4c-10.7-5-21.9-4.5-28.9,2.7c-5.5,5.7-5.2,12.3-2.9,18h245.8c2.3-5.7,2.6-12.3-2.9-18
			c-6.4-6.5-16.3-7.5-26.2-3.8c-0.1-2.2-0.6-4.3-1.5-6.3c-3.7-9-12.3-14.1-22.4-15.1c4.8-7.5,10.4-14.5,16.7-20.8
			C845,840.7,862.3,829.4,860.6,820.4z M827.8,785.9c-8.4-1.2-15,17.5-7,36.4C833,812.4,840.5,787.7,827.8,785.9z"/>
		<path class="st9" d="M128.3,651.9c0,0-3.5,2.1-5.4,0.7c-1.1-0.8-1.5-2.2-1-3.4c0,0-2.7,1.2-4.1-0.9s-0.4-2.7-0.4-2.7
			s-3.3-0.6-4-3.3c-0.4-1.3,0.3-2.8,1.6-3.2c0.1,0,0.2-0.1,0.3-0.1c0,0-4.1-1.9-4.1-5.1c-0.2-1.2,0.6-2.3,1.8-2.5
			c0.3-0.1,0.7,0,1,0.1c0,0-2.2-3.3-0.8-5.1c0.8-1,2.2-1.2,3.2-0.5c-0.1-2.3,1.1-4.5,3.2-5.6c1.8-0.9,4-0.3,4.9,1.5
			c0.1,0.1,0.1,0.2,0.2,0.3c0,0,0.6-3.8,4-4.2c3.4-0.4,4.9,2.8,4.9,2.8s2.9-3.6,6.1-2.4c1.7,0.6,2.7,2.4,2.1,4.1c0,0,0,0.1,0,0.1
			c1.8-0.9,4-0.2,5,1.5c2,3.1-0.9,4.2-0.9,4.2s3.9,2.7,3.6,6.5c-0.3,3.8-6.8,5.7-6.8,5.7l-11.9,4.4L128.3,651.9z"/>
		<path class="st10" d="M140.5,719.7c0,0,6.2,12.2,8.7,15.5c1.8,2.3,4.9-0.4,6.8-2s1.2-11-1.9-18.3
			C151.6,709.3,140.7,718.5,140.5,719.7z"/>
		<path class="st11" d="M123.7,687.3c2.6,11.1,18,40.2,18,40.2s3.6,1,10.6-1.3c10.5-3.5,13-7.6,13-7.6s-3.8-19.5-10-35.7
			c-4.6-12.2-13.2-21.7-20.2-22.4C126.3,659.5,122.2,681,123.7,687.3z"/>
		<path class="st10" d="M200.9,704.6c0.5-1.7,2.4-6.7,3.7-6.3c3.1,0.9,0.5,3.2,1.7,7.1c0.8,2.5-5.4,6.2-5.4,6.2
			C200.3,709.4,200.3,707,200.9,704.6z"/>
		<path class="st10" d="M151,725.6c11.6-7.2,44.6-12.3,49.5-16.4c3.2-2.7,1.5-6.6,9-9.3c3.6-1.3,10.9,6.4,9,9.8
			c-4.4,7.6-9.7,7.9-15.3,5.1c-3.7,0.2-33.3,15.8-41.9,19.5c-3.9,1.7-9.9,3.8-11.8,1.4C146.6,731.8,146.7,728.3,151,725.6z"/>
		
			<linearGradient id="SVGID_4_" gradientUnits="userSpaceOnUse" x1="-7464.3848" y1="6383.5269" x2="-7500.2949" y2="6294.4365" gradientTransform="matrix(-0.85 -0.52 0.52 -0.85 -9547.5713 2323.5862)">
			<stop  offset="0" style="stop-color:#0F1E2D"/>
			<stop  offset="1" style="stop-color:#082947"/>
		</linearGradient>
		<path class="st12" d="M125.2,729.1c0,0,21.1,52,24.9,62.6s-15.1,21.2-26.3,10.2s-26.4-26.5-32.2-40.1s-7-25.3-0.6-37.6
			S119.5,715.1,125.2,729.1z"/>
		<path class="st13" d="M180.9,883.5c0,0-17.1,2.2-18.4,2.3s-3.7,0.2-2.2,4.4s1.8,5.5,1.8,5.5s17.9-7.2,19.8-8.2
			S184.6,884.6,180.9,883.5z"/>
		
			<linearGradient id="SVGID_5_" gradientUnits="userSpaceOnUse" x1="-9004.2832" y1="-2624.8423" x2="-9040.1934" y2="-2713.9324" gradientTransform="matrix(-0.93 0.37 -0.37 -0.93 -9229.1279 1687.9021)">
			<stop  offset="0" style="stop-color:#0F1E2D"/>
			<stop  offset="1" style="stop-color:#082947"/>
		</linearGradient>
		<path class="st14" d="M150.5,792.8c2.7,13.5,1.8,13.8,4.6,30.2s11.2,63.7,11.2,63.7c-0.5,0.8-1.3,1.4-2.2,1.7
			c-2.1,0.3-2.6-0.8-2.6-0.8s-3.1-11.5-7.2-18.5s-25.4-52.1-29.4-61.2s-3.7-17.1,6.9-20.8S149.3,786.9,150.5,792.8z"/>
		<path class="st15" d="M77,890.4c0-0.4-0.1-0.8-0.1-1.1c-0.5-3-2.3-2.4-3.5-2c-0.2,0.1-1,0.3-2,0.5l-2-0.5c-1.2-0.4-3-1-3.5,2
			c-0.1,0.4-0.1,0.8-0.1,1.1c-0.3,4.3-0.4,5.7-0.4,5.7h6.1h6.1C77.4,896.1,77.2,894.7,77,890.4z"/>
		<path class="st9" d="M108.4,735.8c0,0-16.2,60-19.3,70.5s-24.2,8-26.7-7.1s-9.6-48.2,2.3-71.3C72.8,712,112,721.4,108.4,735.8z"/>
		<path class="st9" d="M91.5,797.3c-2.3,16.8-18.1,93.3-18.1,93.3s-0.4,0.7-2.4,0.2s-2.2-1.7-2.2-1.7s0.8-10.8-0.7-18.6
			s-4.8-43.7-5.5-53.4S63,787.5,74,787.5S91.8,795.4,91.5,797.3z"/>
		<path class="st16" d="M136.4,660.1c16.1,7.2,12.2,22.5,8.9,35.2c-9.9,38.1-6.9,63.3-6.9,63.3s-13.1,4.4-40.6-1.9
			C62.2,748.7,60,736,60,736s20.5-53.5,35.5-71.7c5.6-6.8,16-12.1,29.9-8.3C129.2,657,132.8,658.4,136.4,660.1z"/>
		<path class="st9" d="M142.3,664.1c-0.9,5.2-1.5,17.3-12.9,12.4c-13.4-5.8-11.1-21-9.8-22.3c3.1-3,7.8,1,11.1,2.5
			S143.1,659.7,142.3,664.1z"/>
		<path class="st17" d="M123.4,655.3c0.7,0.2,1.4,0.4,2.1,0.6c3.7,1.3,7.3,2.9,10.7,4.8c1.1,0.6,2.2,1.2,3.3,2
			c-0.8,3.3-0.9,13.3-9.6,9.8C121,669,122.1,658.3,123.4,655.3z"/>
		<path class="st17" d="M124.2,660.5c2.2-8.9,2.2-14,4.7-22c0-0.3,11.8,0.9,14.5-5.2c0.8,4.7,1,9.4,0.7,14.1c-0.6,6.1-2.2,9.5-8.3,7
			c0.3,3,0.8,6,1.6,9c1.3,5.1-2,7-4.4,7.3S121.9,669.9,124.2,660.5z"/>
		<path class="st17" d="M122.8,641.3c-0.8,1.5,0.4,3.7,2.6,4.8c2.2,1.2,4.7,0.9,5.5-0.6s-0.4-3.7-2.6-4.8
			C126,639.5,123.6,639.7,122.8,641.3z"/>
		<path class="st9" d="M440.2,249.2h242.7c3.3,0,5.9,2.7,5.9,5.9v257c0,3.3-2.7,5.9-5.9,5.9H440.2c-3.3,0-5.9-2.7-5.9-5.9v-257
			C434.3,251.8,437,249.2,440.2,249.2z"/>
		<polygon class="st1" points="512.5,346.2 532.6,322.5 522,313.5 494.3,346.2 522.1,378.9 532.7,369.9 		"/>
		<polygon class="st1" points="610.7,346 590.5,322.4 601.1,313.4 628.9,346 601.2,378.7 590.6,369.7 		"/>
		
			<rect x="518.5" y="339.2" transform="matrix(0.4035 -0.915 0.915 0.4035 18.281 720.3281)" class="st1" width="86.2" height="14"/>
		<path class="st18" d="M682.9,249.2H440.2c-3.3,0-5.9,2.7-5.9,5.9v21.3h254.5v-21.3C688.9,251.8,686.2,249.2,682.9,249.2z"/>
		<path class="st1" d="M677.8,262.8c0-3.4-2.7-6.1-6.1-6.1c-3.4,0-6.1,2.7-6.1,6.1c0,3.4,2.7,6.1,6.1,6.1S677.8,266.2,677.8,262.8
			C677.8,262.8,677.8,262.8,677.8,262.8z"/>
		<path class="st19" d="M647,262.8c0-3.4-2.7-6.1-6.1-6.1c-3.4,0-6.1,2.7-6.1,6.1c0,3.4,2.7,6.1,6.1,6.1S647,266.2,647,262.8
			C647,262.8,647,262.8,647,262.8z"/>
		<path class="st20" d="M616.2,262.8c0-3.4-2.7-6.1-6.1-6.1c-3.4,0-6.1,2.7-6.1,6.1c0,3.4,2.7,6.1,6.1,6.1S616.2,266.2,616.2,262.8
			C616.2,262.8,616.2,262.8,616.2,262.8z"/>
		<path class="st21" d="M700.6,514.5c-1.8,0-3.7,0.2-5.5,0.5c-1.7-34.8-31.3-61.6-66.1-59.8c-1.4,0.1-2.8,0.2-4.1,0.3
			c-6.3-35-39.8-58.2-74.7-51.9c-26.4,4.8-47.1,25.4-51.9,51.9c-34.6-4-65.9,20.7-69.9,55.3c-0.2,1.4-0.3,2.8-0.3,4.2
			c-1.8-0.3-3.6-0.5-5.5-0.5c-16.6,0-30,13.4-30,30s13.4,30,30,30h278c16.6,0,30-13.4,30-30S717.1,514.5,700.6,514.5L700.6,514.5z"
			/>
		<path class="st22" d="M707.6,573.7v-17.9h20.8c0.4-1.1,0.8-2.2,1.1-3.3h-21.9v-23h19c-0.7-1.1-1.4-2.2-2.2-3.3h-16.8v-11
			c-1.1-0.3-2.2-0.5-3.3-0.6v11.6h-23v-23h12.1c-0.3-1.1-0.6-2.2-0.9-3.3h-11.2v-21.3c-1.4-1.7-2.8-3.3-4.3-4.9h-21.9v-14.4
			c-1.1-0.4-2.2-0.8-3.3-1.2v15.6h-23v-18.6c-1.1,0.1-2.2,0.1-3.3,0.3v18.4h-23v-23h21.3c-0.3-1.1-0.6-2.2-0.9-3.3h-20.3v-23h7.4
			c-1-1.1-2-2.2-3.1-3.3h-4.3v-3.9c-1.1-0.9-2.2-1.7-3.3-2.5v6.4h-23v-17c-1.1-0.2-2.2-0.5-3.3-0.7v17.7h-23v-17.6
			c-1.1,0.2-2.2,0.4-3.3,0.7v17h-23v-6.4c-1.1,0.8-2.2,1.7-3.3,2.5v3.9h-4.3c-1.1,1.1-2.1,2.2-3.1,3.3h7.4v23h-20.3
			c-0.3,1.1-0.7,2.2-0.9,3.3h21.3v23h-23v-18.4c-1.1-0.1-2.2-0.2-3.3-0.3v18.6h-23v-15.6c-1.1,0.4-2.2,0.8-3.3,1.2v14.4h-21.9
			c-1.5,1.5-3,3.2-4.3,4.9v21.4h-11.2c-0.3,1.1-0.6,2.2-0.9,3.3h12.1v23h-23v-11.6c-1.1,0.1-2.2,0.3-3.3,0.6v11h-16.8
			c-0.8,1-1.5,2.1-2.2,3.3h19v23h-21.9c0.3,1.1,0.7,2.2,1.1,3.3h20.8v17.9c1.1,0.3,2.2,0.4,3.3,0.6v-18.5h23v18.7h3.3v-18.7h23v18.7
			h3.3v-18.7h23v18.7h3.3v-18.7h23v18.7h3.3v-18.7h23v18.7h3.3v-18.7h23v18.7h3.3v-18.7h23v18.7h3.3v-18.7h23v18.7h3.3v-18.7h23
			v18.7h3.3v-18.7h23v18.7h3.3v-18.7h23v18.4C705.6,574.2,706.6,574,707.6,573.7z M441.8,552.6h-23v-23h23V552.6z M468.1,552.6h-23
			v-23h23V552.6z M468.1,526.3h-23v-23h23V526.3z M468.1,500.1h-23v-23h23V500.1z M494.3,552.6h-23v-23h23V552.6z M494.3,526.3h-23
			v-23h23V526.3z M494.3,500.1h-23v-23h23V500.1z M520.6,552.6h-23v-23h23V552.6z M520.6,526.3h-23v-23h23V526.3z M520.6,500.1h-23
			v-23h23V500.1z M546.8,552.6h-23v-23h23V552.6z M546.8,526.3h-23v-23h23V526.3z M546.8,500.1h-23v-23h23V500.1z M546.8,473.8h-23
			v-23h23V473.8z M546.8,447.6h-23v-23h23V447.6z M573.1,552.6h-23v-23h23V552.6z M573.1,526.3h-23v-23h23V526.3z M573.1,500.1h-23
			v-23h23V500.1z M573.1,473.8h-23v-23h23V473.8z M573.1,447.6h-23v-23h23V447.6z M599.3,552.6h-23v-23h23V552.6z M599.3,526.3h-23
			v-23h23V526.3z M599.3,500h-23v-23h23V500z M599.3,473.8h-23v-23h23V473.8z M599.3,447.5h-23v-23h23V447.5z M625.6,552.5h-23v-23
			h23V552.5z M625.6,526.3h-23v-23h23V526.3z M625.6,500h-23v-23h23V500z M651.8,552.5h-23v-23h23V552.5z M651.8,526.3h-23v-23h23
			V526.3z M651.8,500h-23v-23h23V500z M678.1,552.5h-23v-23h23V552.5z M678.1,526.3h-23v-23h23V526.3z M678.1,500h-23v-23h23V500z
			 M681.4,552.5v-23h23v23H681.4z"/>
		<path class="st23" d="M665.7,565.6v-3.3c0-4.9-4-8.9-8.9-8.9H466.4c-4.9,0-9,4-9,8.9v3.3c0,4.9-4,8.9-8.9,8.9h226.2
			C669.7,574.5,665.8,570.5,665.7,565.6z"/>
		<path class="st24" d="M652.7,841.2v-41.7V553.4H478.1v287.8c0,19.9,16.1,36,36,36h174.6C668.8,877.2,652.7,861.1,652.7,841.2z"/>
		<path class="st25" d="M547.8,564h27c0.7,0,1.2,0.5,1.2,1.2v4c0,0.7-0.5,1.2-1.2,1.2h-27c-0.7,0-1.2-0.5-1.2-1.2v-4
			C546.6,564.5,547.2,564,547.8,564z"/>
		<path class="st25" d="M582.1,564h9.1c0.7,0,1.2,0.5,1.2,1.2v4c0,0.7-0.5,1.2-1.2,1.2h-9.1c-0.7,0-1.2-0.5-1.2-1.2v-4
			C580.9,564.5,581.4,564,582.1,564z"/>
		<path class="st25" d="M489.3,564h51.2c0.7,0,1.2,0.5,1.2,1.2v4c0,0.7-0.5,1.2-1.2,1.2h-51.2c-0.7,0-1.2-0.5-1.2-1.2v-4
			C488.1,564.5,488.6,564,489.3,564z"/>
		<path class="st26" d="M527.1,578.8h23c0.7,0,1.2,0.5,1.2,1.2v4c0,0.7-0.5,1.2-1.2,1.2h-23c-0.7,0-1.2-0.5-1.2-1.2v-4
			C525.9,579.3,526.5,578.8,527.1,578.8z"/>
		<path class="st26" d="M557.5,578.8h26.7c0.7,0,1.2,0.5,1.2,1.2v4c0,0.7-0.5,1.2-1.2,1.2h-26.7c-0.7,0-1.2-0.5-1.2-1.2v-4
			C556.2,579.3,556.8,578.8,557.5,578.8z"/>
		<path class="st26" d="M489.3,578.8h30.5c0.7,0,1.2,0.5,1.2,1.2v4c0,0.7-0.5,1.2-1.2,1.2h-30.5c-0.7,0-1.2-0.5-1.2-1.2v-4
			C488.1,579.3,488.6,578.8,489.3,578.8z"/>
		<path class="st25" d="M536.8,593.6h29.8c0.7,0,1.2,0.5,1.2,1.2v4c0,0.7-0.5,1.2-1.2,1.2h-29.8c-0.7,0-1.2-0.5-1.2-1.2v-4
			C535.5,594.2,536.1,593.6,536.8,593.6z"/>
		<path class="st25" d="M573.8,593.6h38.5c0.7,0,1.2,0.5,1.2,1.2v4c0,0.7-0.5,1.2-1.2,1.2h-38.5c-0.7,0-1.2-0.5-1.2-1.2v-4
			C572.6,594.2,573.2,593.6,573.8,593.6z"/>
		<path class="st25" d="M489.3,593.6h40.1c0.7,0,1.2,0.5,1.2,1.2v4c0,0.7-0.5,1.2-1.2,1.2h-40.1c-0.7,0-1.2-0.5-1.2-1.2v-4
			C488.1,594.2,488.6,593.6,489.3,593.6z"/>
		<path class="st26" d="M508.2,608.5h43.1c0.7,0,1.2,0.5,1.2,1.2v4c0,0.7-0.5,1.2-1.2,1.2h-43.1c-0.7,0-1.2-0.5-1.2-1.2v-4
			C507,609,507.5,608.5,508.2,608.5z"/>
		<path class="st26" d="M558.7,608.5h21.7c0.7,0,1.2,0.5,1.2,1.2v4c0,0.7-0.5,1.2-1.2,1.2h-21.7c-0.7,0-1.2-0.5-1.2-1.2v-4
			C557.5,609,558,608.5,558.7,608.5z"/>
		<path class="st26" d="M489.3,608.5h11.6c0.7,0,1.2,0.5,1.2,1.2v4c0,0.7-0.5,1.2-1.2,1.2h-11.6c-0.7,0-1.2-0.5-1.2-1.2v-4
			C488.1,609,488.6,608.5,489.3,608.5z"/>
		<path class="st25" d="M525.9,623.3h38.1c0.7,0,1.2,0.5,1.2,1.2v4c0,0.7-0.5,1.2-1.2,1.2h-38.1c-0.7,0-1.2-0.5-1.2-1.2v-4
			C524.7,623.8,525.3,623.3,525.9,623.3z"/>
		<path class="st25" d="M571.4,623.3h24.1c0.7,0,1.2,0.5,1.2,1.2v4c0,0.7-0.5,1.2-1.2,1.2h-24.1c-0.7,0-1.2-0.5-1.2-1.2v-4
			C570.2,623.8,570.7,623.3,571.4,623.3z"/>
		<path class="st25" d="M489.3,623.3h29.3c0.7,0,1.2,0.5,1.2,1.2v4c0,0.7-0.5,1.2-1.2,1.2h-29.3c-0.7,0-1.2-0.5-1.2-1.2v-4
			C488.1,623.8,488.6,623.3,489.3,623.3z"/>
		<path class="st26" d="M537.1,638.1h55.3c0.7,0,1.2,0.5,1.2,1.2v4c0,0.7-0.5,1.2-1.2,1.2h-55.3c-0.7,0-1.2-0.5-1.2-1.2v-4
			C535.9,638.6,536.4,638.1,537.1,638.1z"/>
		<path class="st26" d="M599.7,638.1h9.1c0.7,0,1.2,0.5,1.2,1.2v4c0,0.7-0.5,1.2-1.2,1.2h-9.1c-0.7,0-1.2-0.5-1.2-1.2v-4
			C598.5,638.6,599,638.1,599.7,638.1z"/>
		<path class="st26" d="M489.3,638.1h40.5c0.7,0,1.2,0.5,1.2,1.2v4c0,0.7-0.5,1.2-1.2,1.2h-40.5c-0.7,0-1.2-0.5-1.2-1.2v-4
			C488.1,638.6,488.6,638.1,489.3,638.1z"/>
		<path class="st25" d="M536.8,682.6h29.8c0.7,0,1.2,0.5,1.2,1.2v4c0,0.7-0.5,1.2-1.2,1.2h-29.8c-0.7,0-1.2-0.5-1.2-1.2v-4
			C535.5,683.1,536.1,682.6,536.8,682.6z"/>
		<path class="st25" d="M573.8,682.6h38.5c0.7,0,1.2,0.5,1.2,1.2v4c0,0.7-0.5,1.2-1.2,1.2h-38.5c-0.7,0-1.2-0.5-1.2-1.2v-4
			C572.6,683.1,573.2,682.6,573.8,682.6z"/>
		<path class="st25" d="M489.3,682.6h40.1c0.7,0,1.2,0.5,1.2,1.2v4c0,0.7-0.5,1.2-1.2,1.2h-40.1c-0.7,0-1.2-0.5-1.2-1.2v-4
			C488.1,683.1,488.6,682.6,489.3,682.6z"/>
		<path class="st26" d="M508.2,667.8h43.1c0.7,0,1.2,0.5,1.2,1.2v4c0,0.7-0.5,1.2-1.2,1.2h-43.1c-0.7,0-1.2-0.5-1.2-1.2v-4
			C507,668.3,507.5,667.8,508.2,667.8z"/>
		<path class="st26" d="M558.7,667.8h21.7c0.7,0,1.2,0.5,1.2,1.2v4c0,0.7-0.5,1.2-1.2,1.2h-21.7c-0.7,0-1.2-0.5-1.2-1.2v-4
			C557.5,668.3,558,667.8,558.7,667.8z"/>
		<path class="st26" d="M489.3,667.8h11.6c0.7,0,1.2,0.5,1.2,1.2v4c0,0.7-0.5,1.2-1.2,1.2h-11.6c-0.7,0-1.2-0.5-1.2-1.2v-4
			C488.1,668.3,488.6,667.8,489.3,667.8z"/>
		<path class="st25" d="M525.9,652.9h38.1c0.7,0,1.2,0.5,1.2,1.2v4c0,0.7-0.5,1.2-1.2,1.2h-38.1c-0.7,0-1.2-0.5-1.2-1.2v-4
			C524.7,653.5,525.3,652.9,525.9,652.9z"/>
		<path class="st25" d="M571.4,652.9h24.1c0.7,0,1.2,0.5,1.2,1.2v4c0,0.7-0.5,1.2-1.2,1.2h-24.1c-0.7,0-1.2-0.5-1.2-1.2v-4
			C570.2,653.5,570.7,652.9,571.4,652.9z"/>
		<path class="st25" d="M489.3,652.9h29.3c0.7,0,1.2,0.5,1.2,1.2v4c0,0.7-0.5,1.2-1.2,1.2h-29.3c-0.7,0-1.2-0.5-1.2-1.2v-4
			C488.1,653.5,488.6,652.9,489.3,652.9z"/>
		<path class="st26" d="M537.1,697.4h55.3c0.7,0,1.2,0.5,1.2,1.2v4c0,0.7-0.5,1.2-1.2,1.2h-55.3c-0.7,0-1.2-0.5-1.2-1.2v-4
			C535.9,698,536.4,697.4,537.1,697.4z"/>
		<path class="st26" d="M599.7,697.4h9.1c0.7,0,1.2,0.5,1.2,1.2v4c0,0.7-0.5,1.2-1.2,1.2h-9.1c-0.7,0-1.2-0.5-1.2-1.2v-4
			C598.5,698,599,697.4,599.7,697.4z"/>
		<path class="st26" d="M489.3,697.4h40.5c0.7,0,1.2,0.5,1.2,1.2v4c0,0.7-0.5,1.2-1.2,1.2h-40.5c-0.7,0-1.2-0.5-1.2-1.2v-4
			C488.1,698,488.6,697.4,489.3,697.4z"/>
		<path class="st25" d="M536.8,741.9h29.8c0.7,0,1.2,0.5,1.2,1.2v4c0,0.7-0.5,1.2-1.2,1.2h-29.8c-0.7,0-1.2-0.5-1.2-1.2v-4
			C535.5,742.5,536.1,741.9,536.8,741.9z"/>
		<path class="st25" d="M573.8,741.9h38.5c0.7,0,1.2,0.5,1.2,1.2v4c0,0.7-0.5,1.2-1.2,1.2h-38.5c-0.7,0-1.2-0.5-1.2-1.2v-4
			C572.6,742.5,573.2,741.9,573.8,741.9z"/>
		<path class="st25" d="M489.3,741.9h40.1c0.7,0,1.2,0.5,1.2,1.2v4c0,0.7-0.5,1.2-1.2,1.2h-40.1c-0.7,0-1.2-0.5-1.2-1.2v-4
			C488.1,742.5,488.6,741.9,489.3,741.9z"/>
		<path class="st26" d="M508.2,727.1h43.1c0.7,0,1.2,0.5,1.2,1.2v4c0,0.7-0.5,1.2-1.2,1.2h-43.1c-0.7,0-1.2-0.5-1.2-1.2v-4
			C507,727.6,507.5,727.1,508.2,727.1z"/>
		<path class="st26" d="M558.7,727.1h21.7c0.7,0,1.2,0.5,1.2,1.2v4c0,0.7-0.5,1.2-1.2,1.2h-21.7c-0.7,0-1.2-0.5-1.2-1.2v-4
			C557.5,727.6,558,727.1,558.7,727.1z"/>
		<path class="st26" d="M489.3,727.1h11.6c0.7,0,1.2,0.5,1.2,1.2v4c0,0.7-0.5,1.2-1.2,1.2h-11.6c-0.7,0-1.2-0.5-1.2-1.2v-4
			C488.1,727.6,488.6,727.1,489.3,727.1z"/>
		<path class="st25" d="M525.9,712.3h38.1c0.7,0,1.2,0.5,1.2,1.2v4c0,0.7-0.5,1.2-1.2,1.2h-38.1c-0.7,0-1.2-0.5-1.2-1.2v-4
			C524.7,712.8,525.3,712.3,525.9,712.3z"/>
		<path class="st25" d="M571.4,712.3h24.1c0.7,0,1.2,0.5,1.2,1.2v4c0,0.7-0.5,1.2-1.2,1.2h-24.1c-0.7,0-1.2-0.5-1.2-1.2v-4
			C570.2,712.8,570.7,712.3,571.4,712.3z"/>
		<path class="st25" d="M489.3,712.3h29.3c0.7,0,1.2,0.5,1.2,1.2v4c0,0.7-0.5,1.2-1.2,1.2h-29.3c-0.7,0-1.2-0.5-1.2-1.2v-4
			C488.1,712.8,488.6,712.3,489.3,712.3z"/>
		<path class="st26" d="M537.1,756.7h55.3c0.7,0,1.2,0.5,1.2,1.2v4c0,0.7-0.5,1.2-1.2,1.2h-55.3c-0.7,0-1.2-0.5-1.2-1.2v-4
			C535.9,757.3,536.4,756.7,537.1,756.7z"/>
		<path class="st26" d="M599.7,756.7h9.1c0.7,0,1.2,0.5,1.2,1.2v4c0,0.7-0.5,1.2-1.2,1.2h-9.1c-0.7,0-1.2-0.5-1.2-1.2v-4
			C598.5,757.3,599,756.7,599.7,756.7z"/>
		<path class="st26" d="M489.3,756.7h40.5c0.7,0,1.2,0.5,1.2,1.2v4c0,0.7-0.5,1.2-1.2,1.2h-40.5c-0.7,0-1.2-0.5-1.2-1.2v-4
			C488.1,757.3,488.6,756.7,489.3,756.7z"/>
		<path class="st25" d="M536.8,801.2h29.8c0.7,0,1.2,0.5,1.2,1.2v4c0,0.7-0.5,1.2-1.2,1.2h-29.8c-0.7,0-1.2-0.5-1.2-1.2v-4
			C535.5,801.8,536.1,801.2,536.8,801.2z"/>
		<path class="st25" d="M573.8,801.2h38.5c0.7,0,1.2,0.5,1.2,1.2v4c0,0.7-0.5,1.2-1.2,1.2h-38.5c-0.7,0-1.2-0.5-1.2-1.2v-4
			C572.6,801.8,573.2,801.2,573.8,801.2z"/>
		<path class="st25" d="M489.3,801.2h40.1c0.7,0,1.2,0.5,1.2,1.2v4c0,0.7-0.5,1.2-1.2,1.2h-40.1c-0.7,0-1.2-0.5-1.2-1.2v-4
			C488.1,801.8,488.6,801.2,489.3,801.2z"/>
		<path class="st26" d="M508.2,786.4h43.1c0.7,0,1.2,0.5,1.2,1.2v4c0,0.7-0.5,1.2-1.2,1.2h-43.1c-0.7,0-1.2-0.5-1.2-1.2v-4
			C507,786.9,507.5,786.4,508.2,786.4z"/>
		<path class="st26" d="M558.7,786.4h21.7c0.7,0,1.2,0.5,1.2,1.2v4c0,0.7-0.5,1.2-1.2,1.2h-21.7c-0.7,0-1.2-0.5-1.2-1.2v-4
			C557.5,786.9,558,786.4,558.7,786.4z"/>
		<path class="st26" d="M489.3,786.4h11.6c0.7,0,1.2,0.5,1.2,1.2v4c0,0.7-0.5,1.2-1.2,1.2h-11.6c-0.7,0-1.2-0.5-1.2-1.2v-4
			C488.1,786.9,488.6,786.4,489.3,786.4z"/>
		<path class="st25" d="M536.8,830.9h29.8c0.7,0,1.2,0.5,1.2,1.2v4c0,0.7-0.5,1.2-1.2,1.2h-29.8c-0.7,0-1.2-0.5-1.2-1.2v-4
			C535.5,831.4,536.1,830.9,536.8,830.9z"/>
		<path class="st25" d="M573.8,830.9h38.5c0.7,0,1.2,0.5,1.2,1.2v4c0,0.7-0.5,1.2-1.2,1.2h-38.5c-0.7,0-1.2-0.5-1.2-1.2v-4
			C572.6,831.4,573.2,830.9,573.8,830.9z"/>
		<path class="st25" d="M489.3,830.9h40.1c0.7,0,1.2,0.5,1.2,1.2v4c0,0.7-0.5,1.2-1.2,1.2h-40.1c-0.7,0-1.2-0.5-1.2-1.2v-4
			C488.1,831.4,488.6,830.9,489.3,830.9z"/>
		<path class="st26" d="M508.2,816.1h43.1c0.7,0,1.2,0.5,1.2,1.2v4c0,0.7-0.5,1.2-1.2,1.2h-43.1c-0.7,0-1.2-0.5-1.2-1.2v-4
			C507,816.6,507.5,816.1,508.2,816.1z"/>
		<path class="st26" d="M558.7,816.1h21.7c0.7,0,1.2,0.5,1.2,1.2v4c0,0.7-0.5,1.2-1.2,1.2h-21.7c-0.7,0-1.2-0.5-1.2-1.2v-4
			C557.5,816.6,558,816.1,558.7,816.1z"/>
		<path class="st26" d="M489.3,816.1h11.6c0.7,0,1.2,0.5,1.2,1.2v4c0,0.7-0.5,1.2-1.2,1.2h-11.6c-0.7,0-1.2-0.5-1.2-1.2v-4
			C488.1,816.6,488.6,816.1,489.3,816.1z"/>
		<path class="st25" d="M525.9,771.6h38.1c0.7,0,1.2,0.5,1.2,1.2v4c0,0.7-0.5,1.2-1.2,1.2h-38.1c-0.7,0-1.2-0.5-1.2-1.2v-4
			C524.7,772.1,525.3,771.6,525.9,771.6z"/>
		<path class="st25" d="M571.4,771.6h24.1c0.7,0,1.2,0.5,1.2,1.2v4c0,0.7-0.5,1.2-1.2,1.2h-24.1c-0.7,0-1.2-0.5-1.2-1.2v-4
			C570.2,772.1,570.7,771.6,571.4,771.6z"/>
		<path class="st25" d="M489.3,771.6h29.3c0.7,0,1.2,0.5,1.2,1.2v4c0,0.7-0.5,1.2-1.2,1.2h-29.3c-0.7,0-1.2-0.5-1.2-1.2v-4
			C488.1,772.1,488.6,771.6,489.3,771.6z"/>
		<path class="st18" d="M516,629l-12.9,1.6c-2.9,0.2-4.3,2.6-3.1,5.2l4.8,12.1L516,629z"/>
		<path class="st18" d="M597.2,702.5l12.9-1.6c2.9-0.2,4.3-2.6,3.1-5.2l-4.8-12.1L597.2,702.5z"/>
		<path class="st18" d="M505.9,645.1l-11.6,5.9c-2.7,1.2-3.2,3.9-1.1,6l8.6,9.7L505.9,645.1z"/>
		<path class="st18" d="M607.3,686.4l11.6-5.9c2.7-1.2,3.2-3.9,1.1-6l-8.7-9.7L607.3,686.4z"/>
		<path class="st18" d="M501.9,663.6l-8.9,9.5c-2.1,2-1.6,4.8,1,6l11.5,6.2L501.9,663.6z"/>
		<path class="st18" d="M611.3,667.8l8.9-9.5c2.1-2,1.6-4.7-1-6l-11.5-6.2L611.3,667.8z"/>
		<path class="st18" d="M504.5,682.5l-5,12c-1.3,2.6,0.1,5,3,5.3l12.9,1.9L504.5,682.5z"/>
		<path class="st18" d="M608.7,649l5-12c1.3-2.6-0.1-5-3-5.3l-12.9-1.9L608.7,649z"/>
		<path class="st18" d="M513.3,699.3l-0.7,13c-0.3,2.9,1.8,4.7,4.6,4l12.7-2.6L513.3,699.3z"/>
		<path class="st18" d="M599.8,632.2l0.7-13c0.3-2.9-1.8-4.7-4.6-4l-12.7,2.6L599.8,632.2z"/>
		<path class="st18" d="M527.4,712.1l3.8,12.4c0.7,2.8,3.3,3.8,5.7,2.1l11-6.8L527.4,712.1z"/>
		<path class="st18" d="M585.7,619.4l-3.8-12.4c-0.7-2.8-3.3-3.8-5.7-2.1l-11.1,6.8L585.7,619.4z"/>
		<path class="st18" d="M545,719.3l7.8,10.4c1.7,2.4,4.4,2.5,6.1,0.1l8.1-10.2L545,719.3z"/>
		<path class="st18" d="M568.1,612.3l-7.8-10.4c-1.7-2.4-4.4-2.4-6.1-0.1l-8.1,10.2L568.1,612.3z"/>
		<path class="st18" d="M564,720l11,7.1c2.4,1.7,5,0.8,5.7-2l4.1-12.3L564,720z"/>
		<path class="st18" d="M549.1,611.5l-10.9-7.1c-2.4-1.7-5-0.8-5.7,2l-4.1,12.4L549.1,611.5z"/>
		<path class="st18" d="M582.1,714.1l12.7,2.9c2.8,0.8,4.9-0.9,4.7-3.9l-0.4-13L582.1,714.1z"/>
		<path class="st18" d="M531,617.3l-12.7-2.9c-2.8-0.8-4.9,1-4.7,3.9l0.4,13L531,617.3z"/>
		<path class="st18" d="M586.1,615.9c27.4,16.2,36.4,51.4,20.3,78.8c-16.2,27.4-51.4,36.4-78.8,20.3c-27.4-16.2-36.4-51.4-20.3-78.8
			c0,0,0,0,0,0C523.4,608.8,558.7,599.7,586.1,615.9z"/>
		<path class="st9" d="M577.1,631c19,11.2,25.3,35.7,14,54.7c-11.2,19-35.7,25.3-54.7,14c-19-11.2-25.3-35.7-14.1-54.7
			C533.6,626.1,558.1,619.8,577.1,631C577.1,631,577.1,631,577.1,631z"/>
		<path class="st27" d="M569,644.8c-11.4-6.7-26-2.9-32.7,8.4s-2.9,26,8.4,32.7c11.4,6.7,26,2.9,32.7-8.4
			C584.1,666.2,580.4,651.5,569,644.8C569,644.8,569,644.8,569,644.8z"/>
		<path class="st1" d="M562.9,655.1c-5.7-3.4-13-1.5-16.3,4.2c-3.4,5.7-1.5,13,4.2,16.3c5.7,3.3,13,1.5,16.3-4.2
			C570.4,665.8,568.5,658.5,562.9,655.1C562.9,655.1,562.9,655.1,562.9,655.1z"/>
		<path class="st28" d="M344.5,667.9l-20.6,1c-4.6,0-7.1,3.5-5.5,7.9l6.1,19.7L344.5,667.9z"/>
		<path class="st28" d="M463.8,793.9l20.6-1c4.6,0,7.1-3.5,5.5-7.9l-6.1-19.7L463.8,793.9z"/>
		<path class="st28" d="M326.5,692.1l-19,8c-4.4,1.6-5.5,5.8-2.5,9.3l12.5,16.4L326.5,692.1z"/>
		<path class="st28" d="M481.7,769.7l19-8c4.4-1.6,5.5-5.8,2.5-9.3L490.7,736L481.7,769.7z"/>
		<path class="st28" d="M317.9,720.9l-15.1,14c-3.6,3-3.2,7.3,0.8,9.6l17.4,11.1L317.9,720.9z"/>
		<path class="st28" d="M490.3,740.8l15.1-14c3.6-3,3.2-7.3-0.8-9.6l-17.4-11.1L490.3,740.8z"/>
		<path class="st28" d="M319.7,751l-9.5,18.3c-2.3,4-0.5,7.9,4.1,8.7l20.1,4.5L319.7,751z"/>
		<path class="st28" d="M488.5,710.7l9.5-18.3c2.3-4,0.5-7.9-4.1-8.7l-20.1-4.5L488.5,710.7z"/>
		<path class="st28" d="M331.7,778.7l-2.6,20.5c-0.8,4.6,2.2,7.6,6.8,6.8l20.5-2.6L331.7,778.7z"/>
		<path class="st28" d="M476.5,683.1l2.6-20.5c0.8-4.6-2.2-7.6-6.8-6.8l-20.5,2.6L476.5,683.1z"/>
		<path class="st28" d="M352.4,800.6l4.6,20.1c0.8,4.6,4.7,6.4,8.7,4.1l18.3-9.5L352.4,800.6z"/>
		<path class="st28" d="M455.8,661.2l-4.5-20.1c-0.8-4.6-4.7-6.4-8.7-4.1l-18.3,9.5L455.8,661.2z"/>
		<path class="st28" d="M379.4,814l11.1,17.3c2.3,4,6.6,4.4,9.6,0.8l14-15.2L379.4,814z"/>
		<path class="st28" d="M428.9,647.7l-11.1-17.3c-2.3-4-6.6-4.4-9.6-0.8l-14,15.2L428.9,647.7z"/>
		<path class="st28" d="M409.3,817.5l16.4,12.5c3.5,3,7.7,1.9,9.3-2.5l8-19L409.3,817.5z"/>
		<path class="st28" d="M398.9,644.3l-16.4-12.5c-3.5-3-7.7-1.9-9.3,2.5l-8,19L398.9,644.3z"/>
		<path class="st28" d="M438.6,810.5l19.7,6.1c4.4,1.6,7.9-0.9,7.9-5.5l1-20.6L438.6,810.5z"/>
		<path class="st28" d="M369.6,651.3l-19.7-6.1c-4.4-1.6-7.9,0.9-7.9,5.5l-1,20.6L369.6,651.3z"/>
		<path class="st28" d="M456.8,655.6c41.3,28.9,51.3,85.7,22.4,127c-28.9,41.3-85.7,51.3-127,22.4c-41.3-28.9-51.3-85.7-22.4-127
			C358.6,636.8,415.5,626.8,456.8,655.6C456.7,655.6,456.7,655.6,456.8,655.6z"/>
		<path class="st9" d="M441.5,677.4c29.2,20.5,36.4,60.8,15.9,90c-20.5,29.2-60.8,36.4-90,15.9c-29.2-20.5-36.4-60.7-15.9-90
			C372,664.1,412.3,656.9,441.5,677.4C441.5,677.4,441.5,677.4,441.5,677.4z"/>
		<path class="st1" d="M422.9,711.5c10.7,10.3,11,27.4,0.7,38.2c-10.3,10.7-27.4,11-38.2,0.7c-10.7-10.3-11-27.4-0.7-38.2
			c0,0,0,0,0.1-0.1C395.1,701.4,412.2,701.2,422.9,711.5C422.8,711.5,422.8,711.5,422.9,711.5z"/>
		<path class="st9" d="M635.6,662l-6.6-0.7c-0.9-0.3-1.9,0.3-2.2,1.3c-0.1,0.3-0.1,0.7,0,1l1,6.6L635.6,662z"/>
		<path class="st9" d="M667.8,707.9l6.6,0.6c1,0.2,1.9-0.3,2.2-1.3c0.1-0.3,0.1-0.7,0-1l-1-6.6L667.8,707.9z"/>
		<path class="st9" d="M628.8,668.9l-6.5,1.7c-1,0.1-1.7,0.9-1.6,1.9c0,0.3,0.2,0.7,0.4,0.9l3.2,5.9L628.8,668.9z"/>
		<path class="st9" d="M674.7,701l6.5-1.7c1-0.1,1.7-1,1.6-1.9c0-0.3-0.2-0.7-0.4-0.9l-3.2-5.8L674.7,701z"/>
		<path class="st9" d="M624.7,677.7l-5.5,3.8c-0.9,0.4-1.3,1.5-0.8,2.4c0.1,0.3,0.4,0.6,0.7,0.7l5,4.4L624.7,677.7z"/>
		<path class="st9" d="M678.8,692.1l5.5-3.8c0.9-0.4,1.3-1.5,0.9-2.4c-0.1-0.3-0.4-0.6-0.7-0.8l-5-4.4L678.8,692.1z"/>
		<path class="st9" d="M623.8,687.4l-3.8,5.4c-0.7,0.7-0.7,1.8,0,2.5c0.2,0.3,0.6,0.4,0.9,0.5l6.2,2.4L623.8,687.4z"/>
		<path class="st9" d="M679.7,682.4l3.9-5.4c0.7-0.7,0.7-1.8,0-2.5c-0.2-0.3-0.6-0.4-0.9-0.5l-6.2-2.4L679.7,682.4z"/>
		<path class="st9" d="M626.4,696.8l-1.8,6.5c-0.4,0.9,0,1.9,0.9,2.4c0.3,0.1,0.7,0.2,1,0.1l6.7,0.1L626.4,696.8z"/>
		<path class="st9" d="M677.1,673l1.8-6.4c0.4-0.9,0-2-0.9-2.4c-0.3-0.1-0.6-0.2-1-0.1l-6.7-0.1L677.1,673z"/>
		<path class="st9" d="M632,704.8l0.5,6.6c-0.1,1,0.7,1.8,1.6,1.9c0.3,0,0.7,0,1-0.2l6.3-2.2L632,704.8z"/>
		<path class="st9" d="M671.5,665.1l-0.5-6.6c0.1-1-0.6-1.8-1.6-1.9c-0.3,0-0.7,0-1,0.2l-6.3,2.2L671.5,665.1z"/>
		<path class="st9" d="M639.9,710.3l2.8,6.1c0.3,0.9,1.3,1.5,2.2,1.2c0.3-0.1,0.6-0.3,0.8-0.5l5.2-4.2L639.9,710.3z"/>
		<path class="st9" d="M663.5,659.5l-2.8-6.1c-0.3-0.9-1.3-1.5-2.2-1.2c-0.3,0.1-0.6,0.3-0.8,0.5l-5.2,4.2L663.5,659.5z"/>
		<path class="st9" d="M649.3,712.8l4.7,4.8c0.6,0.8,1.7,1,2.5,0.4c0.3-0.2,0.5-0.5,0.6-0.8l3.4-5.7L649.3,712.8z"/>
		<path class="st9" d="M654.2,657l-4.7-4.7c-0.6-0.8-1.7-1-2.5-0.4c-0.3,0.2-0.5,0.5-0.6,0.8l-3.4,5.7L654.2,657z"/>
		<path class="st9" d="M659,712l6,2.9c0.8,0.6,1.9,0.3,2.5-0.5c0.2-0.3,0.3-0.6,0.3-0.9l1.3-6.5L659,712z"/>
		<path class="st9" d="M644.5,657.9l-6-2.9c-0.8-0.6-1.9-0.3-2.5,0.5c-0.2,0.3-0.3,0.6-0.3,0.9l-1.3,6.5L644.5,657.9z"/>
		<path class="st9" d="M672.1,663.3c11.8,11.2,12.4,29.8,1.2,41.6c-11.2,11.8-29.8,12.4-41.6,1.2c-11.8-11.2-12.4-29.8-1.2-41.6
			c0,0,0,0,0,0C641.6,652.7,660.3,652.2,672.1,663.3z"/>
		<path class="st29" d="M666.2,669.6c8.4,7.9,8.8,21.1,0.9,29.5s-21.1,8.8-29.5,0.9s-8.8-21.1-0.9-29.5c0,0,0,0,0,0
			C644.6,662.1,657.8,661.7,666.2,669.6z"/>
		<path class="st1" d="M658.6,679.6c2.9,3.8,2.2,9.3-1.6,12.2c-3.8,2.9-9.3,2.2-12.2-1.6c-2.9-3.8-2.2-9.3,1.6-12.2c0,0,0,0,0,0
			C650.2,675.1,655.7,675.8,658.6,679.6z"/>
		<path class="st29" d="M284.3,568l-11.2,1.4c-1.7-0.1-3,1.2-3.1,2.9c0,0.6,0.1,1.1,0.4,1.6l4.2,10.5L284.3,568z"/>
		<path class="st29" d="M354.5,631.7l11.2-1.4c1.7,0.1,3-1.2,3.1-2.9c0-0.6-0.1-1.1-0.4-1.6l-4.2-10.5L354.5,631.7z"/>
		<path class="st29" d="M275.5,582l-10,5.1c-1.6,0.5-2.4,2.2-1.9,3.8c0.2,0.5,0.5,1,0.9,1.4l7.5,8.4L275.5,582z"/>
		<path class="st29" d="M363.3,617.8l10-5.1c1.6-0.5,2.5-2.2,2-3.8c-0.2-0.6-0.5-1-1-1.4l-7.5-8.4L363.3,617.8z"/>
		<path class="st29" d="M272.1,598.1l-7.7,8.2c-1.3,1-1.5,2.9-0.5,4.2c0.4,0.4,0.8,0.8,1.4,1l9.9,5.4L272.1,598.1z"/>
		<path class="st29" d="M366.8,601.7l7.7-8.2c1.3-1,1.5-2.9,0.5-4.2c-0.4-0.5-0.8-0.8-1.4-1l-9.9-5.3L366.8,601.7z"/>
		<path class="st29" d="M274.3,614.4l-4.4,10.4c-0.9,1.4-0.5,3.3,1,4.1c0.5,0.3,1.1,0.5,1.6,0.5l11.1,1.6L274.3,614.4z"/>
		<path class="st29" d="M364.6,585.4L369,575c0.9-1.4,0.4-3.3-1-4.1c-0.5-0.3-1-0.5-1.6-0.4l-11.1-1.6L364.6,585.4z"/>
		<path class="st29" d="M282,628.9l-0.6,11.2c-0.3,1.6,0.7,3.2,2.3,3.6c0.6,0.1,1.2,0.1,1.7-0.1l11-2.3L282,628.9z"/>
		<path class="st29" d="M356.9,570.8l0.6-11.2c0.3-1.6-0.7-3.2-2.3-3.6c-0.6-0.1-1.2-0.1-1.7,0.1l-11,2.3L356.9,570.8z"/>
		<path class="st29" d="M294.2,640l3.3,10.8c0.2,1.6,1.7,2.8,3.4,2.6c0.6-0.1,1.1-0.3,1.5-0.7l9.6-5.9L294.2,640z"/>
		<path class="st29" d="M344.7,559.8l-3.3-10.8c-0.2-1.6-1.7-2.8-3.4-2.6c-0.6,0.1-1.1,0.3-1.5,0.7l-9.6,5.9L344.7,559.8z"/>
		<path class="st29" d="M309.4,646.3l6.8,9c0.8,1.5,2.6,2,4.1,1.2c0.5-0.3,0.9-0.7,1.2-1.2l7-8.8L309.4,646.3z"/>
		<path class="st29" d="M329.5,553.5l-6.8-9c-0.8-1.5-2.6-2-4.1-1.2c-0.5,0.3-0.9,0.7-1.2,1.2l-7,8.8L329.5,553.5z"/>
		<path class="st29" d="M325.9,646.8l9.5,6.1c1.2,1.1,3.1,1,4.2-0.2c0.4-0.4,0.7-1,0.8-1.6l3.5-10.7L325.9,646.8z"/>
		<path class="st29" d="M313,552.9l-9.5-6.1c-1.2-1.1-3.1-1-4.2,0.2c-0.4,0.4-0.7,1-0.8,1.6l-3.5,10.7L313,552.9z"/>
		<path class="st29" d="M341.5,641.8l11,2.5c1.5,0.6,3.3-0.1,3.9-1.7c0.2-0.5,0.3-1.1,0.2-1.7l-0.3-11.3L341.5,641.8z"/>
		<path class="st29" d="M297.3,557.9l-11-2.5c-1.5-0.6-3.3,0.1-3.9,1.7c-0.2,0.5-0.3,1.1-0.2,1.7l0.3,11.3L297.3,557.9z"/>
		<path class="st29" d="M345,556.7c23.7,14,31.5,44.6,17.5,68.2c-14,23.7-44.6,31.5-68.2,17.5c-23.7-14-31.5-44.5-17.5-68.2
			C290.7,550.6,321.3,542.7,345,556.7C345,556.7,345,556.7,345,556.7z"/>
		<path class="st9" d="M337.6,569.2c16.8,9.9,22.3,31.6,12.4,48.4c-9.9,16.8-31.6,22.3-48.4,12.4c-16.8-9.9-22.3-31.6-12.4-48.3
			C299.1,564.8,320.8,559.3,337.6,569.2C337.6,569.2,337.6,569.2,337.6,569.2z"/>
		<path class="st1" d="M332.5,584.1c8.7,7.2,9.9,20.2,2.7,28.9s-20.2,9.9-28.9,2.7c-8.7-7.2-9.9-20.2-2.7-28.9
			C310.9,578,323.8,576.8,332.5,584.1C332.5,584.1,332.5,584.1,332.5,584.1z"/>
		<path class="st30" d="M583.6,667.6c-19.9,0-36,16.1-36,36v95.9v41.7c0,19.9-16.1,36-36,36h174.5c19.9,0,36-16.1,36-36v-79.6v-58
			c0-19.9,16.1-36,36-36L583.6,667.6z"/>
		<path class="st31" d="M759.9,667.6H585.3c19.9,0,36,16.1,36,36v41.7v65.8c0,4,3.2,7.2,7.2,7.2h160.2c4,0,7.2-3.2,7.2-7.2V703.6
			C795.9,683.7,779.8,667.6,759.9,667.6C759.9,667.6,759.9,667.6,759.9,667.6z"/>
		<path class="st25" d="M695.6,697.4h27c0.7,0,1.2,0.5,1.2,1.2v4c0,0.7-0.5,1.2-1.2,1.2h-27c-0.7,0-1.2-0.5-1.2-1.2v-4
			C694.4,698,695,697.4,695.6,697.4z"/>
		<path class="st25" d="M729.9,697.4h9.1c0.7,0,1.2,0.5,1.2,1.2v4c0,0.7-0.5,1.2-1.2,1.2h-9.1c-0.7,0-1.2-0.5-1.2-1.2v-4
			C728.7,698,729.2,697.4,729.9,697.4z"/>
		<path class="st25" d="M637.1,697.4h51.2c0.7,0,1.2,0.5,1.2,1.2v4c0,0.7-0.5,1.2-1.2,1.2h-51.2c-0.7,0-1.2-0.5-1.2-1.2v-4
			C635.9,698,636.4,697.4,637.1,697.4z"/>
		<path class="st26" d="M674.9,712.3h23c0.7,0,1.2,0.5,1.2,1.2v4c0,0.7-0.5,1.2-1.2,1.2h-23c-0.7,0-1.2-0.5-1.2-1.2v-4
			C673.7,712.8,674.3,712.3,674.9,712.3z"/>
		<path class="st26" d="M705.2,712.3h26.7c0.7,0,1.2,0.5,1.2,1.2v4c0,0.7-0.5,1.2-1.2,1.2h-26.7c-0.7,0-1.2-0.5-1.2-1.2v-4
			C704,712.8,704.6,712.3,705.2,712.3z"/>
		<path class="st26" d="M637.1,712.3h30.5c0.7,0,1.2,0.5,1.2,1.2v4c0,0.7-0.5,1.2-1.2,1.2h-30.5c-0.7,0-1.2-0.5-1.2-1.2v-4
			C635.9,712.8,636.4,712.3,637.1,712.3z"/>
		<path class="st25" d="M684.5,727.1h29.8c0.7,0,1.2,0.5,1.2,1.2v4c0,0.7-0.5,1.2-1.2,1.2h-29.8c-0.7,0-1.2-0.5-1.2-1.2v-4
			C683.3,727.6,683.9,727.1,684.5,727.1z"/>
		<path class="st25" d="M721.6,727.1h38.5c0.7,0,1.2,0.5,1.2,1.2v4c0,0.7-0.5,1.2-1.2,1.2h-38.5c-0.7,0-1.2-0.5-1.2-1.2v-4
			C720.4,727.6,721,727.1,721.6,727.1z"/>
		<path class="st25" d="M637.1,727.1h40.1c0.7,0,1.2,0.5,1.2,1.2v4c0,0.7-0.5,1.2-1.2,1.2h-40.1c-0.7,0-1.2-0.5-1.2-1.2v-4
			C635.9,727.6,636.4,727.1,637.1,727.1z"/>
		<path class="st26" d="M656,741.9h43.1c0.7,0,1.2,0.5,1.2,1.2v4c0,0.7-0.5,1.2-1.2,1.2H656c-0.7,0-1.2-0.5-1.2-1.2v-4
			C654.8,742.5,655.3,741.9,656,741.9z"/>
		<path class="st26" d="M706.5,741.9h21.7c0.7,0,1.2,0.5,1.2,1.2v4c0,0.7-0.5,1.2-1.2,1.2h-21.7c-0.7,0-1.2-0.5-1.2-1.2v-4
			C705.2,742.5,705.8,741.9,706.5,741.9z"/>
		<path class="st26" d="M637.1,741.9h11.6c0.7,0,1.2,0.5,1.2,1.2v4c0,0.7-0.5,1.2-1.2,1.2h-11.6c-0.7,0-1.2-0.5-1.2-1.2v-4
			C635.9,742.5,636.4,741.9,637.1,741.9z"/>
		<path class="st25" d="M673.7,756.7h38.1c0.7,0,1.2,0.5,1.2,1.2v4c0,0.7-0.5,1.2-1.2,1.2h-38.1c-0.7,0-1.2-0.5-1.2-1.2v-4
			C672.5,757.3,673.1,756.7,673.7,756.7z"/>
		<path class="st25" d="M719.2,756.7h24.1c0.7,0,1.2,0.5,1.2,1.2v4c0,0.7-0.5,1.2-1.2,1.2h-24.1c-0.7,0-1.2-0.5-1.2-1.2v-4
			C718,757.3,718.5,756.7,719.2,756.7z"/>
		<path class="st25" d="M637.1,756.7h29.3c0.7,0,1.2,0.5,1.2,1.2v4c0,0.7-0.5,1.2-1.2,1.2h-29.3c-0.7,0-1.2-0.5-1.2-1.2v-4
			C635.9,757.3,636.4,756.7,637.1,756.7z"/>
		<path class="st26" d="M684.9,771.6h55.3c0.7,0,1.2,0.5,1.2,1.2v4c0,0.7-0.5,1.2-1.2,1.2h-55.3c-0.7,0-1.2-0.5-1.2-1.2v-4
			C683.7,772.1,684.2,771.6,684.9,771.6z"/>
		<path class="st26" d="M747.5,771.6h9.1c0.7,0,1.2,0.5,1.2,1.2v4c0,0.7-0.5,1.2-1.2,1.2h-9.1c-0.7,0-1.2-0.5-1.2-1.2v-4
			C746.3,772.1,746.8,771.6,747.5,771.6z"/>
		<path class="st26" d="M637.1,771.6h40.5c0.7,0,1.2,0.5,1.2,1.2v4c0,0.7-0.5,1.2-1.2,1.2h-40.5c-0.7,0-1.2-0.5-1.2-1.2v-4
			C635.9,772.1,636.4,771.6,637.1,771.6z"/>
		<path class="st26" d="M656,801.2h43.1c0.7,0,1.2,0.5,1.2,1.2v4c0,0.7-0.5,1.2-1.2,1.2H656c-0.7,0-1.2-0.5-1.2-1.2v-4
			C654.8,801.8,655.3,801.2,656,801.2z"/>
		<path class="st26" d="M706.5,801.2h21.7c0.7,0,1.2,0.5,1.2,1.2v4c0,0.7-0.5,1.2-1.2,1.2h-21.7c-0.7,0-1.2-0.5-1.2-1.2v-4
			C705.2,801.8,705.8,801.2,706.5,801.2z"/>
		<path class="st26" d="M637.1,801.2h11.6c0.7,0,1.2,0.5,1.2,1.2v4c0,0.7-0.5,1.2-1.2,1.2h-11.6c-0.7,0-1.2-0.5-1.2-1.2v-4
			C635.9,801.8,636.4,801.2,637.1,801.2z"/>
		<path class="st25" d="M673.7,786.4h38.1c0.7,0,1.2,0.5,1.2,1.2v4c0,0.7-0.5,1.2-1.2,1.2h-38.1c-0.7,0-1.2-0.5-1.2-1.2v-4
			C672.5,786.9,673.1,786.4,673.7,786.4z"/>
		<path class="st25" d="M719.2,786.4h24.1c0.7,0,1.2,0.5,1.2,1.2v4c0,0.7-0.5,1.2-1.2,1.2h-24.1c-0.7,0-1.2-0.5-1.2-1.2v-4
			C718,786.9,718.5,786.4,719.2,786.4z"/>
		<path class="st25" d="M637.1,786.4h29.3c0.7,0,1.2,0.5,1.2,1.2v4c0,0.7-0.5,1.2-1.2,1.2h-29.3c-0.7,0-1.2-0.5-1.2-1.2v-4
			C635.9,786.9,636.4,786.4,637.1,786.4z"/>
		<path class="st32" d="M884.5,619.5H742.7c-2.6,0-4.8,2.1-4.8,4.8v121.2c0,1.6,0.8,3.1,2.2,4c0.8,0.5,1.7,0.8,2.6,0.8h141.8
			c0.9,0,1.9-0.3,2.6-0.8c0.5-0.3,1-0.8,1.3-1.3c0.5-0.8,0.8-1.7,0.8-2.6V624.3C889.3,621.7,887.1,619.6,884.5,619.5z"/>
		<g>
			<rect x="743.6" y="683.4" class="st33" width="2.9" height="1.1"/>
			<rect x="750.3" y="683.4" class="st33" width="5.8" height="1.1"/>
			<rect x="759.9" y="683.4" class="st33" width="5.8" height="1.1"/>
			<polygon class="st33" points="772.4,683.4 769.5,683.4 769.5,684.5 772.4,684.5 775.3,684.5 775.3,684.5 775.3,683.4 
				775.3,683.4 			"/>
			<polygon class="st33" points="817.4,683.4 817.4,683.4 817.4,684.5 817.4,684.5 823.2,684.5 823.2,684.5 823.2,683.4 
				823.2,683.4 			"/>
			<polygon class="st33" points="798.3,683.4 798.2,683.4 798.2,684.5 798.3,684.5 804,684.5 804,684.5 804,683.4 804,683.4 			"/>
			<polygon class="st33" points="807.8,683.4 807.8,683.4 807.8,684.5 807.8,684.5 813.6,684.5 813.6,684.5 813.6,683.4 
				813.6,683.4 			"/>
			<polygon class="st33" points="788.7,683.4 788.7,683.4 788.7,684.5 788.7,684.5 794.4,684.5 794.4,684.5 794.4,683.4 
				794.4,683.4 			"/>
			<polygon class="st33" points="779.1,683.4 779.1,683.4 779.1,684.5 779.1,684.5 784.8,684.5 784.8,684.5 784.8,683.4 
				784.8,683.4 			"/>
			<polygon class="st33" points="836.6,683.4 836.6,683.4 836.6,684.5 836.6,684.5 842.3,684.5 842.3,684.5 842.3,683.4 
				842.3,683.4 			"/>
			<rect x="855.7" y="683.4" class="st33" width="5.8" height="1.1"/>
			<polygon class="st33" points="827,683.4 827,683.4 827,684.5 827,684.5 832.8,684.5 832.8,684.5 832.8,683.4 832.8,683.4 			"/>
			<rect x="865.3" y="683.4" class="st33" width="5.8" height="1.1"/>
			<polygon class="st33" points="846.2,683.4 846.2,683.4 846.2,684.5 846.2,684.5 849,684.5 851.9,684.5 851.9,683.4 849,683.4 			
				"/>
			<rect x="874.9" y="683.4" class="st33" width="2.9" height="1.1"/>
		</g>
		<g>
			<rect x="743.6" y="703.6" class="st33" width="2.9" height="1.1"/>
			<rect x="750.3" y="703.6" class="st33" width="5.8" height="1.1"/>
			<rect x="759.9" y="703.6" class="st33" width="5.8" height="1.1"/>
			<polygon class="st33" points="772.4,703.6 769.5,703.6 769.5,704.7 772.4,704.7 775.3,704.7 775.3,704.7 775.3,703.6 
				775.3,703.6 			"/>
			<polygon class="st33" points="817.4,703.6 817.4,703.6 817.4,704.7 817.4,704.7 823.2,704.7 823.2,704.7 823.2,703.6 
				823.2,703.6 			"/>
			<polygon class="st33" points="798.3,703.6 798.2,703.6 798.2,704.7 798.3,704.7 804,704.7 804,704.7 804,703.6 804,703.6 			"/>
			<polygon class="st33" points="807.8,703.6 807.8,703.6 807.8,704.7 807.8,704.7 813.6,704.7 813.6,704.7 813.6,703.6 
				813.6,703.6 			"/>
			<polygon class="st33" points="788.7,703.6 788.7,703.6 788.7,704.7 788.7,704.7 794.4,704.7 794.4,704.7 794.4,703.6 
				794.4,703.6 			"/>
			<polygon class="st33" points="779.1,703.6 779.1,703.6 779.1,704.7 779.1,704.7 784.8,704.7 784.8,704.7 784.8,703.6 
				784.8,703.6 			"/>
			<polygon class="st33" points="836.6,703.6 836.6,703.6 836.6,704.7 836.6,704.7 842.3,704.7 842.3,704.7 842.3,703.6 
				842.3,703.6 			"/>
			<rect x="855.7" y="703.6" class="st33" width="5.8" height="1.1"/>
			<polygon class="st33" points="827,703.6 827,703.6 827,704.7 827,704.7 832.8,704.7 832.8,704.7 832.8,703.6 832.8,703.6 			"/>
			<rect x="865.3" y="703.6" class="st33" width="5.8" height="1.1"/>
			<polygon class="st33" points="846.2,703.6 846.2,703.6 846.2,704.7 846.2,704.7 849,704.7 851.9,704.7 851.9,703.6 849,703.6 			
				"/>
			<rect x="874.9" y="703.6" class="st33" width="2.9" height="1.1"/>
		</g>
		<g>
			<rect x="743.6" y="723.8" class="st33" width="2.9" height="1.1"/>
			<rect x="750.3" y="723.8" class="st33" width="5.8" height="1.1"/>
			<rect x="759.9" y="723.8" class="st33" width="5.8" height="1.1"/>
			<polygon class="st33" points="772.4,723.8 769.5,723.8 769.5,725 772.4,725 775.3,725 775.3,725 775.3,723.8 775.3,723.8 			"/>
			<polygon class="st33" points="817.4,723.8 817.4,723.8 817.4,725 817.4,725 823.2,725 823.2,725 823.2,723.8 823.2,723.8 			"/>
			<polygon class="st33" points="798.3,723.8 798.2,723.8 798.2,725 798.3,725 804,725 804,725 804,723.8 804,723.8 			"/>
			<polygon class="st33" points="807.8,723.8 807.8,723.8 807.8,725 807.8,725 813.6,725 813.6,725 813.6,723.8 813.6,723.8 			"/>
			<polygon class="st33" points="788.7,723.8 788.7,723.8 788.7,725 788.7,725 794.4,725 794.4,725 794.4,723.8 794.4,723.8 			"/>
			<polygon class="st33" points="779.1,723.8 779.1,723.8 779.1,725 779.1,725 784.8,725 784.8,725 784.8,723.8 784.8,723.8 			"/>
			<polygon class="st33" points="836.6,723.8 836.6,723.8 836.6,725 836.6,725 842.3,725 842.3,725 842.3,723.8 842.3,723.8 			"/>
			<rect x="855.7" y="723.8" class="st33" width="5.8" height="1.1"/>
			<polygon class="st33" points="827,723.8 827,723.8 827,725 827,725 832.8,725 832.8,725 832.8,723.8 832.8,723.8 			"/>
			<rect x="865.3" y="723.8" class="st33" width="5.8" height="1.1"/>
			<polygon class="st33" points="846.2,723.8 846.2,723.8 846.2,725 846.2,725 849,725 851.9,725 851.9,723.8 849,723.8 			"/>
			<rect x="874.9" y="723.8" class="st33" width="2.9" height="1.1"/>
		</g>
		<path class="st34" d="M780,711.2h29.8c0.6,0,1.2,0.5,1.2,1.1v3.9c0,0.6-0.5,1.1-1.2,1.1H780c-0.6,0-1.2-0.5-1.2-1.1v-3.9
			C778.8,711.7,779.4,711.2,780,711.2z"/>
		<path class="st34" d="M814.2,711.2h12.3c0.6,0,1.2,0.5,1.2,1.1v3.9c0,0.6-0.5,1.1-1.2,1.1h-12.3c-0.6,0-1.2-0.5-1.2-1.1v-3.9
			C813,711.7,813.5,711.2,814.2,711.2z"/>
		<path class="st34" d="M762.4,711.2h13.2c0.6,0,1.2,0.5,1.2,1.1v3.9c0,0.6-0.5,1.1-1.2,1.1h-13.2c-0.6,0-1.2-0.5-1.2-1.1v-3.9
			C761.3,711.7,761.8,711.2,762.4,711.2z"/>
		<path class="st34" d="M796.6,691h14.2c0.6,0,1.2,0.5,1.2,1.1v3.9c0,0.6-0.5,1.1-1.2,1.1h-14.2c-0.6,0-1.2-0.5-1.2-1.1v-3.9
			C795.5,691.5,796,691,796.6,691z"/>
		<path class="st34" d="M762.4,691h29.8c0.6,0,1.2,0.5,1.2,1.1v3.9c0,0.6-0.5,1.1-1.2,1.1h-29.8c-0.6,0-1.2-0.5-1.2-1.1v-3.9
			C761.3,691.5,761.8,691,762.4,691z"/>
		<path class="st34" d="M762.4,731.5h22c0.6,0,1.2,0.5,1.2,1.2v3.8c0,0.6-0.5,1.2-1.2,1.2h-22c-0.6,0-1.2-0.5-1.2-1.2v-3.8
			C761.3,732,761.8,731.5,762.4,731.5z"/>
		<path class="st34" d="M788.8,731.5h8.2c0.6,0,1.2,0.5,1.2,1.2v3.8c0,0.6-0.5,1.2-1.2,1.2h-8.2c-0.6,0-1.2-0.5-1.2-1.2v-3.8
			C787.7,732,788.2,731.5,788.8,731.5z"/>
		<path class="st34" d="M773.3,670.7h26.3c0.6,0,1.2,0.5,1.2,1.2v3.8c0,0.6-0.5,1.2-1.2,1.2h-26.3c-0.6,0-1.2-0.5-1.2-1.2v-3.8
			C772.1,671.3,772.6,670.7,773.3,670.7z"/>
		<path class="st34" d="M762.4,670.7h6.4c0.6,0,1.2,0.5,1.2,1.2v3.8c0,0.6-0.5,1.2-1.2,1.2h-6.4c-0.6,0-1.2-0.5-1.2-1.2v-3.8
			C761.3,671.3,761.8,670.7,762.4,670.7z"/>
		<g class="st35">
			<path class="st1" d="M871.6,738c-0.2,0-0.4-0.1-0.5-0.2l-5.5-5.5c-0.3-0.3-0.3-0.8,0-1.1c0,0,0,0,0,0c0.3-0.3,0.8-0.3,1.1,0
				c0,0,0,0,0,0l5.5,5.5c0.3,0.3,0.3,0.8,0,1.1c0,0,0,0,0,0C872,738,871.8,738,871.6,738z"/>
			<path class="st1" d="M866.1,738c-0.2,0-0.4-0.1-0.5-0.2c-0.3-0.3-0.3-0.8,0-1.1c0,0,0,0,0,0l5.4-5.5c0.3-0.3,0.8-0.3,1.1,0
				s0.3,0.8,0,1.1l-5.5,5.5C866.5,738,866.3,738,866.1,738z"/>
		</g>
		<g class="st35">
			<path class="st1" d="M871.6,717.8c-0.2,0-0.4-0.1-0.5-0.2l-5.5-5.5c-0.3-0.3-0.3-0.8,0-1.1c0,0,0,0,0,0c0.3-0.3,0.8-0.3,1.1,0
				c0,0,0,0,0,0l5.5,5.5c0.3,0.3,0.3,0.8,0,1.1c0,0,0,0,0,0C872,717.7,871.8,717.8,871.6,717.8z"/>
			<path class="st1" d="M866.1,717.8c-0.2,0-0.4-0.1-0.5-0.2c-0.3-0.3-0.3-0.8,0-1.1c0,0,0,0,0,0l5.5-5.5c0.3-0.3,0.8-0.3,1.1,0
				c0.3,0.3,0.3,0.8,0,1.1l0,0l-5.5,5.5C866.5,717.7,866.3,717.8,866.1,717.8z"/>
		</g>
		<g class="st35">
			<path class="st1" d="M871.6,697.6c-0.2,0-0.4-0.1-0.5-0.2l-5.5-5.5c-0.3-0.3-0.3-0.8,0-1.1c0,0,0,0,0,0c0.3-0.3,0.8-0.3,1.1,0
				c0,0,0,0,0,0l5.5,5.5c0.3,0.3,0.3,0.8,0,1.1c0,0,0,0,0,0C872,697.5,871.8,697.6,871.6,697.6z"/>
			<path class="st1" d="M866.1,697.6c-0.2,0-0.4-0.1-0.5-0.2c-0.3-0.3-0.3-0.8,0-1.1c0,0,0,0,0,0l5.5-5.5c0.3-0.3,0.8-0.3,1.1,0
				c0.3,0.3,0.3,0.8,0,1.1l-5.5,5.5C866.5,697.5,866.3,697.6,866.1,697.6z"/>
		</g>
		<g class="st35">
			<path class="st1" d="M871.6,677.3c-0.2,0-0.4-0.1-0.5-0.2l-5.5-5.5c-0.3-0.3-0.3-0.8,0-1.1c0,0,0,0,0,0c0.3-0.3,0.8-0.3,1.1,0
				c0,0,0,0,0,0l5.5,5.5c0.3,0.3,0.3,0.8,0,1.1c0,0,0,0,0,0C872,677.2,871.8,677.3,871.6,677.3z"/>
			<path class="st1" d="M866.1,677.3c-0.2,0-0.4-0.1-0.5-0.2c-0.3-0.3-0.3-0.8,0-1.1c0,0,0,0,0,0l5.5-5.5c0.3-0.3,0.8-0.3,1.1,0
				c0.3,0.3,0.3,0.8,0,1.1l-5.5,5.5C866.5,677.2,866.3,677.3,866.1,677.3z"/>
		</g>
		<path class="st9" d="M756.3,673.8c0,2.5-2,4.5-4.5,4.5c-2.5,0-4.5-2-4.5-4.5c0-2.5,2-4.5,4.5-4.5c0,0,0,0,0,0
			C754.3,669.3,756.3,671.3,756.3,673.8C756.3,673.8,756.3,673.8,756.3,673.8z"/>
		<path class="st1" d="M755,671.6l-0.2-0.2c-0.2-0.2-0.6-0.2-0.9,0l-2.9,2.9l-1.4-1.4c-0.2-0.2-0.6-0.2-0.9,0l-0.2,0.2
			c-0.2,0.2-0.2,0.6,0,0.9l2.5,2.5l3.9-3.9C755.2,672.2,755.2,671.8,755,671.6z"/>
		<path class="st9" d="M756.3,694.1c0,2.5-2,4.5-4.5,4.5c-2.5,0-4.5-2-4.5-4.5c0-2.5,2-4.5,4.5-4.5c0,0,0,0,0,0
			C754.3,689.6,756.3,691.6,756.3,694.1C756.3,694.1,756.3,694.1,756.3,694.1z"/>
		<path class="st1" d="M755,691.8l-0.2-0.1c-0.2-0.2-0.6-0.2-0.9,0l-2.9,2.9l-1.4-1.4c-0.2-0.2-0.6-0.2-0.9,0l-0.2,0.2
			c-0.2,0.2-0.2,0.6,0,0.9l2.5,2.5l3.9-3.9C755.2,692.5,755.2,692.1,755,691.8z"/>
		<circle class="st9" cx="751.8" cy="714.3" r="4.5"/>
		<path class="st1" d="M755,712.1l-0.2-0.1c-0.2-0.2-0.6-0.2-0.9,0l-2.9,2.9l-1.4-1.4c-0.2-0.2-0.6-0.2-0.9,0l-0.2,0.2
			c-0.2,0.2-0.2,0.6,0,0.9l2.5,2.5l3.9-3.9C755.2,712.7,755.2,712.3,755,712.1z"/>
		<path class="st9" d="M756.3,734.5c0,2.5-2,4.5-4.5,4.5c-2.5,0-4.5-2-4.5-4.5c0-2.5,2-4.5,4.5-4.5c0,0,0,0,0,0
			C754.3,730,756.3,732.1,756.3,734.5z"/>
		<path class="st1" d="M755,732.3l-0.2-0.2c-0.2-0.2-0.6-0.2-0.9,0l-2.9,2.9l-1.4-1.4c-0.2-0.2-0.6-0.2-0.9,0l-0.2,0.2
			c-0.2,0.2-0.2,0.6,0,0.9l2.5,2.5l3.9-3.9C755.2,732.9,755.2,732.6,755,732.3z"/>
		
			<image style="overflow:visible;enable-background:new    ;" width="145" height="42" xlink:href="A29BD287E4DD1F16.png"  transform="matrix(1 0 0 1 738 623.2599)">
		</image>
		<rect x="743" y="627.9" class="st9" width="135.4" height="32.4"/>
		<rect x="746.6" y="631.4" class="st36" width="99.1" height="25.2"/>
		<rect x="849.4" y="631.4" class="st37" width="25.7" height="25.2"/>
		<path class="st1" d="M870.1,651.3l-2.9-3.6c2.8-3.1,2.5-7.9-0.7-10.7s-7.9-2.5-10.7,0.7c-2.8,3.1-2.5,7.9,0.7,10.7
			c2.5,2.2,6.1,2.5,9,0.8l2.8,3.6c0.4,0.5,1.1,0.5,1.6,0.1C870.4,652.4,870.5,651.7,870.1,651.3L870.1,651.3z M856.3,642.6
			c0-2.9,2.4-5.3,5.3-5.3c2.9,0,5.3,2.4,5.3,5.3s-2.4,5.3-5.3,5.3C858.7,647.9,856.3,645.6,856.3,642.6
			C856.3,642.6,856.3,642.6,856.3,642.6L856.3,642.6z"/>
		<rect x="752.5" y="650.1" class="st37" width="3.9" height="3.6"/>
		<rect x="762.9" y="650.1" class="st37" width="3.9" height="3.6"/>
		<rect x="773.3" y="650.1" class="st37" width="3.9" height="3.6"/>
		<rect x="783.8" y="650.1" class="st37" width="3.9" height="3.6"/>
		<rect x="794.2" y="650.1" class="st37" width="3.9" height="3.6"/>
		<rect x="804.6" y="650.1" class="st37" width="3.9" height="3.6"/>
		<rect x="815.1" y="650.1" class="st37" width="3.9" height="3.6"/>
		<rect x="825.5" y="650.1" class="st37" width="3.9" height="3.6"/>
		<rect x="835.9" y="650.1" class="st37" width="3.9" height="3.6"/>
		<path class="st38" d="M935.1,890.9c0-0.3,0.1-0.7,0.1-1c0.5-2.8,2.1-2.2,3.2-1.8c0.2,0.1,0.9,0.2,1.8,0.5c1-0.2,1.6-0.4,1.8-0.5
			c1.1-0.3,2.7-0.9,3.2,1.8c0.1,0.3,0.1,0.7,0.1,1c0.2,3.9,0.4,5.1,0.4,5.1s-2.4,0-5.5,0s-5.5,0-5.5,0S934.9,894.8,935.1,890.9z"/>
		<path class="st39" d="M915.2,751.3c0,0,4.3,49.7,5.5,59.6s20.5,10.7,25-2.6s10.6-33.2,8.1-53.9c-1.6-13-3.5-13.7-13.4-20.8
			S914,737.9,915.2,751.3z"/>
		<path class="st39" d="M920,806.2c2.4,15.2,18,84.3,18,84.3s0.4,0.6,2.2,0.2s2-1.5,2-1.5s-0.9-9.8,0.3-16.9s3.7-39.8,4.2-48.5
			s-0.8-27-10.8-26.7S919.8,804.4,920,806.2z"/>
		<path class="st38" d="M866.8,892.3c0,0,14.8-3.8,15.9-4.2s3.1-1.1,3.3,2.9s0.4,5.2,0.4,5.2s-17.2,0-19-0.2S864,894.3,866.8,892.3z
			"/>
		<path class="st39" d="M890.4,752.4c0,0-15.7,40.7-18.8,50.2s8.8,23.2,18.5,13.2s27.9-29,32.7-41.2s5.6-22.7-0.4-33.4
			S893.6,743.8,890.4,752.4z"/>
		<path class="st39" d="M871.2,808c1.4,15.3,1.2,16,2.3,25.5c1.7,14.7,6.6,55.8,6.6,55.8s0.2,1,2.3,1.5c0.8,0.1,1.5-0.1,2.1-0.7
			c0,0-0.3-10.5,1.4-17.5s7.6-42,8.7-50.8s-0.5-24.4-10.5-24.8S870.6,802,871.2,808z"/>
		<path class="st9" d="M886.4,760.2c-1.2,6.7-13.6,37.2-14.5,40c-1.1,3.1-1.6,6.4-1.4,9.6c0.4,3.7,0.6,7.4,0.6,7.4s2.8,5.6,18.7,5.6
			s32.6-2.3,45.5-4.4s12.7-3.6,12.7-3.6l-1.3-5.6c0,0,6.6-16.2,8.5-33.2s-0.3-26.1-5.4-34.2S892.7,724.3,886.4,760.2z"/>
		<path class="st39" d="M956.8,752.1c-0.1,2.1,0.1,4.3,1.3,4.7c1.9,0.5,1.5-2.6,3.5-5.7c1.3-2-1.8-5.3-1.8-5.3
			S956.9,748.8,956.8,752.1z"/>
		<path class="st39" d="M940.7,706.9c1.8,13.4,15.8,30.2,18.4,39.3c1.2,4,0.2,12.3,4.5,12.7c2.7,0.4,9-1.9,8.7-4.9
			c-0.3-2.3-5-9.5-8.3-9.4c-2.2-2.5-10.2-28.5-13.2-36.5c-1.3-3.6-3.5-8.4-6.3-8.1C940.2,700.5,939.8,702.4,940.7,706.9z"/>
		<path class="st39" d="M826.6,708.6c-1.8-1.2-3.7-2.3-4.6-1.4c-1.5,1.3,1.4,2.7,2.9,6c1,2.2,5.5,1.4,5.5,1.4
			S829.2,710.5,826.6,708.6z"/>
		<path class="st39" d="M869,721.4c-11.9-6.5-30-4.3-38.9-7.5c-3.9-1.4-8.8-6.3-13.7-3c-3.7,2.5-3.2,9.7-0.9,7.8
			c3.9-3.3,7.4,5.1,13,0.1c3.3-0.2,25.3,7.7,33.5,10c3.7,1.1,8.8,2.1,10.2-0.3C874.4,724.8,873.1,723.4,869,721.4z"/>
		<path class="st39" d="M903,671.7c-1.3-3.9-1.7-6-3.1-9.4c-12.2,0.4-15.7-7.6-17-12.5c-0.3,4.2-0.1,8.4,0.5,12.6
			c1,5.4,1.5,7.3,7.1,6c0.7,3.8,0.5,4.4,1.1,7.2c0.9,4.6,3.3,5.8,5.5,5.7S905.8,679.9,903,671.7z"/>
		<path class="st40" d="M879.7,689.7c-0.1-8,0.2-13.4,12.8-17.2c3.7-1.1,6.6-1.5,10.2-2.4c12.3-3,18.7,2.6,25.2,14.8
			c16.5,30.8,26.5,65,26.5,65s-6.2,7.3-36.2,11.2c-24.7,3.2-32-1.1-32-1.1S880,706.1,879.7,689.7z"/>
		<path class="st39" d="M880.4,720.7c0,0-6.2,6.7-9.2,8.7c-2.2,1.5-6.4,0.2-7.6-1.8s2.1-9.6,6.8-14.9
			C874,708.7,880.7,719.6,880.4,720.7z"/>
		<path class="st41" d="M897.2,696.3c-5,18.9-17.9,32-17.9,32c-3.7-0.3-7.2-1.8-9.9-4.4c-4.4-4-5-7.2-5-7.2s8.8-15.4,12.6-28
			c1.1-3.5,5.1-14.3,10.6-12.8C894.3,677.8,900.5,683.7,897.2,696.3z"/>
		<path class="st39" d="M940.2,691.7c0,0,5.8,7.1,7.4,10.3c1.2,2.3-0.7,6.4-2.8,7.2c-2.1,0.8-9.2-3.4-13.8-8.8
			C927.5,696.4,939.2,691.3,940.2,691.7z"/>
		<path class="st41" d="M918.3,671.7c18.1,7.5,29.3,22.2,29.3,22.2c-0.8,3.6-2.8,6.9-5.7,9.2c-4.6,3.8-7.8,4-7.8,4
			s-14.1-10.8-26-16.3c-3.4-1.5-13.5-7-11.2-12.3C899.6,672,906.4,666.7,918.3,671.7z"/>
		<path class="st9" d="M892.2,673c0.9-12.1-5.4-14.2-6.3-15.1c-1.7-1.7-4.8-3.8-4.2-8c0.8-5.5,2-12.4,13.5-14.3
			c9.6-1.6,18.5,7.5,26.3,25.2c3.5,8,18.2,2.8,30.3,18.6c7.5,9.7,7.9,28.9-10,41c-10,6.8-46,13.8-52.7-18.1
			C887.5,694.3,891.9,676.7,892.2,673z"/>
		<path class="st39" d="M891.1,656.7c1,1.1,0.5,3.2-1.2,4.7c-1.6,1.5-3.8,1.8-4.8,0.7s-0.5-3.2,1.2-4.7S890.1,655.6,891.1,656.7z"/>
		<path class="st9" d="M304.9,645.3l-11.9,0.2l-1.1-21.1l14.8-0.3C306.2,629.6,305.4,639.4,304.9,645.3z"/>
		<path class="st21" d="M150.6,724.9c-5.1,5.3-5,13.8,0.3,19l2.8,2.7c5.3,5.1,13.8,5,19-0.3l114.6-116.9c5.1-5.3,5-13.8-0.3-19
			l-2.7-2.7c-5.3-5.1-13.8-5-19,0.3L150.6,724.9z"/>
		
			<linearGradient id="SVGID_6_" gradientUnits="userSpaceOnUse" x1="-4054.5906" y1="2990.9749" x2="-4054.5906" y2="2632.7949" gradientTransform="matrix(-0.72 -0.69 0.69 -0.72 -4680.708 -54.0571)">
			<stop  offset="0" style="stop-color:#FFFFFF"/>
			<stop  offset="1" style="stop-color:#C1C1C1"/>
		</linearGradient>
		<path class="st42" d="M174.8,712.3c-2.3,2.3-2.2,6.1,0.1,8.3l1.2,1.2c2.3,2.3,6.1,2.2,8.4-0.1l77.9-78.9c2.3-2.3,2.2-6.1-0.1-8.3
			l-1.2-1.1c-2.3-2.3-6.1-2.2-8.3,0.1L174.8,712.3z"/>
		<path class="st18" d="M303.6,621.6l36.4-0.6c-7.4,14.5-21.5,24.2-37.7,25.9l-0.4-25.5C302.4,621.5,303,621.6,303.6,621.6z"/>
		<path class="st21" d="M332.4,564.8c4.2,4,7.6,8.8,10.1,14.1l-37.8,0.7c-3.6,0.1-6.4,3-6.3,6.6l0.5,26.9l0,0l0.6,34.1
			c-26.4,0.2-48-21.1-48.2-47.6c-0.2-26.4,21.1-48,47.6-48.2C311.3,551.3,323.4,556.1,332.4,564.8L332.4,564.8z"/>
		<g>
			
				<linearGradient id="SVGID_7_" gradientUnits="userSpaceOnUse" x1="-3584.4351" y1="1955.5184" x2="-3637.175" y2="1840.6785" gradientTransform="matrix(-0.93 -0.37 0.37 -0.93 -3772.0728 1051.4633)">
				<stop  offset="0" style="stop-color:#FFFFFF"/>
				<stop  offset="1" style="stop-color:#C1C1C1"/>
			</linearGradient>
			<path class="st43" d="M285.5,638.7c0.1,0.1,0.3,0.2,0.4,0.3c2,0.7,4,1.2,6,1.5c0.6,0.1,1.2-0.4,1.3-1c0.1-0.6-0.3-1.1-0.9-1.2
				c-1.9-0.3-3.8-0.8-5.7-1.4c-0.6-0.2-1.2,0.1-1.4,0.7c0,0,0,0,0,0C285,637.9,285.1,638.4,285.5,638.7z"/>
			
				<linearGradient id="SVGID_8_" gradientUnits="userSpaceOnUse" x1="-3570.801" y1="1949.2615" x2="-3623.541" y2="1834.4215" gradientTransform="matrix(-0.93 -0.37 0.37 -0.93 -3772.0728 1051.4633)">
				<stop  offset="0" style="stop-color:#FFFFFF"/>
				<stop  offset="1" style="stop-color:#C1C1C1"/>
			</linearGradient>
			<path class="st44" d="M270.1,629.1l0.5,0.5c2.7,2.6,5.8,4.8,9.1,6.5c0.6,0.2,1.3-0.1,1.5-0.7c0.2-0.5,0-1-0.4-1.3
				c-3.1-1.7-6.1-3.7-8.6-6.2c-0.1-0.1-0.3-0.3-0.4-0.4c-15.5-15-16.1-39.7-1.4-55.5c3.9-4.1,8.6-7.4,13.8-9.5
				c0.6-0.3,0.8-1,0.5-1.5c-0.3-0.5-0.8-0.7-1.4-0.6c-5.6,2.3-10.5,5.7-14.6,10.1C253.1,587.1,253.7,613.2,270.1,629.1z"/>
			
				<linearGradient id="SVGID_9_" gradientUnits="userSpaceOnUse" x1="-3592.9058" y1="1959.4091" x2="-3645.6458" y2="1844.5691" gradientTransform="matrix(-0.93 -0.37 0.37 -0.93 -3772.0728 1051.4633)">
				<stop  offset="0" style="stop-color:#FFFFFF"/>
				<stop  offset="1" style="stop-color:#C1C1C1"/>
			</linearGradient>
			<path class="st45" d="M290.9,559.6c0.2,0.2,0.6,0.4,0.9,0.3c1.7-0.2,3.4-0.3,5.1-0.3c0.6,0.1,1.2-0.4,1.3-1
				c0.1-0.6-0.4-1.2-1-1.3c-0.1,0-0.1,0-0.2,0c-1.8,0-3.6,0.1-5.4,0.3c-0.6,0.1-1.1,0.6-1,1.3C290.5,559.2,290.7,559.4,290.9,559.6z
				"/>
			
				<linearGradient id="SVGID_10_" gradientUnits="userSpaceOnUse" x1="-3586.2104" y1="1956.3335" x2="-3638.9504" y2="1841.4935" gradientTransform="matrix(-0.93 -0.37 0.37 -0.93 -3772.0728 1051.4633)">
				<stop  offset="0" style="stop-color:#FFFFFF"/>
				<stop  offset="1" style="stop-color:#C1C1C1"/>
			</linearGradient>
			<path class="st46" d="M288.7,628.1c0.2,0.2,0.5,0.3,0.8,0.3c0.6,0,1.1-0.5,1.1-1.2l-1-56c0.1-0.6-0.4-1.2-1-1.3
				c-0.6-0.1-1.2,0.4-1.3,1c0,0.1,0,0.1,0,0.2l1,56C288.4,627.6,288.5,627.9,288.7,628.1z"/>
			
				<linearGradient id="SVGID_11_" gradientUnits="userSpaceOnUse" x1="-3576.5999" y1="1951.9185" x2="-3629.3398" y2="1837.0785" gradientTransform="matrix(-0.93 -0.37 0.37 -0.93 -3772.0728 1051.4633)">
				<stop  offset="0" style="stop-color:#FFFFFF"/>
				<stop  offset="1" style="stop-color:#C1C1C1"/>
			</linearGradient>
			<path class="st47" d="M278,620.2c0.2,0.2,0.5,0.3,0.8,0.3c0.6,0,1.1-0.5,1.1-1.2c0,0,0,0,0,0l-0.7-39.7c-0.1-0.6-0.6-1.1-1.3-1
				c-0.6,0.1-1,0.5-1,1l0.7,39.7C277.6,619.6,277.8,620,278,620.2z"/>
			
				<linearGradient id="SVGID_12_" gradientUnits="userSpaceOnUse" x1="-3567.1482" y1="1947.5759" x2="-3619.8882" y2="1832.746" gradientTransform="matrix(-0.93 -0.37 0.37 -0.93 -3772.0728 1051.4633)">
				<stop  offset="0" style="stop-color:#FFFFFF"/>
				<stop  offset="1" style="stop-color:#C1C1C1"/>
			</linearGradient>
			<path class="st48" d="M267.4,610.9c0.2,0.2,0.5,0.3,0.8,0.3c0.6,0,1.1-0.5,1.1-1.2l-0.4-20.9c0-0.6-0.5-1.1-1.2-1.1
				c-0.6,0-1.1,0.5-1.1,1.2c0,0,0,0,0,0l0.4,20.9C267.1,610.4,267.2,610.7,267.4,610.9z"/>
		</g>
		<path class="st9" d="M155.3,730.9c1.6-4.1,6.3-6.1,10.4-4.5c4.1,1.6,6.1,6.3,4.5,10.4c-1.6,4.1-6.2,6.1-10.3,4.5
			C155.7,739.8,153.7,735.1,155.3,730.9C155.3,731,155.3,731,155.3,730.9z"/>
		<path class="st10" d="M173.7,709.3c0.8-1.5,3.7-6,4.9-5.4c2.9,1.5-0.1,3.3,0.2,7.3c0.2,2.7-6.6,5-6.6,5
			C172.2,713.9,172.7,711.5,173.7,709.3z"/>
		<path class="st10" d="M120.6,719.6c12.8-4.7,46.2-2.9,51.8-5.8c3.7-2,2.8-6.1,10.7-7.2c3.8-0.6,9.4,8.5,6.8,11.4
			c-5.9,6.6-11.1,5.7-16,1.8c-3.6-0.6-35.8,8.6-45,10.5c-4.2,0.8-10.5,1.7-11.8-1.1C115,724.7,115.8,721.3,120.6,719.6z"/>
		<path class="st10" d="M108.5,714.1c0,0,6.3,12.1,8.9,15.4c1.8,2.3,4.8-0.5,6.7-2.1s1-11-2.2-18.3
			C119.5,703.4,108.7,712.9,108.5,714.1z"/>
		<path class="st11" d="M93.1,684.9c2.8,11,16.6,36.8,16.6,36.8s3.6,1,10.6-1.4c10.5-3.6,12.9-7.8,12.9-7.8s-4.5-15.8-10.5-32.1
			c-3.7-10.1-10.6-21.3-23-13.5C91.7,671.9,91.6,678.8,93.1,684.9z"/>
		<rect x="376.6" y="238.7" class="st21" width="94.2" height="126.9"/>
		<rect x="385" y="249.8" class="st1" width="10.8" height="10.8"/>
		<polygon class="st9" points="390.3,259.1 384.7,253.5 386.4,251.8 390.3,255.8 398.8,247.3 400.5,248.9 		"/>
		<g>
			<rect x="403.9" y="249.8" class="st49" width="58.9" height="3.7"/>
			<rect x="403.9" y="256.9" class="st49" width="45.3" height="3.7"/>
		</g>
		<rect x="385" y="273.9" class="st1" width="10.8" height="10.8"/>
		<polygon class="st9" points="390.3,283.2 384.7,277.6 386.4,275.9 390.3,279.9 398.8,271.4 400.5,273 		"/>
		<g>
			<rect x="403.9" y="273.9" class="st49" width="58.9" height="3.7"/>
			<rect x="403.9" y="281" class="st49" width="45.3" height="3.7"/>
		</g>
		<rect x="385" y="298" class="st1" width="10.8" height="10.8"/>
		<polygon class="st9" points="390.3,307.3 384.7,301.7 386.4,300 390.3,303.9 398.8,295.4 400.5,297.1 		"/>
		<g>
			<rect x="403.9" y="298" class="st49" width="58.9" height="3.7"/>
			<rect x="403.9" y="305.1" class="st49" width="45.3" height="3.7"/>
		</g>
		<rect x="385" y="322" class="st1" width="10.8" height="10.8"/>
		<polygon class="st9" points="390.3,331.3 384.7,325.7 386.4,324.1 390.3,328 398.8,319.5 400.5,321.2 		"/>
		<g>
			<rect x="403.9" y="322" class="st49" width="58.9" height="3.7"/>
			<rect x="403.9" y="329.1" class="st49" width="45.3" height="3.7"/>
		</g>
		<rect x="385" y="346.1" class="st1" width="10.8" height="10.8"/>
		<polygon class="st9" points="390.3,355.4 384.7,349.8 386.4,348.1 390.3,352.1 398.8,343.6 400.5,345.3 		"/>
		<g>
			<rect x="403.9" y="346.1" class="st49" width="58.9" height="3.7"/>
			<rect x="403.9" y="353.2" class="st49" width="45.3" height="3.7"/>
		</g>
		<rect x="376.6" y="226.4" class="st9" width="94.2" height="12.3"/>
		<path class="st1" d="M465.7,232.5c0-1.2-0.9-2.1-2.1-2.1c-1.2,0-2.1,0.9-2.1,2.1c0,1.2,0.9,2.1,2.1,2.1l0,0
			C464.7,234.7,465.7,233.7,465.7,232.5z"/>
		<path class="st50" d="M453.9,232.5c0-1.2-0.9-2.1-2.1-2.1c-1.2,0-2.1,0.9-2.1,2.1c0,1.2,0.9,2.1,2.1,2.1l0,0
			C452.9,234.7,453.9,233.7,453.9,232.5z"/>
		<path class="st51" d="M442,232.5c0-1.2-0.9-2.1-2.1-2.1c-1.2,0-2.1,0.9-2.1,2.1c0,1.2,0.9,2.1,2.1,2.1c0,0,0,0,0,0
			C441.1,234.7,442,233.7,442,232.5z"/>
		<path class="st17" d="M331.8,332.5c0,0,13.9,1.8,18,1.6c3-0.1,2.5-4.3,2.2-6.9c-0.3-2.6-8.6-7.3-16.6-8.9
			C329.3,317.1,330.8,331.8,331.8,332.5z"/>
		<path class="st52" d="M286.6,332.7c10.9,4.1,49.5,11.3,49.5,11.3s2.9-2.5,5-9.7c3.1-10.9,1.1-15.3,1.1-15.3S318,308.8,301,303.5
			c-13.3-4.2-25.6,1.8-27.4,12.6C272.1,324.9,280.5,330.4,286.6,332.7z"/>
		<path class="st17" d="M382,284.7c-0.6-1.3-2.6-5.2-3.5-4.7c-2.5,1.4-1,7.3,0.3,10c0.3,0.9,1.2,1.4,2.1,1.1
			c0.2-0.1,0.4-0.1,0.5-0.3C381.4,290.9,383.2,287.5,382,284.7z"/>
		<path class="st17" d="M353.6,332.6c11.5-7.9,25.8-32.9,30.6-39.1c10.9-3.4,1.5-10.5,8.1-12.3c4.2-1.1,4.2-5.9-1.9-4.3
			c-3.9,1-11.5,0.2-11.5,13.1c-0.7,3.7-22.3,22.9-29.3,29.5c-3.1,3-7.5,7.7-6,10.5C346,334.2,349.3,335.5,353.6,332.6z"/>
		<path class="st13" d="M311.5,546.9c0,0-17-4.4-18.3-4.8c-1.3-0.4-3.5-1.2-3.8,3.3c-0.3,4.5-0.4,5.9-0.4,5.9s19.7,0,21.9-0.2
			S314.6,549.3,311.5,546.9z"/>
		
			<linearGradient id="SVGID_13_" gradientUnits="userSpaceOnUse" x1="7262.7612" y1="1924.1283" x2="7286.4209" y2="1803.7583" gradientTransform="matrix(0.9686 0.2487 0.2487 -0.9686 -7216.5396 445.2364)">
			<stop  offset="0" style="stop-color:#0F1E2D"/>
			<stop  offset="1" style="stop-color:#082947"/>
		</linearGradient>
		<path class="st53" d="M318.7,390.4c0,0-7.1,49.8-9.3,61.1c-2.2,11.3-24.4,10.6-28.4-4.9c-4-15.5-9.2-37-7.2-52s7.1-25.9,19.1-33.2
			C305,354,321.1,375.2,318.7,390.4z"/>
		
			<linearGradient id="SVGID_14_" gradientUnits="userSpaceOnUse" x1="7578.6929" y1="-112.9694" x2="7602.4829" y2="-234.0594" gradientTransform="matrix(0.9908 0.1354 0.1354 -0.9908 -7202.3501 -750.8555)">
			<stop  offset="0" style="stop-color:#0F1E2D"/>
			<stop  offset="1" style="stop-color:#082947"/>
		</linearGradient>
		<path class="st54" d="M309.8,448.4c-1.4,14-2.4,14-4.6,30.8s-8.3,65.5-8.3,65.5c-0.7,0.7-1.7,1-2.7,1c-2.1-0.3-2.3-1.5-2.3-1.5
			s0.4-12.1-1.4-20.2s-9-58.5-10.2-68.5c-1.2-10,1.5-17.8,13-18.2S310.4,442.3,309.8,448.4z"/>
		<path class="st9" d="M294.2,395.1c0,0-26.4,57.7-31.2,67.8s-25.7,4-25.7-11.7s-0.6-47.6,15.9-76.8
			C262,358.7,300.2,381.3,294.2,395.1z"/>
		<path class="st55" d="M289.1,300.2c18,1.2,19.3,16.4,21.7,25.4c8.2,31.5,10.1,76.6,10.1,76.6s-9.3,5.6-37.9,6.1
			c-37.1,0.6-43.7-9.8-43.7-9.8s9.6-52.9,13.7-80.8c1.3-8.9,9.5-16.1,24.2-17.5C281.1,299.8,285.2,299.8,289.1,300.2z"/>
		<path class="st9" d="M295.2,280.8c4.2-6.2,2-22.4-6.6-23.5c-10.7-1.4-8.8,9-14.5,10.7c-12.3,3.5-13.4,12.3-9.1,21.6
			c2.6,5.7,8.5,7.6,14.5,7.5c2.6,0,0.2-6.3,5.6-11.2S295.2,280.8,295.2,280.8z"/>
		<path class="st9" d="M296,301.9c1,5.3,4.8,17-7.9,16.4c-14.9-0.7-18.1-16.1-17.3-17.8c1.9-4,7.8-1.8,11.5-1.6
			C286.2,299.2,295.2,297.4,296,301.9z"/>
		<path class="st17" d="M274.8,300.3c0.7-0.1,1.5-0.1,2.2-0.1c4-0.1,8,0.1,12,0.7c1.3,0.2,2.6,0.4,3.9,0.8c0.5,3.4,3.9,13-5.6,12.8
			C277.4,314.2,274.6,303.5,274.8,300.3z"/>
		<path class="st17" d="M277.9,302c-0.5-10.7,0.8-12.6,1.5-21.1c-0.1-0.3,12-1.7,13.2-8.5c1.8,4.5,3.1,9.2,3.9,13.9
			c0.8,6.2,0,10-6.7,8.9c0.9,2.9,0.9,6.5,1.7,9c1.6,5.1-1.6,7.3-4.1,7.7S278.4,311.9,277.9,302z"/>
		<path class="st17" d="M273.9,285c-0.4,1.7,1.2,3.6,3.7,4.2s4.8-0.2,5.3-1.9c0.4-1.7-1.2-3.6-3.7-4.2S274.3,283.3,273.9,285z"/>
		<path class="st13" d="M154.5,460.3c0,0,6.1-16.5,6.6-17.7c0.5-1.2,1.6-3.4-2.9-4.1s-5.8-1-5.8-1s-2.1,19.6-2,21.8
			C150.4,461.3,151.8,463.1,154.5,460.3z"/>
		<path class="st9" d="M252.6,468.6c-13.8-2.8-13.6-3.8-30.2-7.7S158.1,446,158.1,446c-0.6-0.8-0.8-1.8-0.7-2.7
			c0.6-2.1,1.8-2.2,1.8-2.2s12,1.7,20.2,0.6s59.1-3,69.2-3.1s17.6,3.3,16.8,14.8S258.7,469.9,252.6,468.6z"/>
		
			<image style="overflow:visible;enable-background:new    ;" width="78" height="54" xlink:href="A29BD287E4DD1F11.png"  transform="matrix(1 0 0 1 255 359.2599)">
		</image>
		<path class="st16" d="M260.6,404.8c-0.3,1.1,0.3,2.2,1.3,2.5c0.2,0.1,0.4,0.1,0.7,0.1h52.2c1.5-0.1,2.8-1.1,3.3-2.6l9-37.2
			c0.3-1.1-0.3-2.2-1.3-2.5c-0.2-0.1-0.4-0.1-0.7-0.1h-52.2c-1.5,0.1-2.9,1.1-3.3,2.6L260.6,404.8z"/>
		
			<linearGradient id="SVGID_15_" gradientUnits="userSpaceOnUse" x1="13279.7422" y1="625.601" x2="13258.5928" y2="555.8109" gradientTransform="matrix(1 0 0 -1 -13004.9004 988.3654)">
			<stop  offset="0" style="stop-color:#FFFFFF"/>
			<stop  offset="0.99" style="stop-color:#AEAEAE"/>
		</linearGradient>
		<path class="st56" d="M260.6,404.8l9-37.2c0.4-1.5,1.7-2.5,3.3-2.6h2.5c-1.5,0.1-2.8,1.1-3.3,2.6l-9,37.2
			c-0.3,1.1,0.3,2.2,1.3,2.5c0.2,0.1,0.4,0.1,0.7,0.1h-2.5c-1.1,0-2-0.8-2.1-1.9C260.5,405.2,260.5,405,260.6,404.8z"/>
		<path class="st9" d="M301.4,386.7c0.9-4.3-1.2-7.7-4.8-7.7s-7.3,3.5-8.2,7.7c-1,4.3,1.2,7.7,4.8,7.7S300.4,391,301.4,386.7z"/>
		
			<linearGradient id="SVGID_16_" gradientUnits="userSpaceOnUse" x1="3730.2876" y1="608.7755" x2="3730.2876" y2="573.4155" gradientTransform="matrix(1 0 0 -1 -3437.1899 988.3654)">
			<stop  offset="0" style="stop-color:#FFFFFF"/>
			<stop  offset="1" style="stop-color:#AAAAAA"/>
		</linearGradient>
		<path class="st57" d="M291.5,386.7c0.7-3.5,3.2-6.3,6.6-7.5c-0.5-0.2-1-0.2-1.5-0.2c-3.6,0-7.3,3.5-8.2,7.7
			c-1,4.3,1.2,7.7,4.8,7.7c0.6,0,1.1-0.1,1.6-0.2C292.1,393.4,290.7,390.3,291.5,386.7z"/>
		
			<linearGradient id="SVGID_17_" gradientUnits="userSpaceOnUse" x1="290.5968" y1="528.1766" x2="294.7668" y2="623.0366" gradientTransform="matrix(1 0 0 -1 0 988.3654)">
			<stop  offset="0" style="stop-color:#A5A4A4"/>
			<stop  offset="0.22" style="stop-color:#BBBABA"/>
			<stop  offset="0.74" style="stop-color:#ECECEC"/>
			<stop  offset="1" style="stop-color:#FFFFFF"/>
		</linearGradient>
		<path class="st58" d="M260.6,404.8c-0.3,1.1,0.3,2.2,1.3,2.5c0.2,0.1,0.4,0.1,0.7,0.1h52.2c1.5-0.1,2.8-1.1,3.3-2.6l9-37.2
			c0.3-1.1-0.3-2.2-1.3-2.5c-0.2-0.1-0.4-0.1-0.7-0.1h-52.2c-1.5,0.1-2.9,1.1-3.3,2.6L260.6,404.8z"/>
		<path class="st17" d="M216.1,341.4c0,0-9.8,10-12.1,13.5c-1.7,2.5,2,4.6,4.2,5.9c2.2,1.3,11-2.5,17.1-7.9
			C229.8,348.7,217.2,341.1,216.1,341.4z"/>
		<path class="st52" d="M257,308.6c-12.1,6.2-48,36.3-48,36.3s0.2,3.8,4.7,9.9c6.8,9,11.6,10.1,11.6,10.1s10-5.3,21.5-12.9
			c5.6-3.7,8.4-8.1,13-22C262.6,321.6,262.8,305.7,257,308.6z"/>
		<path class="st17" d="M260.7,377.8c1.6-0.7,6.8-2.5,7.3-1.3c1.4,3-2.2,2.5-4.5,6c-1.5,2.3-8.4-0.2-8.4-0.2
			C256.6,380.5,258.5,378.9,260.7,377.8z"/>
		<path class="st17" d="M211.4,352.7c13.3,4.3,39,26.7,45.4,27.8c4.2,0.8,6.1-3.1,13.2,0.9c3.4,1.9,2.2,12.7-1.7,13.4
			c-8.9,1.6-12.6-2.4-14-8.6c-2.6-2.7-34.2-15.5-42.8-19.8c-3.9-1.9-9.5-5.2-8.8-8.3C203.7,353.4,206.5,351.1,211.4,352.7z"/>
		<polygon class="st18" points="727.7,507.6 727.7,483.9 756.3,484 		"/>
		<rect x="712.8" y="433.6" class="st18" width="127.8" height="54.6"/>
		<path class="st1" d="M730.3,449h13.5c0.1,0.7,0.2,1.3,0.2,2c0,0.7-0.1,1.4-0.2,2.1h-8.7v5.2h6.9c0.1,0.7,0.2,1.4,0.2,2.1
			c0,0.7-0.1,1.4-0.2,2.1h-6.9v6.3h8.9c0.1,0.7,0.2,1.3,0.2,2c0,0.7-0.1,1.4-0.2,2.1h-13.7V449z"/>
		<path class="st1" d="M746.5,449c1-0.1,1.9-0.2,2.7-0.3c0.8-0.1,1.8-0.1,2.8-0.1c1.2,0,2.4,0.1,3.6,0.3c1.1,0.2,2.2,0.6,3.2,1.2
			c0.9,0.6,1.7,1.3,2.3,2.3c0.6,1.1,0.9,2.4,0.9,3.7c0,1.5-0.4,2.9-1.2,4.1c-0.3,0.5-0.7,0.9-1.1,1.3c-0.4,0.3-0.7,0.6-1.1,0.9
			l-0.6,0.4l5.8,10.1l-1.4,0.1c-0.5,0-1,0.1-1.5,0.1c-0.8,0-1.7-0.1-2.5-0.2l-6.2-11.1l0.8-0.4l1.1-0.6c0.5-0.3,0.9-0.6,1.3-0.9
			c0.4-0.4,0.7-0.8,1-1.3c0.8-1.6,0.5-3.6-0.8-4.9c-0.9-0.7-2-1-3.1-1c-0.4,0-0.9,0-1.3,0.1v20.1c-0.4,0-0.8,0.1-1.2,0.1
			c-0.4,0-0.8,0-1.2,0h-1.2c-0.4,0-0.9-0.1-1.3-0.1L746.5,449z"/>
		<path class="st1" d="M765.1,449c1-0.1,1.9-0.2,2.7-0.3c0.8-0.1,1.8-0.1,2.8-0.1c1.2,0,2.4,0.1,3.6,0.3c1.1,0.2,2.2,0.6,3.2,1.2
			c0.9,0.6,1.7,1.3,2.3,2.3c0.6,1.1,0.9,2.4,0.9,3.7c0,0.8-0.1,1.6-0.3,2.3c-0.2,0.6-0.5,1.2-0.8,1.8c-0.3,0.5-0.7,0.9-1.1,1.3
			c-0.4,0.3-0.7,0.6-1.1,0.9l-0.6,0.4l5.8,10.1l-1.4,0.1c-0.5,0-1,0.1-1.5,0.1c-0.8,0-1.7-0.1-2.5-0.2l-6.2-11.1l0.8-0.4l1.1-0.6
			c0.5-0.3,0.9-0.6,1.3-0.9c0.4-0.4,0.7-0.8,1-1.3c0.8-1.6,0.5-3.6-0.8-4.9c-0.9-0.7-2-1-3.1-1c-0.4,0-0.9,0-1.3,0.1v20.1
			c-0.4,0-0.8,0.1-1.2,0.1c-0.4,0-0.8,0-1.2,0h-1.2c-0.4,0-0.9-0.1-1.3-0.1L765.1,449z"/>
		<path class="st1" d="M792.9,473.3c-1.6,0-3.2-0.3-4.7-0.9c-1.3-0.6-2.4-1.5-3.2-2.6c-0.9-1.2-1.5-2.5-1.9-3.9
			c-0.4-1.6-0.6-3.2-0.6-4.9c0-1.7,0.2-3.3,0.6-4.9c0.4-1.4,1-2.8,1.9-3.9c0.8-1.1,2-2,3.2-2.6c3-1.2,6.3-1.2,9.3,0
			c1.3,0.6,2.4,1.5,3.2,2.6c0.9,1.2,1.5,2.5,1.9,3.9c0.4,1.6,0.6,3.3,0.6,4.9c0,1.7-0.2,3.3-0.6,4.9c-0.4,1.4-1,2.7-1.9,3.9
			c-0.9,1.1-2,2-3.2,2.6C796,473,794.5,473.3,792.9,473.3z M792.9,469.2c3.4,0,5.1-2.7,5.1-8.2c0.1-2.1-0.3-4.3-1.2-6.2
			c-0.8-1.4-2.3-2.2-3.9-2.1c-3.5,0-5.2,2.7-5.2,8.2S789.4,469.2,792.9,469.2L792.9,469.2z"/>
		<path class="st1" d="M805.8,449l2.7-0.3c0.8-0.1,1.8-0.1,2.8-0.1c1.2,0,2.4,0.1,3.6,0.3c1.1,0.2,2.2,0.6,3.2,1.2
			c0.9,0.6,1.7,1.3,2.3,2.3c0.6,1.1,0.9,2.4,0.9,3.7c0,0.8-0.1,1.6-0.3,2.3c-0.4,1.2-1.1,2.3-2,3.1c-0.4,0.3-0.7,0.6-1.1,0.9
			l-0.6,0.4l5.8,10.1l-1.4,0.1c-0.5,0-1,0.1-1.5,0.1c-0.8,0-1.7-0.1-2.5-0.2l-6.2-11.1l0.8-0.4l1.1-0.6c0.5-0.3,0.9-0.6,1.3-0.9
			c0.4-0.4,0.8-0.8,1-1.3c0.3-0.6,0.4-1.2,0.4-1.8c0.1-1.2-0.3-2.3-1.2-3.1c-0.9-0.7-2-1-3.1-1c-0.4,0-0.9,0-1.3,0.1v20.1
			c-0.4,0-0.8,0.1-1.2,0.1c-0.4,0-0.8,0-1.2,0h-1.2c-0.4,0-0.9-0.1-1.3-0.1L805.8,449z"/>
		
			<image style="overflow:visible;enable-background:new    ;" width="145" height="114" xlink:href="A29BD287E4DD1F13.png"  transform="matrix(1 0 0 1 704 312.2599)">
		</image>
		<path class="st21" d="M834.6,418.1c5.8,0,7.9-3.9,4.7-8.8l-56.8-85.6c-3.2-4.8-8.4-4.8-11.6,0l-56.8,85.6
			c-3.2,4.8-1.1,8.8,4.7,8.8L834.6,418.1z"/>
		<path class="st9" d="M771.2,404.4c-0.3-1.8-0.4-3.7-0.5-5.5c0-1.9,0.2-3.8,0.5-5.6c1.8-0.3,3.7-0.4,5.5-0.5c1.9,0,3.8,0.2,5.6,0.5
			c0.3,1.8,0.4,3.7,0.5,5.5c0,1.9-0.2,3.8-0.5,5.6c-1.8,0.3-3.7,0.5-5.5,0.5C774.9,404.8,773,404.7,771.2,404.4z M770.9,349.8
			c1.9-0.3,3.9-0.5,5.8-0.5c2,0,4,0.2,5.9,0.5l-0.8,37.1c-1.7,0.3-3.4,0.4-5.1,0.4c-1.7,0-3.5-0.2-5.2-0.4L770.9,349.8z"/>
		<rect x="789.4" y="568.7" class="st21" width="18.4" height="38.3"/>
		<rect x="813.7" y="545.4" class="st59" width="18.4" height="61.6"/>
		<rect x="838" y="557.1" class="st21" width="18.4" height="49.9"/>
		<rect x="862.3" y="527.6" class="st59" width="18.4" height="79.5"/>
		<rect x="740.7" y="562.2" class="st21" width="18.4" height="44.8"/>
		<rect x="765" y="585.6" class="st59" width="18.4" height="21.4"/>
		<rect x="736.8" y="604.8" class="st9" width="147.8" height="2.2"/>
		<path class="st60" d="M141.9,592.9c0,2-1.6,3.6-3.6,3.6l-109.8,0.2c-2,0-3.6-1.6-3.6-3.6l-0.2-89.5c0-2,1.6-3.6,3.6-3.6l109.8-0.2
			c2,0,3.6,1.6,3.6,3.6L141.9,592.9z"/>
		<polygon class="st9" points="53.9,554.9 65.9,540.7 59.5,535.3 42.9,554.9 59.6,574.5 66,569.1 		"/>
		<polygon class="st9" points="112.8,554.8 100.7,540.6 107,535.2 123.7,554.8 107.1,574.4 100.7,569 		"/>
		
			<rect x="57.5" y="550.7" transform="matrix(0.4035 -0.915 0.915 0.4035 -458.0144 407.1945)" class="st9" width="51.7" height="8.4"/>
		<path class="st9" d="M141.7,503.4c0-2-1.6-3.6-3.6-3.6L28.3,500c-2,0-3.6,1.6-3.6,3.6v9.4h117L141.7,503.4z"/>
		<circle class="st1" cx="132.3" cy="506.4" r="2.4"/>
		<circle class="st20" cx="119.1" cy="506.4" r="2.4"/>
		<circle class="st61" cx="105.8" cy="506.4" r="2.4"/>
		<polygon class="st60" points="115,613.8 115,590.2 86.3,590.2 		"/>
		<path class="st60" d="M1020.5,617.8c0,2-1.6,3.6-3.6,3.6l-109.8,0.2c-2,0-3.6-1.6-3.6-3.6l-0.2-89.5c0-2,1.6-3.6,3.6-3.6
			l109.8-0.2c2,0,3.6,1.6,3.6,3.6L1020.5,617.8z"/>
		<polygon class="st9" points="932.5,579.8 944.5,565.6 938.1,560.2 921.5,579.8 938.2,599.4 944.5,594 		"/>
		<polygon class="st9" points="991.3,579.7 979.2,565.5 985.6,560.1 1002.3,579.7 985.7,599.3 979.3,593.9 		"/>
		
			<rect x="936.1" y="575.6" transform="matrix(0.4035 -0.915 0.915 0.4035 43.253 1225.9672)" class="st9" width="51.7" height="8.4"/>
		<path class="st9" d="M1020.3,528.3c0-2-1.6-3.6-3.6-3.6l-109.8,0.2c-2,0-3.6,1.6-3.6,3.6v9.4h117L1020.3,528.3z"/>
		<circle class="st1" cx="1010.9" cy="531.3" r="2.4"/>
		<circle class="st20" cx="997.7" cy="531.3" r="2.4"/>
		<circle class="st61" cx="984.4" cy="531.3" r="2.4"/>
		<polygon class="st60" points="930.2,638.7 930.2,615.1 958.9,615.1 		"/>
	</g>
</g>
</svg>
