<svg xmlns="http://www.w3.org/2000/svg" xmlns:xlink="http://www.w3.org/1999/xlink" version="1.1" width="715.5pt" height="561.75pt" viewBox="0 0 715.5 561.75">
<defs>
<clipPath id="clip_0">
<path transform="matrix(1,0,0,-1,0,561.75)" d="M9.9627 337.836C12.0493 348.709-3.4087 349.366 .6972 362.054 4.8031 374.743 18.553 387.445 21.6719 395.36 39.838 441.461 206.454 467.47 272.132 458.963 297.22 542.158 333.904 555.152 354.068 558.817 357.431 562.301 370.756 563.132 368.535 558.817 329.998 483.942 354.328 468.119 376.31 443.496 548.281 404.594 667.402 241.561 687.156 104.476 736.254 51.5788 705.631 21.838 704.212 18.6738 702.794 15.5095 716.834 56.6617 678.645 85.4908 675.69 90.9906 667.314 91.1149 662.92 95.5302 657.621 100.853 655.261 114.171 646.855 117.429 579.848 217.646 320.819 279.828 159.173 290.829 102.355 304.025 7.3184 324.057 9.9627 337.836Z" fill-rule="evenodd"/>
</clipPath>
<clipPath id="clip_1">
<path transform="matrix(1,0,0,-1,0,561.75)" d="M95.3729 355.068C117.416 343.553 163.088 352.706 175.955 365.607 188.823 378.509 201.139 392.503 163.574 390.948 126.009 389.392 69.0857 368.801 95.3729 355.068Z" fill-rule="evenodd"/>
</clipPath>
<clipPath id="clip_2">
<path transform="matrix(1,0,0,-1,0,561.75)" d="M357.138 407.49C379.181 395.974 424.852 405.128 437.72 418.029 450.588 430.93 462.904 444.925 425.339 443.369 387.774 441.814 330.85 421.222 357.138 407.49Z" fill-rule="evenodd"/>
</clipPath>
</defs>
<path transform="matrix(1,0,0,-1,0,561.75)" d="M177.551 218.081C158.534 252.592 148.112 309.297 152.166 326.906L153.382 328.498C153.382 328.498 165.935 330.391 179.952 331.247 165.569 340.305 123.302 344.465 123.302 344.465L121.738 343.219C108.736 317.658 107.567 242.51 154.086 196.686 161.819 189.07 172.257 206.883 177.551 218.081Z" fill-rule="evenodd"/>
<path transform="matrix(1,0,0,-1,0,561.75)" d="M9.9627 337.836C12.0493 348.709-3.4087 349.366 .6972 362.054 4.8031 374.743 18.553 387.445 21.6719 395.36 39.838 441.461 206.454 467.47 272.132 458.963 297.22 542.158 333.904 555.152 354.068 558.817 357.431 562.301 370.756 563.132 368.535 558.817 329.998 483.942 354.328 468.119 376.31 443.496 548.281 404.594 667.402 241.561 687.156 104.476 736.254 51.5788 705.631 21.838 704.212 18.6738 702.794 15.5095 716.834 56.6617 678.645 85.4908 675.69 90.9906 667.314 91.1149 662.92 95.5302 657.621 100.853 655.261 114.171 646.855 117.429 579.848 217.646 320.819 279.828 159.173 290.829 102.355 304.025 7.3184 324.057 9.9627 337.836Z" fill="#ffffff" fill-rule="evenodd"/>
<g clip-path="url(#clip_0)">
<path transform="matrix(1,0,0,-1,0,561.75)" d="M18.3733 363.6C18.3733 344.544 16.6164 338.118 29.1814 331.66 41.7464 325.201 160.196 302.176 176.314 298.367 192.433 294.559 406.054 259.614 437.539 248.464 469.023 237.315 489.182 219.985 489.182 219.985L475.153 198.848 31.3394 299.854C31.3394 299.854-23.4346 349.201-15.7753 363.366-8.1161 377.532 18.3733 382.655 18.3733 363.6Z" fill="#ebebeb" fill-rule="evenodd"/>
<path transform="matrix(1,0,0,-1,0,561.75)" d="M-15.1947 348.527C14.1972 347.923 58.485 353.55 62.0543 350.666 65.6235 347.782 70.3276 340.252 73.986 341.817 77.6444 343.382 76.4113 348.602 84.7333 348.079 93.0553 347.556 157.094 311.119 168.229 309.692 179.364 308.265 384.42 266.982 389.55 296.587 394.681 326.191 372.327 352.034 393.637 356.356 414.947 360.679 526.722 275.958 514.819 255.835 502.915 235.712 421.089 231.471 421.089 231.471L664.898-4.1264 735.5 18.0293 729.955 163.246 598.218 351.455 398.047 576.836 268.397 557.584 228.773 500.271 122.338 472.514-31.9265 377.602C-31.9265 377.602-44.5866 349.131-15.1947 348.527Z" fill-rule="evenodd"/>
<path transform="matrix(1,0,0,-1,0,561.75)" d="M95.3729 355.068C117.416 343.553 163.088 352.706 175.955 365.607 188.823 378.509 201.139 392.503 163.574 390.948 126.009 389.392 69.0857 368.801 95.3729 355.068Z" fill="#ebebeb" fill-rule="evenodd"/>
<g clip-path="url(#clip_1)">
<path transform="matrix(1,0,0,-1,0,561.75)" d="M91.8908 359.636C113.934 348.121 159.605 357.274 172.473 370.175 185.341 383.077 197.657 397.071 160.092 395.516 122.527 393.96 65.6036 373.369 91.8908 359.636Z" fill="#ffffff" fill-rule="evenodd"/>
</g>
<path transform="matrix(1,0,0,-1,0,561.75)" d="M357.138 407.49C379.181 395.974 424.852 405.128 437.72 418.029 450.588 430.93 462.904 444.925 425.339 443.369 387.774 441.814 330.85 421.222 357.138 407.49Z" fill="#ebebeb" fill-rule="evenodd"/>
<g clip-path="url(#clip_2)">
<path transform="matrix(1,0,0,-1,0,561.75)" d="M354.232 411.76C376.275 400.245 421.947 409.398 434.815 422.299 447.682 435.201 459.998 449.195 422.433 447.64 384.868 446.084 327.945 425.493 354.232 411.76Z" fill="#ffffff" fill-rule="evenodd"/>
</g>
</g>
<path transform="matrix(1,0,0,-1,0,561.75)" d="M162.47 326.906C156.027 298.924 186.14 172.22 229.211 192.71 269.429 211.842 235.359 316.336 226.958 326.553 218.556 336.77 163.686 328.498 163.686 328.498" fill-rule="evenodd"/>
<text xml:space="preserve" transform="matrix(1 0 -0 1 -8.07865 510.1311)" font-size="226.783" font-family="Raleway"><tspan y="0" x="0 170.31404 247.62438 413.40278">OrQA</tspan></text>
<text xml:space="preserve" transform="matrix(1 0 -0 1 6.56944 551.005)" font-size="45.3224" font-family="Raleway"><tspan y="0" x="0 33.855836 49.129487 77.1342 101.830379 139.81055 173.76155 200.67853 225.37471 237.70241 247.57816 262.76573 296.25898 326.57966 348.46583 370.352 396.9517 418.83787 440.72404 482.37077 508.97047 535.1668">OrganQualityAssessment</tspan></text>
</svg>
