<?xml version="1.0" encoding="utf-8"?>
<!-- Generator: Adobe Illustrator 25.2.0, SVG Export Plug-In . SVG Version: 6.00 Build 0)  -->
<svg version="1.1" id="Layer_1" xmlns="http://www.w3.org/2000/svg" xmlns:xlink="http://www.w3.org/1999/xlink" x="0px" y="0px"
	 viewBox="0 0 200 200" style="enable-background:new 0 0 200 200;" xml:space="preserve">
<style type="text/css">
	.st0{fill:#00BFD8;}
</style>
<path class="st0" d="M115,130H35c-8.3,0-15-6.7-15-15V35c0-8.3,6.7-15,15-15h130c8.3,0,15,6.7,15,15v10c0,2.8-2.2,5-5,5s-5-2.2-5-5V35
	c0-2.8-2.2-5-5-5H35c-2.8,0-5,2.2-5,5v80c0,2.8,2.2,5,5,5h80c2.8,0,5,2.2,5,5S117.8,130,115,130z"/>
<path class="st0" d="M115,170H15c-8.3,0-15-6.7-15-15v-10c0-2.8,2.2-5,5-5h110c2.8,0,5,2.2,5,5s-2.2,5-5,5H10v5c0,2.8,2.2,5,5,5h100
	c2.8,0,5,2.2,5,5S117.8,170,115,170z"/>
<path class="st0" d="M185,170h-40c-8.3,0-15-6.7-15-15V75c0-8.3,6.7-15,15-15h40c8.3,0,15,6.7,15,15v80C200,163.3,193.3,170,185,170z M145,70
	c-2.8,0-5,2.2-5,5v80c0,2.8,2.2,5,5,5h40c2.8,0,5-2.2,5-5V75c0-2.8-2.2-5-5-5H145z"/>
<path class="st0" d="M165,150c-1.3,0-2.6-0.5-3.5-1.5c-0.9-0.9-1.5-2.2-1.5-3.5s0.5-2.6,1.5-3.5c0.9-0.9,2.2-1.5,3.5-1.5s2.6,0.5,3.5,1.5
	c0.9,0.9,1.5,2.2,1.5,3.5s-0.5,2.6-1.5,3.5C167.6,149.5,166.3,150,165,150z"/>
<path class="st0" d="M117.5,54.2H43.5c-1.4,0-2.5-1.8-2.5-4s1.1-4,2.5-4h74.1c1.4,0,2.5,1.8,2.5,4S118.9,54.2,117.5,54.2z"/>
<path class="st0" d="M75.5,78.4h-33c-0.8,0-1.5-1.8-1.5-4s0.7-4,1.5-4h33c0.8,0,1.5,1.8,1.5,4S76.3,78.4,75.5,78.4z"/>
<path class="st0" d="M98.2,102.6H42.8c-1,0-1.8-1.8-1.8-4s0.8-4,1.8-4h55.3c1,0,1.8,1.8,1.8,4S99.2,102.6,98.2,102.6z"/>
</svg>
